<?xml version="1.0" encoding="utf-8" standalone="no"?>
<!DOCTYPE svg PUBLIC "-//W3C//DTD SVG 1.1//EN"
  "http://www.w3.org/Graphics/SVG/1.1/DTD/svg11.dtd">
<!-- Created with matplotlib (https://matplotlib.org/) -->
<svg height="180pt" version="1.1" viewBox="0 0 244.8 180" width="244.8pt" xmlns="http://www.w3.org/2000/svg" xmlns:xlink="http://www.w3.org/1999/xlink">
 <metadata>
  <rdf:RDF xmlns:cc="http://creativecommons.org/ns#" xmlns:dc="http://purl.org/dc/elements/1.1/" xmlns:rdf="http://www.w3.org/1999/02/22-rdf-syntax-ns#">
   <cc:Work>
    <dc:type rdf:resource="http://purl.org/dc/dcmitype/StillImage"/>
    <dc:date>2021-05-26T11:05:32.526863</dc:date>
    <dc:format>image/svg+xml</dc:format>
    <dc:creator>
     <cc:Agent>
      <dc:title>Matplotlib v3.3.3, https://matplotlib.org/</dc:title>
     </cc:Agent>
    </dc:creator>
   </cc:Work>
  </rdf:RDF>
 </metadata>
 <defs>
  <style type="text/css">*{stroke-linecap:butt;stroke-linejoin:round;}</style>
 </defs>
 <g id="figure_1">
  <g id="patch_1">
   <path d="M 0 180 
L 244.8 180 
L 244.8 0 
L 0 0 
z
" style="fill:none;"/>
  </g>
  <g id="axes_1">
   <g id="patch_2">
    <path d="M 36.72 81 
L 237.03984 81 
L 237.03984 9 
L 36.72 9 
z
" style="fill:none;"/>
   </g>
   <g id="PolyCollection_1">
    <path clip-path="url(#pe130c9401c)" d="M 45.825447 12.096774 
L 45.825447 12.096774 
L 46.7642 13.33335 
L 47.624723 16.341779 
L 48.563476 20.567416 
L 49.502229 25.199303 
L 50.362752 29.424959 
L 51.301505 32.639097 
L 52.240257 34.502961 
L 53.100781 35.027417 
L 54.039533 34.544783 
L 54.978286 33.547298 
L 55.838809 32.56132 
L 56.777562 32.036688 
L 57.716315 32.201066 
L 58.576838 33.056953 
L 59.515591 34.443714 
L 60.454344 36.0635 
L 61.393096 37.614285 
L 62.25362 38.858553 
L 63.192372 39.696777 
L 64.131125 40.138323 
L 64.991648 40.292255 
L 65.930401 40.330753 
L 66.869154 40.40443 
L 67.729677 40.617477 
L 68.66843 41.024159 
L 69.607182 41.602478 
L 70.467706 42.290911 
L 71.406458 43.027351 
L 72.345211 43.746732 
L 73.205734 44.4099 
L 74.144487 45.014662 
L 75.08324 45.569451 
L 75.943763 46.093264 
L 76.882516 46.610834 
L 77.821268 47.131242 
L 78.681792 47.6552 
L 79.620544 48.182413 
L 80.559297 48.707064 
L 81.41982 49.228445 
L 82.358573 49.753565 
L 83.297326 50.289158 
L 84.157849 50.840896 
L 85.096602 51.408232 
L 86.035355 51.98184 
L 86.974107 52.545986 
L 87.834631 53.08386 
L 88.773383 53.578864 
L 89.712136 54.024936 
L 90.572659 54.426164 
L 91.511412 54.788943 
L 92.450165 55.127889 
L 93.310688 55.456732 
L 94.249441 55.777321 
L 95.188193 56.091739 
L 96.048717 56.397954 
L 96.987469 56.684543 
L 97.926222 56.950622 
L 98.786745 57.201298 
L 99.725498 57.438609 
L 100.664251 57.67852 
L 101.524774 57.939105 
L 102.463527 58.226095 
L 103.40228 58.550528 
L 104.262803 58.917596 
L 105.201556 59.314436 
L 106.140308 59.735076 
L 107.000832 60.172198 
L 107.939584 60.605557 
L 108.878337 61.031279 
L 109.73886 61.45076 
L 110.677613 61.854579 
L 111.616366 62.252323 
L 112.555118 62.650504 
L 113.415642 63.061427 
L 114.354394 63.477281 
L 115.293147 63.904161 
L 116.15367 64.344644 
L 117.092423 64.777566 
L 118.031176 65.198386 
L 118.891699 65.602168 
L 119.830452 65.962976 
L 120.769205 66.278556 
L 121.629728 66.513755 
L 122.568481 66.731444 
L 123.507233 66.898676 
L 124.367757 67.029454 
L 125.306509 67.116992 
L 126.245262 67.180308 
L 127.105785 67.239429 
L 128.044538 67.289675 
L 128.983291 67.348415 
L 129.843814 67.429393 
L 130.782567 67.516946 
L 131.721319 67.61455 
L 132.581843 67.721615 
L 133.520595 67.810604 
L 134.459348 67.879412 
L 135.319871 67.929138 
L 136.258624 67.940184 
L 137.197377 67.922892 
L 138.136129 67.883222 
L 138.996653 67.838184 
L 139.935405 67.780813 
L 140.874158 67.728804 
L 141.734681 67.697742 
L 142.673434 67.675024 
L 143.612187 67.668858 
L 144.47271 67.683231 
L 145.411463 67.693764 
L 146.350216 67.6987 
L 147.210739 67.69574 
L 148.149492 67.658816 
L 149.088244 67.589294 
L 149.948768 67.49199 
L 150.88752 67.351173 
L 151.826273 67.179929 
L 152.686796 66.994725 
L 153.625549 66.79084 
L 154.564302 66.589003 
L 155.424825 66.409315 
L 156.363578 66.246791 
L 157.30233 66.115893 
L 158.162854 66.02584 
L 159.101606 65.957892 
L 160.040359 65.910633 
L 160.900882 65.878668 
L 161.839635 65.83257 
L 162.778388 65.765719 
L 163.717141 65.666921 
L 164.577664 65.536799 
L 165.516417 65.359786 
L 166.455169 65.147906 
L 167.315693 64.917899 
L 168.254445 64.669304 
L 169.193198 64.424445 
L 170.053721 64.204776 
L 170.992474 64.009568 
L 171.931227 63.854322 
L 172.79175 63.749958 
L 173.730503 63.684279 
L 174.669255 63.660861 
L 175.529779 63.680561 
L 176.468531 63.723197 
L 177.407284 63.785704 
L 178.267807 63.863588 
L 179.20656 63.932268 
L 180.145313 63.98663 
L 181.005836 64.023649 
L 181.944589 64.024379 
L 182.883342 63.993715 
L 183.743865 63.940695 
L 184.682618 63.857983 
L 185.62137 63.759112 
L 186.481894 63.657549 
L 187.420646 63.547059 
L 188.359399 63.439427 
L 189.298152 63.339134 
L 190.158675 63.255986 
L 191.097428 63.180752 
L 192.03618 63.121958 
L 192.896704 63.087287 
L 193.835456 63.065512 
L 194.774209 63.062543 
L 195.634732 63.083006 
L 196.573485 63.111751 
L 197.512238 63.149496 
L 198.372761 63.194662 
L 199.311514 63.225569 
L 200.250266 63.238112 
L 201.11079 63.229424 
L 202.049542 63.181388 
L 202.988295 63.098668 
L 203.848819 62.990793 
L 204.787571 62.853865 
L 205.726324 62.705409 
L 206.586847 62.564254 
L 207.5256 62.431418 
L 208.464353 62.323112 
L 209.324876 62.251785 
L 210.263629 62.209052 
L 211.202381 62.199916 
L 212.062905 62.226794 
L 213.001657 62.273806 
L 213.94041 62.340987 
L 214.800933 62.427747 
L 215.739686 62.515506 
L 216.678439 62.601686 
L 217.617191 62.677351 
L 218.477715 62.739672 
L 219.416467 62.769934 
L 220.35522 62.770071 
L 221.215743 62.746083 
L 222.154496 62.690412 
L 223.093249 62.616243 
L 223.953772 62.538198 
L 224.892525 62.45337 
L 225.831278 62.374542 
L 226.691801 62.311875 
L 227.630554 62.256122 
L 228.569306 62.213275 
L 229.42983 62.188367 
L 230.368582 62.169436 
L 231.307335 62.161205 
L 232.167858 62.167974 
L 233.106611 62.17653 
L 234.045364 62.189454 
L 234.905887 62.208653 
L 235.84464 62.219103 
L 236.783392 62.223012 
L 237.643916 62.223521 
L 238.582668 62.208092 
L 239.521421 62.182161 
L 240.381944 62.152191 
L 241.320697 62.108858 
L 242.25945 62.060389 
L 243.198203 62.010017 
L 244.058726 61.966691 
L 244.997479 61.922659 
L 245.936231 61.885843 
L 246.796755 61.862809 
L 247.735507 61.842313 
L 248.67426 61.827994 
L 249.534783 61.822421 
L 250.473536 61.811497 
L 251.412289 61.797555 
L 252.272812 61.783689 
L 253.211565 61.757984 
L 254.150317 61.725953 
L 255.010841 61.694062 
L 255.949593 61.653306 
L 256.888346 61.6109 
L 257.748869 61.57382 
L 258.687622 61.532818 
L 259.626375 61.494086 
L 260.486898 61.463202 
L 261.425651 61.429474 
L 262.364404 61.397456 
L 263.224927 61.371357 
L 264.16368 61.339807 
L 265.102432 61.307286 
L 265.962956 61.278653 
L 266.901708 61.243848 
L 267.840461 61.208761 
L 268.779214 61.17455 
L 269.639737 61.14771 
L 270.57849 61.119519 
L 271.517242 61.096227 
L 272.377766 61.083472 
L 273.316518 61.065413 
L 274.255271 61.056794 
L 275.115794 61.055802 
L 276.054547 61.049841 
L 276.9933 61.041016 
L 277.853823 61.031467 
L 278.792576 61.0088 
L 279.731328 60.976641 
L 280.591852 60.93975 
L 281.530604 60.889181 
L 282.469357 60.832033 
L 283.32988 60.776057 
L 284.268633 60.714623 
L 285.207386 60.655751 
L 286.067909 60.606933 
L 287.006662 60.560541 
L 287.945415 60.52256 
L 288.805938 60.497846 
L 289.744691 60.475824 
L 290.683443 60.459162 
L 291.543967 60.449803 
L 292.482719 60.435406 
L 293.421472 60.418453 
L 294.360225 60.397867 
L 295.220748 60.378698 
L 296.159501 60.353168 
L 297.098253 60.328381 
L 297.958777 60.311428 
L 298.897529 60.29469 
L 299.836282 60.283327 
L 300.696805 60.281062 
L 301.635558 60.276462 
L 302.574311 60.271378 
L 303.434834 60.267662 
L 304.373587 60.253897 
L 305.31234 60.233736 
L 306.172863 60.212092 
L 307.111616 60.18114 
L 308.050368 60.147643 
L 308.910892 60.118447 
L 309.849644 60.086243 
L 310.788397 60.056608 
L 311.64892 60.034025 
L 312.587673 60.008472 
L 313.526426 59.983016 
L 314.386949 59.96066 
L 315.325702 59.931326 
L 316.264454 59.899074 
L 317.124978 59.86849 
L 318.06373 59.831171 
L 318.06373 58.386325 
L 318.06373 58.386325 
L 317.124978 58.383557 
L 316.264454 58.369439 
L 315.325702 58.371137 
L 314.386949 58.369559 
L 313.526426 58.377662 
L 312.587673 58.395667 
L 311.64892 58.417413 
L 310.788397 58.447203 
L 309.849644 58.487828 
L 308.910892 58.536453 
L 308.050368 58.586926 
L 307.111616 58.648589 
L 306.172863 58.710802 
L 305.31234 58.77385 
L 304.373587 58.837272 
L 303.434834 58.899505 
L 302.574311 58.958105 
L 301.635558 59.015916 
L 300.696805 59.073228 
L 299.836282 59.123831 
L 298.897529 59.179637 
L 297.958777 59.235653 
L 297.098253 59.289849 
L 296.159501 59.354059 
L 295.220748 59.420089 
L 294.360225 59.490057 
L 293.421472 59.564372 
L 292.482719 59.641693 
L 291.543967 59.72667 
L 290.683443 59.802765 
L 289.744691 59.888241 
L 288.805938 59.966791 
L 287.945415 60.038499 
L 287.006662 60.114958 
L 286.067909 60.183826 
L 285.207386 60.245595 
L 284.268633 60.305759 
L 283.32988 60.362063 
L 282.469357 60.408815 
L 281.530604 60.457489 
L 280.591852 60.500841 
L 279.731328 60.539222 
L 278.792576 60.577342 
L 277.853823 60.617514 
L 276.9933 60.652354 
L 276.054547 60.688278 
L 275.115794 60.728318 
L 274.255271 60.760703 
L 273.316518 60.80251 
L 272.377766 60.845365 
L 271.517242 60.881386 
L 270.57849 60.926528 
L 269.639737 60.97009 
L 268.779214 61.012462 
L 267.840461 61.06094 
L 266.901708 61.108675 
L 265.962956 61.160257 
L 265.102432 61.207466 
L 264.16368 61.264032 
L 263.224927 61.323819 
L 262.364404 61.383062 
L 261.425651 61.452103 
L 260.486898 61.529213 
L 259.626375 61.604822 
L 258.687622 61.696684 
L 257.748869 61.789986 
L 256.888346 61.882863 
L 255.949593 61.9929 
L 255.010841 62.098386 
L 254.150317 62.207084 
L 253.211565 62.312279 
L 252.272812 62.414567 
L 251.412289 62.51147 
L 250.473536 62.601268 
L 249.534783 62.684505 
L 248.67426 62.749583 
L 247.735507 62.810584 
L 246.796755 62.855829 
L 245.936231 62.887678 
L 244.997479 62.904707 
L 244.058726 62.919309 
L 243.198203 62.903391 
L 242.25945 62.896484 
L 241.320697 62.880655 
L 240.381944 62.8367 
L 239.521421 62.798115 
L 238.582668 62.73707 
L 237.643916 62.693237 
L 236.783392 62.641215 
L 235.84464 62.57179 
L 234.905887 62.528231 
L 234.045364 62.463453 
L 233.106611 62.43443 
L 232.167858 62.41563 
L 231.307335 62.38963 
L 230.368582 62.398593 
L 229.42983 62.413444 
L 228.569306 62.445547 
L 227.630554 62.494589 
L 226.691801 62.551341 
L 225.831278 62.61088 
L 224.892525 62.678541 
L 223.953772 62.745546 
L 223.093249 62.800236 
L 222.154496 62.85449 
L 221.215743 62.89907 
L 220.35522 62.916956 
L 219.416467 62.934251 
L 218.477715 62.922074 
L 217.617191 62.901869 
L 216.678439 62.873076 
L 215.739686 62.805882 
L 214.800933 62.74744 
L 213.94041 62.642531 
L 213.001657 62.561469 
L 212.062905 62.473629 
L 211.202381 62.343942 
L 210.263629 62.251601 
L 209.324876 62.131928 
L 208.464353 62.045753 
L 207.5256 61.975946 
L 206.586847 61.897901 
L 205.726324 61.857347 
L 204.787571 61.828242 
L 203.848819 61.838159 
L 202.988295 61.860362 
L 202.049542 61.91761 
L 201.11079 61.994699 
L 200.250266 62.0914 
L 199.311514 62.203267 
L 198.372761 62.337587 
L 197.512238 62.461895 
L 196.573485 62.59399 
L 195.634732 62.735954 
L 194.774209 62.853835 
L 193.835456 62.976404 
L 192.896704 63.078203 
L 192.03618 63.161383 
L 191.097428 63.236406 
L 190.158675 63.296812 
L 189.298152 63.332601 
L 188.359399 63.368316 
L 187.420646 63.385186 
L 186.481894 63.404483 
L 185.62137 63.413103 
L 184.682618 63.41246 
L 183.743865 63.423123 
L 182.883342 63.415543 
L 181.944589 63.428963 
L 181.005836 63.445955 
L 180.145313 63.452196 
L 179.20656 63.482744 
L 178.267807 63.516177 
L 177.407284 63.561567 
L 176.468531 63.624385 
L 175.529779 63.699405 
L 174.669255 63.779498 
L 173.730503 63.87873 
L 172.79175 63.980125 
L 171.931227 64.07693 
L 170.992474 64.182579 
L 170.053721 64.277456 
L 169.193198 64.356779 
L 168.254445 64.429234 
L 167.315693 64.483781 
L 166.455169 64.522704 
L 165.516417 64.558004 
L 164.577664 64.574125 
L 163.717141 64.589809 
L 162.778388 64.600508 
L 161.839635 64.627079 
L 160.900882 64.660609 
L 160.040359 64.689877 
L 159.101606 64.745027 
L 158.162854 64.808459 
L 157.30233 64.878161 
L 156.363578 64.961606 
L 155.424825 65.049893 
L 154.564302 65.130446 
L 153.625549 65.213292 
L 152.686796 65.287993 
L 151.826273 65.344682 
L 150.88752 65.386405 
L 149.948768 65.419013 
L 149.088244 65.413356 
L 148.149492 65.412764 
L 147.210739 65.378056 
L 146.350216 65.345536 
L 145.411463 65.314116 
L 144.47271 65.257179 
L 143.612187 65.220253 
L 142.673434 65.178237 
L 141.734681 65.171282 
L 140.874158 65.173988 
L 139.935405 65.195244 
L 138.996653 65.251956 
L 138.136129 65.327948 
L 137.197377 65.438909 
L 136.258624 65.574728 
L 135.319871 65.751477 
L 134.459348 65.929918 
L 133.520595 66.160029 
L 132.581843 66.384153 
L 131.721319 66.612735 
L 130.782567 66.887856 
L 129.843814 67.136441 
L 128.983291 67.404678 
L 128.044538 67.643225 
L 127.105785 67.892541 
L 126.245262 68.088413 
L 125.306509 68.269415 
L 124.367757 68.429194 
L 123.507233 68.536446 
L 122.568481 68.610581 
L 121.629728 68.652995 
L 120.769205 68.654979 
L 119.830452 68.610052 
L 118.891699 68.565477 
L 118.031176 68.462521 
L 117.092423 68.393261 
L 116.15367 68.324477 
L 115.293147 68.223168 
L 114.354394 68.178427 
L 113.415642 68.128595 
L 112.555118 68.117699 
L 111.616366 68.119325 
L 110.677613 68.153974 
L 109.73886 68.196864 
L 108.878337 68.218585 
L 107.939584 68.249286 
L 107.000832 68.237155 
L 106.140308 68.201429 
L 105.201556 68.13544 
L 104.262803 67.978377 
L 103.40228 67.806702 
L 102.463527 67.535553 
L 101.524774 67.287382 
L 100.664251 67.005827 
L 99.725498 66.641738 
L 98.786745 66.354473 
L 97.926222 66.002374 
L 96.987469 65.756782 
L 96.048717 65.541429 
L 95.188193 65.300302 
L 94.249441 65.14957 
L 93.310688 64.97347 
L 92.450165 64.835308 
L 91.511412 64.637788 
L 90.572659 64.446276 
L 89.712136 64.193906 
L 88.773383 63.795259 
L 87.834631 63.39564 
L 86.974107 62.802584 
L 86.035355 62.260642 
L 85.096602 61.678962 
L 84.157849 60.951146 
L 83.297326 60.368375 
L 82.358573 59.726984 
L 81.41982 59.281056 
L 80.559297 58.919404 
L 79.620544 58.602872 
L 78.681792 58.437383 
L 77.821268 58.299728 
L 76.882516 58.214647 
L 75.943763 58.09928 
L 75.08324 57.840588 
L 74.144487 57.490372 
L 73.205734 56.833222 
L 72.345211 56.072409 
L 71.406458 54.895532 
L 70.467706 53.727283 
L 69.607182 52.430855 
L 68.66843 50.801316 
L 67.729677 49.475921 
L 66.869154 48.05656 
L 65.930401 47.107203 
L 64.991648 46.44446 
L 64.131125 46.095379 
L 63.192372 46.174737 
L 62.25362 46.681954 
L 61.393096 47.357734 
L 60.454344 48.150276 
L 59.515591 49.06811 
L 58.576838 49.621474 
L 57.716315 49.804278 
L 56.777562 49.388658 
L 55.838809 48.340813 
L 54.978286 46.167193 
L 54.039533 43.574005 
L 53.100781 39.624204 
L 52.240257 35.764106 
L 51.301505 30.729302 
L 50.362752 26.426282 
L 49.502229 22.312508 
L 48.563476 17.979269 
L 47.624723 15.090226 
L 46.7642 12.867149 
L 45.825447 12.096774 
z
" style="fill:#ededed;fill-opacity:0.3;stroke:#ededed;stroke-opacity:0.3;"/>
   </g>
   <g id="matplotlib.axis_1">
    <g id="xtick_1">
     <g id="line2d_1">
      <defs>
       <path d="M 0 0 
L 0 3.5 
" id="m0fd652967c" style="stroke:#ededed;stroke-width:0.8;"/>
      </defs>
      <g>
       <use style="fill:#ededed;stroke:#ededed;stroke-width:0.8;" x="45.825447" xlink:href="#m0fd652967c" y="81"/>
      </g>
     </g>
    </g>
    <g id="xtick_2">
     <g id="line2d_2">
      <g>
       <use style="fill:#ededed;stroke:#ededed;stroke-width:0.8;" x="91.352684" xlink:href="#m0fd652967c" y="81"/>
      </g>
     </g>
    </g>
    <g id="xtick_3">
     <g id="line2d_3">
      <g>
       <use style="fill:#ededed;stroke:#ededed;stroke-width:0.8;" x="136.87992" xlink:href="#m0fd652967c" y="81"/>
      </g>
     </g>
    </g>
    <g id="xtick_4">
     <g id="line2d_4">
      <g>
       <use style="fill:#ededed;stroke:#ededed;stroke-width:0.8;" x="182.407156" xlink:href="#m0fd652967c" y="81"/>
      </g>
     </g>
    </g>
    <g id="xtick_5">
     <g id="line2d_5">
      <g>
       <use style="fill:#ededed;stroke:#ededed;stroke-width:0.8;" x="227.934393" xlink:href="#m0fd652967c" y="81"/>
      </g>
     </g>
    </g>
   </g>
   <g id="matplotlib.axis_2">
    <g id="ytick_1">
     <g id="line2d_6">
      <defs>
       <path d="M 0 0 
L -3.5 0 
" id="mdf98b3bd55" style="stroke:#ededed;stroke-width:0.8;"/>
      </defs>
      <g>
       <use style="fill:#ededed;stroke:#ededed;stroke-width:0.8;" x="36.72" xlink:href="#mdf98b3bd55" y="74.032258"/>
      </g>
     </g>
     <g id="text_1">
      <!-- −0.3 -->
      <g style="fill:#ededed;" transform="translate(13.9275 76.895383)scale(0.08 -0.08)">
       <defs>
        <path d="M 52.828125 31.203125 
L 5.5625 31.203125 
L 5.5625 39.40625 
L 52.828125 39.40625 
z
" id="ArialMT-8722"/>
        <path d="M 4.15625 35.296875 
Q 4.15625 48 6.765625 55.734375 
Q 9.375 63.484375 14.515625 67.671875 
Q 19.671875 71.875 27.484375 71.875 
Q 33.25 71.875 37.59375 69.546875 
Q 41.9375 67.234375 44.765625 62.859375 
Q 47.609375 58.5 49.21875 52.21875 
Q 50.828125 45.953125 50.828125 35.296875 
Q 50.828125 22.703125 48.234375 14.96875 
Q 45.65625 7.234375 40.5 3 
Q 35.359375 -1.21875 27.484375 -1.21875 
Q 17.140625 -1.21875 11.234375 6.203125 
Q 4.15625 15.140625 4.15625 35.296875 
z
M 13.1875 35.296875 
Q 13.1875 17.671875 17.3125 11.828125 
Q 21.4375 6 27.484375 6 
Q 33.546875 6 37.671875 11.859375 
Q 41.796875 17.71875 41.796875 35.296875 
Q 41.796875 52.984375 37.671875 58.78125 
Q 33.546875 64.59375 27.390625 64.59375 
Q 21.34375 64.59375 17.71875 59.46875 
Q 13.1875 52.9375 13.1875 35.296875 
z
" id="ArialMT-48"/>
        <path d="M 9.078125 0 
L 9.078125 10.015625 
L 19.09375 10.015625 
L 19.09375 0 
z
" id="ArialMT-46"/>
        <path d="M 4.203125 18.890625 
L 12.984375 20.0625 
Q 14.5 12.59375 18.140625 9.296875 
Q 21.78125 6 27 6 
Q 33.203125 6 37.46875 10.296875 
Q 41.75 14.59375 41.75 20.953125 
Q 41.75 27 37.796875 30.921875 
Q 33.84375 34.859375 27.734375 34.859375 
Q 25.25 34.859375 21.53125 33.890625 
L 22.515625 41.609375 
Q 23.390625 41.5 23.921875 41.5 
Q 29.546875 41.5 34.03125 44.421875 
Q 38.53125 47.359375 38.53125 53.46875 
Q 38.53125 58.296875 35.25 61.46875 
Q 31.984375 64.65625 26.8125 64.65625 
Q 21.6875 64.65625 18.265625 61.421875 
Q 14.84375 58.203125 13.875 51.765625 
L 5.078125 53.328125 
Q 6.6875 62.15625 12.390625 67.015625 
Q 18.109375 71.875 26.609375 71.875 
Q 32.46875 71.875 37.390625 69.359375 
Q 42.328125 66.84375 44.9375 62.5 
Q 47.5625 58.15625 47.5625 53.265625 
Q 47.5625 48.640625 45.0625 44.828125 
Q 42.578125 41.015625 37.703125 38.765625 
Q 44.046875 37.3125 47.5625 32.6875 
Q 51.078125 28.078125 51.078125 21.140625 
Q 51.078125 11.765625 44.234375 5.25 
Q 37.40625 -1.265625 26.953125 -1.265625 
Q 17.53125 -1.265625 11.296875 4.34375 
Q 5.078125 9.96875 4.203125 18.890625 
z
" id="ArialMT-51"/>
       </defs>
       <use xlink:href="#ArialMT-8722"/>
       <use x="58.398438" xlink:href="#ArialMT-48"/>
       <use x="114.013672" xlink:href="#ArialMT-46"/>
       <use x="141.796875" xlink:href="#ArialMT-51"/>
      </g>
     </g>
    </g>
    <g id="ytick_2">
     <g id="line2d_7">
      <g>
       <use style="fill:#ededed;stroke:#ededed;stroke-width:0.8;" x="36.72" xlink:href="#mdf98b3bd55" y="50.806452"/>
      </g>
     </g>
     <g id="text_2">
      <!-- 0.0 -->
      <g style="fill:#ededed;" transform="translate(18.6 53.669577)scale(0.08 -0.08)">
       <use xlink:href="#ArialMT-48"/>
       <use x="55.615234" xlink:href="#ArialMT-46"/>
       <use x="83.398438" xlink:href="#ArialMT-48"/>
      </g>
     </g>
    </g>
    <g id="ytick_3">
     <g id="line2d_8">
      <g>
       <use style="fill:#ededed;stroke:#ededed;stroke-width:0.8;" x="36.72" xlink:href="#mdf98b3bd55" y="27.580645"/>
      </g>
     </g>
     <g id="text_3">
      <!-- 0.3 -->
      <g style="fill:#ededed;" transform="translate(18.6 30.44377)scale(0.08 -0.08)">
       <use xlink:href="#ArialMT-48"/>
       <use x="55.615234" xlink:href="#ArialMT-46"/>
       <use x="83.398438" xlink:href="#ArialMT-51"/>
      </g>
     </g>
    </g>
   </g>
   <g id="LineCollection_1">
    <path clip-path="url(#pe130c9401c)" d="M 47.646537 39.772767 
L 47.646537 17.65266 
" style="fill:none;stroke:#ededed;stroke-width:0.5;"/>
    <path clip-path="url(#pe130c9401c)" d="M 49.467626 53.120528 
L 49.467626 33.962847 
" style="fill:none;stroke:#ededed;stroke-width:0.5;"/>
    <path clip-path="url(#pe130c9401c)" d="M 52.19926 46.818018 
L 52.19926 14.133041 
" style="fill:none;stroke:#ededed;stroke-width:0.5;"/>
    <path clip-path="url(#pe130c9401c)" d="M 54.930895 28.007311 
L 54.930895 18.991971 
" style="fill:none;stroke:#ededed;stroke-width:0.5;"/>
    <path clip-path="url(#pe130c9401c)" d="M 59.483618 47.403441 
L 59.483618 30.025723 
" style="fill:none;stroke:#ededed;stroke-width:0.5;"/>
    <path clip-path="url(#pe130c9401c)" d="M 64.036342 43.394256 
L 64.036342 6.43515 
" style="fill:none;stroke:#ededed;stroke-width:0.5;"/>
    <path clip-path="url(#pe130c9401c)" d="M 73.141789 41.191178 
L 73.141789 18.820063 
" style="fill:none;stroke:#ededed;stroke-width:0.5;"/>
    <path clip-path="url(#pe130c9401c)" d="M 91.352684 57.434902 
L 91.352684 41.04251 
" style="fill:none;stroke:#ededed;stroke-width:0.5;"/>
    <path clip-path="url(#pe130c9401c)" d="M 109.563578 60.984217 
L 109.563578 44.323791 
" style="fill:none;stroke:#ededed;stroke-width:0.5;"/>
    <path clip-path="url(#pe130c9401c)" d="M 136.87992 68.255708 
L 136.87992 42.76666 
" style="fill:none;stroke:#ededed;stroke-width:0.5;"/>
   </g>
   <g id="line2d_9">
    <path clip-path="url(#pe130c9401c)" d="M 45.825447 12.096774 
L 46.7642 12.910616 
L 47.624723 15.249973 
L 48.563476 18.824324 
L 49.502229 23.199905 
L 50.362752 27.866042 
L 51.301505 32.311299 
L 52.240257 36.096665 
L 53.100781 38.914052 
L 54.039533 40.621313 
L 54.978286 41.249413 
L 55.838809 40.982197 
L 57.716315 39.154308 
L 58.576838 38.088518 
L 59.515591 37.356631 
L 60.454344 37.156521 
L 61.393096 37.570269 
L 62.25362 38.564513 
L 63.192372 40.01039 
L 65.930401 45.091116 
L 66.869154 46.423208 
L 67.729677 47.398017 
L 68.66843 48.01438 
L 69.607182 48.333693 
L 71.406458 48.51534 
L 72.345211 48.614334 
L 73.205734 48.844896 
L 74.144487 49.25594 
L 75.08324 49.854592 
L 77.821268 52.375753 
L 79.620544 54.079238 
L 84.157849 57.073741 
L 86.035355 58.267561 
L 87.834631 59.641064 
L 91.511412 62.427728 
L 94.249441 64.04344 
L 96.987469 65.57415 
L 98.786745 66.838561 
L 103.40228 70.220596 
L 104.262803 70.75494 
L 106.140308 71.521169 
L 107.939584 71.942559 
L 112.555118 72.652133 
L 115.293147 73.449462 
L 125.306509 77.212995 
L 128.983291 78.28187 
L 130.782567 78.659311 
L 134.459348 79.167377 
L 151.826273 81.426583 
L 160.040359 83.501483 
L 162.778388 83.875347 
L 168.254445 84.479064 
L 171.931227 85.167635 
L 175.529779 85.921101 
L 177.407284 86.124635 
L 179.20656 86.158767 
L 181.944589 85.959705 
L 188.359399 85.356155 
L 191.097428 85.409154 
L 193.835456 85.690649 
L 197.512238 86.316377 
L 201.11079 86.912166 
L 203.848819 87.091814 
L 206.586847 86.959678 
L 212.062905 86.538258 
L 213.94041 86.654572 
L 216.678439 87.136942 
L 225.831278 89.344991 
L 228.569306 89.697134 
L 231.307335 89.824195 
L 234.905887 89.945523 
L 236.783392 90.231825 
L 238.582668 90.730346 
L 240.381944 91.493337 
L 244.997479 93.576116 
L 245.8 93.83028 
L 245.8 93.83028 
" style="fill:none;stroke:#ededed;stroke-dasharray:5,5;stroke-dashoffset:0;stroke-width:0.5;"/>
   </g>
   <g id="line2d_10">
    <path clip-path="url(#pe130c9401c)" d="M 68.589065 81 
L 68.589065 9 
" style="fill:none;stroke:#808080;stroke-dasharray:3.2,0.8,0.5,0.8;stroke-dashoffset:0;stroke-width:0.5;"/>
   </g>
   <g id="line2d_11">
    <defs>
     <path d="M -1.5 1.5 
L 1.5 1.5 
L 1.5 -1.5 
L -1.5 -1.5 
z
" id="m20963ec042" style="stroke:#ededed;stroke-linejoin:miter;"/>
    </defs>
    <g clip-path="url(#pe130c9401c)">
     <use style="fill:#ededed;stroke:#ededed;stroke-linejoin:miter;" x="47.646537" xlink:href="#m20963ec042" y="28.712713"/>
     <use style="fill:#ededed;stroke:#ededed;stroke-linejoin:miter;" x="49.467626" xlink:href="#m20963ec042" y="43.541688"/>
     <use style="fill:#ededed;stroke:#ededed;stroke-linejoin:miter;" x="52.19926" xlink:href="#m20963ec042" y="30.47553"/>
     <use style="fill:#ededed;stroke:#ededed;stroke-linejoin:miter;" x="54.930895" xlink:href="#m20963ec042" y="23.499641"/>
     <use style="fill:#ededed;stroke:#ededed;stroke-linejoin:miter;" x="59.483618" xlink:href="#m20963ec042" y="38.714582"/>
     <use style="fill:#ededed;stroke:#ededed;stroke-linejoin:miter;" x="64.036342" xlink:href="#m20963ec042" y="24.914703"/>
     <use style="fill:#ededed;stroke:#ededed;stroke-linejoin:miter;" x="73.141789" xlink:href="#m20963ec042" y="30.00562"/>
     <use style="fill:#ededed;stroke:#ededed;stroke-linejoin:miter;" x="91.352684" xlink:href="#m20963ec042" y="49.238706"/>
     <use style="fill:#ededed;stroke:#ededed;stroke-linejoin:miter;" x="109.563578" xlink:href="#m20963ec042" y="52.654004"/>
     <use style="fill:#ededed;stroke:#ededed;stroke-linejoin:miter;" x="136.87992" xlink:href="#m20963ec042" y="55.511184"/>
    </g>
   </g>
   <g id="patch_3">
    <path d="M 36.72 81 
L 36.72 9 
" style="fill:none;stroke:#ededed;stroke-linecap:square;stroke-linejoin:miter;stroke-width:0.5;"/>
   </g>
   <g id="patch_4">
    <path d="M 237.03984 81 
L 237.03984 9 
" style="fill:none;stroke:#ededed;stroke-linecap:square;stroke-linejoin:miter;stroke-width:0.5;"/>
   </g>
   <g id="patch_5">
    <path d="M 36.72 81 
L 237.03984 81 
" style="fill:none;stroke:#ededed;stroke-linecap:square;stroke-linejoin:miter;stroke-width:0.5;"/>
   </g>
   <g id="patch_6">
    <path d="M 36.72 9 
L 237.03984 9 
" style="fill:none;stroke:#ededed;stroke-linecap:square;stroke-linejoin:miter;stroke-width:0.5;"/>
   </g>
   <g id="text_4">
    <!-- $9 E_r$, $D/J = \mathrm{-}0.7$ -->
    <g style="fill:#ededed;" transform="translate(175.6 19.8)scale(0.08 -0.08)">
     <defs>
      <path d="M 10.984375 1.515625 
L 10.984375 10.5 
Q 14.703125 8.734375 18.5 7.8125 
Q 22.3125 6.890625 25.984375 6.890625 
Q 35.75 6.890625 40.890625 13.453125 
Q 46.046875 20.015625 46.78125 33.40625 
Q 43.953125 29.203125 39.59375 26.953125 
Q 35.25 24.703125 29.984375 24.703125 
Q 19.046875 24.703125 12.671875 31.3125 
Q 6.296875 37.9375 6.296875 49.421875 
Q 6.296875 60.640625 12.9375 67.421875 
Q 19.578125 74.21875 30.609375 74.21875 
Q 43.265625 74.21875 49.921875 64.515625 
Q 56.59375 54.828125 56.59375 36.375 
Q 56.59375 19.140625 48.40625 8.859375 
Q 40.234375 -1.421875 26.421875 -1.421875 
Q 22.703125 -1.421875 18.890625 -0.6875 
Q 15.09375 0.046875 10.984375 1.515625 
z
M 30.609375 32.421875 
Q 37.25 32.421875 41.125 36.953125 
Q 45.015625 41.5 45.015625 49.421875 
Q 45.015625 57.28125 41.125 61.84375 
Q 37.25 66.40625 30.609375 66.40625 
Q 23.96875 66.40625 20.09375 61.84375 
Q 16.21875 57.28125 16.21875 49.421875 
Q 16.21875 41.5 20.09375 36.953125 
Q 23.96875 32.421875 30.609375 32.421875 
z
" id="DejaVuSans-57"/>
      <path d="M 16.890625 72.90625 
L 62.984375 72.90625 
L 61.375 64.59375 
L 25.09375 64.59375 
L 20.90625 43.015625 
L 55.71875 43.015625 
L 54.109375 34.71875 
L 19.28125 34.71875 
L 14.203125 8.296875 
L 51.3125 8.296875 
L 49.703125 0 
L 2.6875 0 
z
" id="DejaVuSans-Oblique-69"/>
      <path d="M 44.578125 46.390625 
Q 43.21875 47.125 41.453125 47.515625 
Q 39.703125 47.90625 37.703125 47.90625 
Q 30.515625 47.90625 25.140625 42.453125 
Q 19.78125 37.015625 18.015625 27.875 
L 12.5 0 
L 3.515625 0 
L 14.203125 54.6875 
L 23.1875 54.6875 
L 21.484375 46.1875 
Q 25.046875 50.921875 30 53.453125 
Q 34.96875 56 40.578125 56 
Q 42.046875 56 43.453125 55.828125 
Q 44.875 55.671875 46.296875 55.28125 
z
" id="DejaVuSans-Oblique-114"/>
      <path d="M 8.890625 0 
L 8.890625 10.015625 
L 18.890625 10.015625 
L 18.890625 0 
Q 18.890625 -5.515625 16.9375 -8.90625 
Q 14.984375 -12.3125 10.75 -14.15625 
L 8.296875 -10.40625 
Q 11.078125 -9.1875 12.390625 -6.8125 
Q 13.71875 -4.4375 13.875 0 
z
" id="ArialMT-44"/>
      <path id="ArialMT-32"/>
      <path d="M 16.890625 72.90625 
L 38.09375 72.90625 
Q 54.984375 72.90625 63.59375 65.75 
Q 72.21875 58.59375 72.21875 44.484375 
Q 72.21875 35.15625 68.9375 26.53125 
Q 65.671875 17.921875 59.90625 12.015625 
Q 54.109375 5.953125 45.171875 2.96875 
Q 36.234375 0 24.03125 0 
L 2.6875 0 
z
M 25.203125 64.796875 
L 14.203125 8.109375 
L 27.09375 8.109375 
Q 43.65625 8.109375 52.734375 17.625 
Q 61.8125 27.15625 61.8125 44.484375 
Q 61.8125 54.984375 55.953125 59.890625 
Q 50.09375 64.796875 37.59375 64.796875 
z
" id="DejaVuSans-Oblique-68"/>
      <path d="M 25.390625 72.90625 
L 33.6875 72.90625 
L 8.296875 -9.28125 
L 0 -9.28125 
z
" id="DejaVuSans-47"/>
      <path d="M 16.703125 72.90625 
L 26.609375 72.90625 
L 13.375 5.078125 
Q 10.796875 -8.15625 4.65625 -14.078125 
Q -1.46875 -20.015625 -12.5 -20.015625 
L -16.40625 -20.015625 
L -14.796875 -11.71875 
L -11.71875 -11.71875 
Q -5.125 -11.71875 -1.703125 -7.953125 
Q 1.703125 -4.203125 3.515625 5.078125 
z
" id="DejaVuSans-Oblique-74"/>
      <path d="M 10.59375 45.40625 
L 73.1875 45.40625 
L 73.1875 37.203125 
L 10.59375 37.203125 
z
M 10.59375 25.484375 
L 73.1875 25.484375 
L 73.1875 17.1875 
L 10.59375 17.1875 
z
" id="DejaVuSans-61"/>
      <path d="M 10.59375 35.5 
L 73.1875 35.5 
L 73.1875 27.203125 
L 10.59375 27.203125 
z
" id="DejaVuSans-8722"/>
      <path d="M 31.78125 66.40625 
Q 24.171875 66.40625 20.328125 58.90625 
Q 16.5 51.421875 16.5 36.375 
Q 16.5 21.390625 20.328125 13.890625 
Q 24.171875 6.390625 31.78125 6.390625 
Q 39.453125 6.390625 43.28125 13.890625 
Q 47.125 21.390625 47.125 36.375 
Q 47.125 51.421875 43.28125 58.90625 
Q 39.453125 66.40625 31.78125 66.40625 
z
M 31.78125 74.21875 
Q 44.046875 74.21875 50.515625 64.515625 
Q 56.984375 54.828125 56.984375 36.375 
Q 56.984375 17.96875 50.515625 8.265625 
Q 44.046875 -1.421875 31.78125 -1.421875 
Q 19.53125 -1.421875 13.0625 8.265625 
Q 6.59375 17.96875 6.59375 36.375 
Q 6.59375 54.828125 13.0625 64.515625 
Q 19.53125 74.21875 31.78125 74.21875 
z
" id="DejaVuSans-48"/>
      <path d="M 10.6875 12.40625 
L 21 12.40625 
L 21 0 
L 10.6875 0 
z
" id="DejaVuSans-46"/>
      <path d="M 8.203125 72.90625 
L 55.078125 72.90625 
L 55.078125 68.703125 
L 28.609375 0 
L 18.3125 0 
L 43.21875 64.59375 
L 8.203125 64.59375 
z
" id="DejaVuSans-55"/>
     </defs>
     <use transform="translate(0 0.78125)" xlink:href="#DejaVuSans-57"/>
     <use transform="translate(63.623047 0.78125)" xlink:href="#DejaVuSans-Oblique-69"/>
     <use transform="translate(126.806641 -15.625)scale(0.7)" xlink:href="#DejaVuSans-Oblique-114"/>
     <use transform="translate(158.320312 0.78125)" xlink:href="#ArialMT-44"/>
     <use transform="translate(186.103516 0.78125)" xlink:href="#ArialMT-32"/>
     <use transform="translate(213.886719 0.78125)" xlink:href="#DejaVuSans-Oblique-68"/>
     <use transform="translate(290.888672 0.78125)" xlink:href="#DejaVuSans-47"/>
     <use transform="translate(324.580078 0.78125)" xlink:href="#DejaVuSans-Oblique-74"/>
     <use transform="translate(373.554688 0.78125)" xlink:href="#DejaVuSans-61"/>
     <use transform="translate(476.826172 0.78125)" xlink:href="#DejaVuSans-8722"/>
     <use transform="translate(560.615234 0.78125)" xlink:href="#DejaVuSans-48"/>
     <use transform="translate(624.238281 0.78125)" xlink:href="#DejaVuSans-46"/>
     <use transform="translate(648.275391 0.78125)" xlink:href="#DejaVuSans-55"/>
    </g>
   </g>
  </g>
  <g id="axes_2">
   <g id="patch_7">
    <path d="M 36.72 153 
L 237.03984 153 
L 237.03984 81 
L 36.72 81 
z
" style="fill:none;"/>
   </g>
   <g id="PolyCollection_2">
    <path clip-path="url(#pebc57cc6ea)" d="M 45.825447 84.096774 
L 45.825447 84.096774 
L 46.7642 84.56745 
L 47.624723 85.495049 
L 48.563476 86.895744 
L 49.502229 88.721898 
L 50.362752 90.922013 
L 51.301505 93.486681 
L 52.240257 96.352059 
L 53.100781 99.455562 
L 54.039533 104.42585 
L 54.978286 107.937471 
L 55.838809 111.499938 
L 56.777562 115.07149 
L 57.716315 118.592649 
L 58.576838 122.014325 
L 59.515591 125.294563 
L 60.454344 128.392047 
L 61.393096 131.273244 
L 62.25362 133.916222 
L 63.192372 136.290267 
L 64.131125 138.385076 
L 64.991648 140.201169 
L 65.930401 141.720436 
L 66.869154 142.954613 
L 67.729677 143.923537 
L 68.66843 144.62109 
L 69.607182 145.28445 
L 70.467706 145.427475 
L 71.406458 145.374855 
L 72.345211 145.164567 
L 73.205734 144.835037 
L 74.144487 144.391987 
L 75.08324 143.873257 
L 75.943763 143.314453 
L 76.882516 142.718866 
L 77.821268 142.11831 
L 78.681792 141.540875 
L 79.620544 140.983987 
L 80.559297 140.470292 
L 81.41982 140.01843 
L 82.358573 139.618578 
L 83.297326 139.283884 
L 84.157849 139.024182 
L 85.096602 138.79362 
L 86.035355 138.686608 
L 86.974107 138.636786 
L 87.834631 138.645621 
L 88.773383 138.690379 
L 89.712136 138.771052 
L 90.572659 138.887491 
L 91.511412 139.015957 
L 92.450165 139.156545 
L 93.310688 139.310095 
L 94.249441 139.453876 
L 95.188193 139.590098 
L 96.048717 139.72212 
L 96.987469 139.829366 
L 97.926222 139.916988 
L 98.786745 139.991237 
L 99.725498 140.033943 
L 100.664251 140.052971 
L 101.524774 140.09694 
L 102.463527 140.058581 
L 103.40228 139.999352 
L 104.262803 139.929391 
L 105.201556 139.833785 
L 106.140308 139.72302 
L 107.000832 139.607408 
L 107.939584 139.4724 
L 108.878337 139.328197 
L 109.73886 139.184578 
L 110.677613 139.026941 
L 111.616366 138.864751 
L 112.555118 138.699158 
L 113.415642 138.538839 
L 114.354394 138.369044 
L 115.293147 138.198199 
L 116.15367 138.034272 
L 117.092423 137.820997 
L 118.031176 137.64917 
L 118.891699 137.485086 
L 119.830452 137.31448 
L 120.769205 137.144859 
L 121.629728 136.983396 
L 122.568481 136.816307 
L 123.507233 136.65084 
L 124.367757 136.49391 
L 125.306509 136.332169 
L 126.245262 136.172548 
L 127.105785 136.02161 
L 128.044538 135.866318 
L 128.983291 135.713172 
L 129.843814 135.568288 
L 130.782567 135.418835 
L 131.721319 135.27084 
L 132.581843 135.092878 
L 133.520595 134.946237 
L 134.459348 134.799519 
L 135.319871 134.658063 
L 136.258624 134.509711 
L 137.197377 134.35996 
L 138.136129 134.208507 
L 138.996653 134.060683 
L 139.935405 133.90531 
L 140.874158 133.748085 
L 141.734681 133.594567 
L 142.673434 133.434529 
L 143.612187 133.273956 
L 144.47271 133.118688 
L 145.411463 132.959456 
L 146.350216 132.802466 
L 147.210739 132.653721 
L 148.149492 132.460779 
L 149.088244 132.320785 
L 149.948768 132.193297 
L 150.88752 132.070272 
L 151.826273 131.957522 
L 152.686796 131.860504 
L 153.625549 131.771148 
L 154.564302 131.694621 
L 155.424825 131.635729 
L 156.363578 131.586029 
L 157.30233 131.549909 
L 158.162854 131.53144 
L 159.101606 131.52161 
L 160.040359 131.524055 
L 160.900882 131.542198 
L 161.839635 131.566424 
L 162.778388 131.599803 
L 163.717141 131.690186 
L 164.577664 131.744862 
L 165.516417 131.799224 
L 166.455169 131.856039 
L 167.315693 131.918178 
L 168.254445 131.975151 
L 169.193198 132.029873 
L 170.053721 132.085444 
L 170.992474 132.131421 
L 171.931227 132.171083 
L 172.79175 132.207929 
L 173.730503 132.231769 
L 174.669255 132.246389 
L 175.529779 132.255784 
L 176.468531 132.250214 
L 177.407284 132.234045 
L 178.267807 132.211815 
L 179.20656 132.179386 
L 180.145313 132.126621 
L 181.005836 132.068953 
L 181.944589 131.998022 
L 182.883342 131.919324 
L 183.743865 131.838347 
L 184.682618 131.747344 
L 185.62137 131.652041 
L 186.481894 131.558047 
L 187.420646 131.458066 
L 188.359399 131.357799 
L 189.298152 131.258582 
L 190.158675 131.165812 
L 191.097428 131.072463 
L 192.03618 130.983822 
L 192.896704 130.904888 
L 193.835456 130.828564 
L 194.774209 130.751456 
L 195.634732 130.698303 
L 196.573485 130.649781 
L 197.512238 130.609934 
L 198.372761 130.582545 
L 199.311514 130.559765 
L 200.250266 130.545055 
L 201.11079 130.541697 
L 202.049542 130.541453 
L 202.988295 130.547368 
L 203.848819 130.562409 
L 204.787571 130.57807 
L 205.726324 130.597211 
L 206.586847 130.622712 
L 207.5256 130.645961 
L 208.464353 130.669857 
L 209.324876 130.697385 
L 210.263629 130.719973 
L 211.202381 130.773587 
L 212.062905 130.7942 
L 213.001657 130.807392 
L 213.94041 130.816537 
L 214.800933 130.825099 
L 215.739686 130.824796 
L 216.678439 130.819207 
L 217.617191 130.808029 
L 218.477715 130.794924 
L 219.416467 130.771823 
L 220.35522 130.74248 
L 221.215743 130.710635 
L 222.154496 130.66841 
L 223.093249 130.619646 
L 223.953772 130.568145 
L 224.892525 130.506298 
L 225.831278 130.438045 
L 226.691801 130.349917 
L 227.630554 130.26625 
L 228.569306 130.177066 
L 229.42983 130.086383 
L 230.368582 129.987531 
L 231.307335 129.884746 
L 232.167858 129.782148 
L 233.106611 129.673616 
L 234.045364 129.563473 
L 234.905887 129.455895 
L 235.84464 129.34526 
L 236.783392 129.235882 
L 237.643916 129.131876 
L 238.582668 129.027995 
L 239.521421 128.928385 
L 240.381944 128.836957 
L 241.320697 128.748635 
L 242.25945 128.646532 
L 243.198203 128.5766 
L 244.058726 128.51797 
L 244.997479 128.465406 
L 245.936231 128.421994 
L 246.796755 128.390579 
L 247.735507 128.365616 
L 248.67426 128.349663 
L 249.534783 128.34509 
L 250.473536 128.345976 
L 251.412289 128.354433 
L 252.272812 128.372469 
L 253.211565 128.39381 
L 254.150317 128.420284 
L 255.010841 128.453702 
L 255.949593 128.487541 
L 256.888346 128.523536 
L 257.748869 128.599216 
L 258.687622 128.636301 
L 259.626375 128.672072 
L 260.486898 128.708531 
L 261.425651 128.739073 
L 262.364404 128.76584 
L 263.224927 128.791119 
L 264.16368 128.808498 
L 265.102432 128.820467 
L 265.962956 128.829659 
L 266.901708 128.82996 
L 267.840461 128.82424 
L 268.779214 128.812539 
L 269.639737 128.797958 
L 270.57849 128.774885 
L 271.517242 128.746661 
L 272.377766 128.716685 
L 273.316518 128.677215 
L 274.255271 128.635355 
L 275.115794 128.594108 
L 276.054547 128.548606 
L 276.9933 128.502579 
L 277.853823 128.459685 
L 278.792576 128.415229 
L 279.731328 128.372862 
L 280.591852 128.33611 
L 281.530604 128.300283 
L 282.469357 128.268795 
L 283.32988 128.244913 
L 284.268633 128.223787 
L 285.207386 128.208494 
L 286.067909 128.201964 
L 287.006662 128.199069 
L 287.945415 128.202511 
L 288.805938 128.238019 
L 289.744691 128.256844 
L 290.683443 128.281321 
L 291.543967 128.313722 
L 292.482719 128.348141 
L 293.421472 128.386674 
L 294.360225 128.428665 
L 295.220748 128.476193 
L 296.159501 128.522977 
L 297.098253 128.571014 
L 297.958777 128.62239 
L 298.897529 128.670656 
L 299.836282 128.717897 
L 300.696805 128.766323 
L 301.635558 128.809431 
L 302.574311 128.849502 
L 303.434834 128.888957 
L 304.373587 128.921343 
L 305.31234 128.979468 
L 306.172863 129.002982 
L 307.111616 129.018162 
L 308.050368 129.027867 
L 308.910892 129.035048 
L 309.849644 129.033554 
L 310.788397 129.02646 
L 311.64892 129.016893 
L 312.587673 128.998871 
L 313.526426 128.975617 
L 314.386949 128.950345 
L 315.325702 128.917239 
L 316.264454 128.879577 
L 317.124978 128.84059 
L 318.06373 128.79461 
L 318.06373 122.164787 
L 318.06373 122.164787 
L 317.124978 122.182427 
L 316.264454 122.221925 
L 315.325702 122.239718 
L 314.386949 122.257399 
L 313.526426 122.29534 
L 312.587673 122.312058 
L 311.64892 122.328339 
L 310.788397 122.344346 
L 309.849644 122.376697 
L 308.910892 122.390555 
L 308.050368 122.403915 
L 307.111616 122.430223 
L 306.172863 122.441032 
L 305.31234 122.451209 
L 304.373587 122.470698 
L 303.434834 122.478132 
L 302.574311 122.484864 
L 301.635558 122.490564 
L 300.696805 122.501122 
L 299.836282 122.504288 
L 298.897529 122.506406 
L 297.958777 122.509657 
L 297.098253 122.509166 
L 296.159501 122.507592 
L 295.220748 122.503364 
L 294.360225 122.499062 
L 293.421472 122.493612 
L 292.482719 122.487141 
L 291.543967 122.473013 
L 290.683443 122.46356 
L 289.744691 122.45283 
L 288.805938 122.430142 
L 287.945415 122.416184 
L 287.006662 122.40083 
L 286.067909 122.368995 
L 285.207386 122.350231 
L 284.268633 122.329988 
L 283.32988 122.308478 
L 282.469357 122.265154 
L 281.530604 122.240072 
L 280.591852 122.213808 
L 279.731328 122.162057 
L 278.792576 122.132761 
L 277.853823 122.10255 
L 276.9933 122.044664 
L 276.054547 122.012556 
L 275.115794 121.98001 
L 274.255271 121.947599 
L 273.316518 121.887199 
L 272.377766 121.854732 
L 271.517242 121.823167 
L 270.57849 121.767285 
L 269.639737 121.737868 
L 268.779214 121.710196 
L 267.840461 121.683402 
L 266.901708 121.641663 
L 265.962956 121.620321 
L 265.102432 121.601677 
L 264.16368 121.577379 
L 263.224927 121.565369 
L 262.364404 121.556562 
L 261.425651 121.55319 
L 260.486898 121.551931 
L 259.626375 121.554045 
L 258.687622 121.558289 
L 257.748869 121.582103 
L 256.888346 121.594828 
L 255.949593 121.609418 
L 255.010841 121.652311 
L 254.150317 121.673922 
L 253.211565 121.696815 
L 252.272812 121.753562 
L 251.412289 121.781096 
L 250.473536 121.809075 
L 249.534783 121.837765 
L 248.67426 121.902014 
L 247.735507 121.931052 
L 246.796755 121.959719 
L 245.936231 122.019853 
L 244.997479 122.045562 
L 244.058726 122.069796 
L 243.198203 122.117193 
L 242.25945 122.135321 
L 241.320697 122.150981 
L 240.381944 122.163953 
L 239.521421 122.185018 
L 238.582668 122.18876 
L 237.643916 122.189144 
L 236.783392 122.18339 
L 235.84464 122.173176 
L 234.905887 122.159327 
L 234.045364 122.1251 
L 233.106611 122.100602 
L 232.167858 122.072662 
L 231.307335 122.041774 
L 230.368582 121.974862 
L 229.42983 121.93491 
L 228.569306 121.892877 
L 227.630554 121.807346 
L 226.691801 121.759247 
L 225.831278 121.710344 
L 224.892525 121.615889 
L 223.953772 121.564832 
L 223.093249 121.514486 
L 222.154496 121.463978 
L 221.215743 121.374227 
L 220.35522 121.328239 
L 219.416467 121.283409 
L 218.477715 121.21004 
L 217.617191 121.173678 
L 216.678439 121.139543 
L 215.739686 121.091322 
L 214.800933 121.067603 
L 213.94041 121.048455 
L 213.001657 121.032253 
L 212.062905 121.021981 
L 211.202381 121.018275 
L 210.263629 121.017475 
L 209.324876 121.03729 
L 208.464353 121.047983 
L 207.5256 121.061027 
L 206.586847 121.077084 
L 205.726324 121.128045 
L 204.787571 121.151539 
L 203.848819 121.17701 
L 202.988295 121.242748 
L 202.049542 121.272228 
L 201.11079 121.302517 
L 200.250266 121.373557 
L 199.311514 121.40439 
L 198.372761 121.434945 
L 197.512238 121.465641 
L 196.573485 121.530801 
L 195.634732 121.557848 
L 194.774209 121.584203 
L 193.835456 121.638134 
L 192.896704 121.659049 
L 192.03618 121.67874 
L 191.097428 121.717763 
L 190.158675 121.731008 
L 189.298152 121.742731 
L 188.359399 121.75183 
L 187.420646 121.769697 
L 186.481894 121.772243 
L 185.62137 121.773056 
L 184.682618 121.772915 
L 183.743865 121.766338 
L 182.883342 121.757925 
L 181.944589 121.739242 
L 181.005836 121.723241 
L 180.145313 121.705387 
L 179.20656 121.684614 
L 178.267807 121.642866 
L 177.407284 121.615842 
L 176.468531 121.586034 
L 175.529779 121.527681 
L 174.669255 121.49266 
L 173.730503 121.455261 
L 172.79175 121.384298 
L 171.931227 121.343693 
L 170.992474 121.301441 
L 170.053721 121.258491 
L 169.193198 121.181987 
L 168.254445 121.138893 
L 167.315693 121.096263 
L 166.455169 121.025071 
L 165.516417 120.985999 
L 164.577664 120.948661 
L 163.717141 120.89268 
L 162.778388 120.862566 
L 161.839635 120.835338 
L 160.900882 120.811241 
L 160.040359 120.786236 
L 159.101606 120.772833 
L 158.162854 120.763242 
L 157.30233 120.768879 
L 156.363578 120.771121 
L 155.424825 120.777299 
L 154.564302 120.788347 
L 153.625549 120.831334 
L 152.686796 120.852179 
L 151.826273 120.877238 
L 150.88752 120.94529 
L 149.948768 120.977523 
L 149.088244 121.012833 
L 148.149492 121.097095 
L 147.210739 121.135972 
L 146.350216 121.176563 
L 145.411463 121.216932 
L 144.47271 121.30712 
L 143.612187 121.348003 
L 142.673434 121.387649 
L 141.734681 121.472516 
L 140.874158 121.50996 
L 139.935405 121.545632 
L 138.996653 121.620442 
L 138.136129 121.65296 
L 137.197377 121.683803 
L 136.258624 121.713657 
L 135.319871 121.777069 
L 134.459348 121.805238 
L 133.520595 121.832636 
L 132.581843 121.892951 
L 131.721319 121.921204 
L 130.782567 121.949653 
L 129.843814 122.013928 
L 128.983291 122.045562 
L 128.044538 122.078026 
L 127.105785 122.111738 
L 126.245262 122.186666 
L 125.306509 122.223391 
L 124.367757 122.260778 
L 123.507233 122.339062 
L 122.568481 122.375787 
L 121.629728 122.41129 
L 120.769205 122.47796 
L 119.830452 122.505284 
L 118.891699 122.528304 
L 118.031176 122.546236 
L 117.092423 122.563857 
L 116.15367 122.560365 
L 115.293147 122.548069 
L 114.354394 122.494841 
L 113.415642 122.450895 
L 112.555118 122.395236 
L 111.616366 122.249295 
L 110.677613 122.155922 
L 109.73886 122.049707 
L 108.878337 121.931296 
L 107.939584 121.664615 
L 107.000832 121.512468 
L 106.140308 121.351688 
L 105.201556 121.01738 
L 104.262803 120.838607 
L 103.40228 120.658821 
L 102.463527 120.315741 
L 101.524774 120.145199 
L 100.664251 119.98487 
L 99.725498 119.835221 
L 98.786745 119.604033 
L 97.926222 119.512526 
L 96.987469 119.444768 
L 96.048717 119.418582 
L 95.188193 119.44803 
L 94.249441 119.513611 
L 93.310688 119.619678 
L 92.450165 119.980634 
L 91.511412 120.219632 
L 90.572659 120.50618 
L 89.712136 121.234424 
L 88.773383 121.663178 
L 87.834631 122.138842 
L 86.974107 123.221334 
L 86.035355 123.821886 
L 85.096602 124.458914 
L 84.157849 125.128219 
L 83.297326 126.519778 
L 82.358573 127.249474 
L 81.41982 127.988122 
L 80.559297 129.420393 
L 79.620544 130.135805 
L 78.681792 130.828481 
L 77.821268 132.050781 
L 76.882516 132.617647 
L 75.943763 133.125697 
L 75.08324 133.56047 
L 74.144487 134.13347 
L 73.205734 134.315285 
L 72.345211 134.389865 
L 71.406458 134.15011 
L 70.467706 133.886145 
L 69.607182 133.491239 
L 68.66843 132.264377 
L 67.729677 131.482579 
L 66.869154 130.562459 
L 65.930401 129.512657 
L 64.991648 126.994856 
L 64.131125 125.566131 
L 63.192372 124.021187 
L 62.25362 120.618488 
L 61.393096 118.778344 
L 60.454344 116.854637 
L 59.515591 112.866129 
L 58.576838 110.781174 
L 57.716315 108.673161 
L 56.777562 106.544257 
L 55.838809 102.424516 
L 54.978286 100.368681 
L 54.039533 98.351642 
L 53.100781 94.694721 
L 52.240257 92.945499 
L 51.301505 91.293604 
L 50.362752 88.582141 
L 49.502229 87.371189 
L 48.563476 86.305607 
L 47.624723 85.412418 
L 46.7642 84.423131 
L 45.825447 84.096774 
z
" style="fill:#3b90ff;fill-opacity:0.3;stroke:#3b90ff;stroke-opacity:0.3;"/>
   </g>
   <g id="matplotlib.axis_3">
    <g id="xtick_6">
     <g id="line2d_12">
      <g>
       <use style="fill:#ededed;stroke:#ededed;stroke-width:0.8;" x="45.825447" xlink:href="#m0fd652967c" y="153"/>
      </g>
     </g>
     <g id="text_5">
      <!-- 0 -->
      <g style="fill:#ededed;" transform="translate(43.601072 165.72625)scale(0.08 -0.08)">
       <use xlink:href="#ArialMT-48"/>
      </g>
     </g>
    </g>
    <g id="xtick_7">
     <g id="line2d_13">
      <g>
       <use style="fill:#ededed;stroke:#ededed;stroke-width:0.8;" x="91.352684" xlink:href="#m0fd652967c" y="153"/>
      </g>
     </g>
     <g id="text_6">
      <!-- 50 -->
      <g style="fill:#ededed;" transform="translate(86.903934 165.72625)scale(0.08 -0.08)">
       <defs>
        <path d="M 4.15625 18.75 
L 13.375 19.53125 
Q 14.40625 12.796875 18.140625 9.390625 
Q 21.875 6 27.15625 6 
Q 33.5 6 37.890625 10.78125 
Q 42.28125 15.578125 42.28125 23.484375 
Q 42.28125 31 38.0625 35.34375 
Q 33.84375 39.703125 27 39.703125 
Q 22.75 39.703125 19.328125 37.765625 
Q 15.921875 35.84375 13.96875 32.765625 
L 5.71875 33.84375 
L 12.640625 70.609375 
L 48.25 70.609375 
L 48.25 62.203125 
L 19.671875 62.203125 
L 15.828125 42.96875 
Q 22.265625 47.46875 29.34375 47.46875 
Q 38.71875 47.46875 45.15625 40.96875 
Q 51.609375 34.46875 51.609375 24.265625 
Q 51.609375 14.546875 45.953125 7.46875 
Q 39.0625 -1.21875 27.15625 -1.21875 
Q 17.390625 -1.21875 11.203125 4.25 
Q 5.03125 9.71875 4.15625 18.75 
z
" id="ArialMT-53"/>
       </defs>
       <use xlink:href="#ArialMT-53"/>
       <use x="55.615234" xlink:href="#ArialMT-48"/>
      </g>
     </g>
    </g>
    <g id="xtick_8">
     <g id="line2d_14">
      <g>
       <use style="fill:#ededed;stroke:#ededed;stroke-width:0.8;" x="136.87992" xlink:href="#m0fd652967c" y="153"/>
      </g>
     </g>
     <g id="text_7">
      <!-- 100 -->
      <g style="fill:#ededed;" transform="translate(130.206795 165.72625)scale(0.08 -0.08)">
       <defs>
        <path d="M 37.25 0 
L 28.46875 0 
L 28.46875 56 
Q 25.296875 52.984375 20.140625 49.953125 
Q 14.984375 46.921875 10.890625 45.40625 
L 10.890625 53.90625 
Q 18.265625 57.375 23.78125 62.296875 
Q 29.296875 67.234375 31.59375 71.875 
L 37.25 71.875 
z
" id="ArialMT-49"/>
       </defs>
       <use xlink:href="#ArialMT-49"/>
       <use x="55.615234" xlink:href="#ArialMT-48"/>
       <use x="111.230469" xlink:href="#ArialMT-48"/>
      </g>
     </g>
    </g>
    <g id="xtick_9">
     <g id="line2d_15">
      <g>
       <use style="fill:#ededed;stroke:#ededed;stroke-width:0.8;" x="182.407156" xlink:href="#m0fd652967c" y="153"/>
      </g>
     </g>
     <g id="text_8">
      <!-- 150 -->
      <g style="fill:#ededed;" transform="translate(175.734031 165.72625)scale(0.08 -0.08)">
       <use xlink:href="#ArialMT-49"/>
       <use x="55.615234" xlink:href="#ArialMT-53"/>
       <use x="111.230469" xlink:href="#ArialMT-48"/>
      </g>
     </g>
    </g>
    <g id="xtick_10">
     <g id="line2d_16">
      <g>
       <use style="fill:#ededed;stroke:#ededed;stroke-width:0.8;" x="227.934393" xlink:href="#m0fd652967c" y="153"/>
      </g>
     </g>
     <g id="text_9">
      <!-- 200 -->
      <g style="fill:#ededed;" transform="translate(221.261268 165.72625)scale(0.08 -0.08)">
       <defs>
        <path d="M 50.34375 8.453125 
L 50.34375 0 
L 3.03125 0 
Q 2.9375 3.171875 4.046875 6.109375 
Q 5.859375 10.9375 9.828125 15.625 
Q 13.8125 20.3125 21.34375 26.46875 
Q 33.015625 36.03125 37.109375 41.625 
Q 41.21875 47.21875 41.21875 52.203125 
Q 41.21875 57.421875 37.46875 61 
Q 33.734375 64.59375 27.734375 64.59375 
Q 21.390625 64.59375 17.578125 60.78125 
Q 13.765625 56.984375 13.71875 50.25 
L 4.6875 51.171875 
Q 5.609375 61.28125 11.65625 66.578125 
Q 17.71875 71.875 27.9375 71.875 
Q 38.234375 71.875 44.234375 66.15625 
Q 50.25 60.453125 50.25 52 
Q 50.25 47.703125 48.484375 43.546875 
Q 46.734375 39.40625 42.65625 34.8125 
Q 38.578125 30.21875 29.109375 22.21875 
Q 21.1875 15.578125 18.9375 13.203125 
Q 16.703125 10.84375 15.234375 8.453125 
z
" id="ArialMT-50"/>
       </defs>
       <use xlink:href="#ArialMT-50"/>
       <use x="55.615234" xlink:href="#ArialMT-48"/>
       <use x="111.230469" xlink:href="#ArialMT-48"/>
      </g>
     </g>
    </g>
    <g id="text_10">
     <!-- Time (ms) -->
     <g style="fill:#ededed;" transform="translate(114.57367 178.595937)scale(0.1 -0.1)">
      <defs>
       <path d="M 25.921875 0 
L 25.921875 63.140625 
L 2.34375 63.140625 
L 2.34375 71.578125 
L 59.078125 71.578125 
L 59.078125 63.140625 
L 35.40625 63.140625 
L 35.40625 0 
z
" id="ArialMT-84"/>
       <path d="M 6.640625 61.46875 
L 6.640625 71.578125 
L 15.4375 71.578125 
L 15.4375 61.46875 
z
M 6.640625 0 
L 6.640625 51.859375 
L 15.4375 51.859375 
L 15.4375 0 
z
" id="ArialMT-105"/>
       <path d="M 6.59375 0 
L 6.59375 51.859375 
L 14.453125 51.859375 
L 14.453125 44.578125 
Q 16.890625 48.390625 20.9375 50.703125 
Q 25 53.03125 30.171875 53.03125 
Q 35.9375 53.03125 39.625 50.640625 
Q 43.3125 48.25 44.828125 43.953125 
Q 50.984375 53.03125 60.84375 53.03125 
Q 68.5625 53.03125 72.703125 48.75 
Q 76.859375 44.484375 76.859375 35.59375 
L 76.859375 0 
L 68.109375 0 
L 68.109375 32.671875 
Q 68.109375 37.9375 67.25 40.25 
Q 66.40625 42.578125 64.15625 43.984375 
Q 61.921875 45.40625 58.890625 45.40625 
Q 53.421875 45.40625 49.796875 41.765625 
Q 46.1875 38.140625 46.1875 30.125 
L 46.1875 0 
L 37.40625 0 
L 37.40625 33.6875 
Q 37.40625 39.546875 35.25 42.46875 
Q 33.109375 45.40625 28.21875 45.40625 
Q 24.515625 45.40625 21.359375 43.453125 
Q 18.21875 41.5 16.796875 37.734375 
Q 15.375 33.984375 15.375 26.90625 
L 15.375 0 
z
" id="ArialMT-109"/>
       <path d="M 42.09375 16.703125 
L 51.171875 15.578125 
Q 49.03125 7.625 43.21875 3.21875 
Q 37.40625 -1.171875 28.375 -1.171875 
Q 17 -1.171875 10.328125 5.828125 
Q 3.65625 12.84375 3.65625 25.484375 
Q 3.65625 38.578125 10.390625 45.796875 
Q 17.140625 53.03125 27.875 53.03125 
Q 38.28125 53.03125 44.875 45.953125 
Q 51.46875 38.875 51.46875 26.03125 
Q 51.46875 25.25 51.421875 23.6875 
L 12.75 23.6875 
Q 13.234375 15.140625 17.578125 10.59375 
Q 21.921875 6.0625 28.421875 6.0625 
Q 33.25 6.0625 36.671875 8.59375 
Q 40.09375 11.140625 42.09375 16.703125 
z
M 13.234375 30.90625 
L 42.1875 30.90625 
Q 41.609375 37.453125 38.875 40.71875 
Q 34.671875 45.796875 27.984375 45.796875 
Q 21.921875 45.796875 17.796875 41.75 
Q 13.671875 37.703125 13.234375 30.90625 
z
" id="ArialMT-101"/>
       <path d="M 23.390625 -21.046875 
Q 16.109375 -11.859375 11.078125 0.4375 
Q 6.0625 12.75 6.0625 25.921875 
Q 6.0625 37.546875 9.8125 48.1875 
Q 14.203125 60.546875 23.390625 72.796875 
L 29.6875 72.796875 
Q 23.78125 62.640625 21.875 58.296875 
Q 18.890625 51.5625 17.1875 44.234375 
Q 15.09375 35.109375 15.09375 25.875 
Q 15.09375 2.390625 29.6875 -21.046875 
z
" id="ArialMT-40"/>
       <path d="M 3.078125 15.484375 
L 11.765625 16.84375 
Q 12.5 11.625 15.84375 8.84375 
Q 19.1875 6.0625 25.203125 6.0625 
Q 31.25 6.0625 34.171875 8.515625 
Q 37.109375 10.984375 37.109375 14.3125 
Q 37.109375 17.28125 34.515625 19 
Q 32.71875 20.171875 25.53125 21.96875 
Q 15.875 24.421875 12.140625 26.203125 
Q 8.40625 27.984375 6.46875 31.125 
Q 4.546875 34.28125 4.546875 38.09375 
Q 4.546875 41.546875 6.125 44.5 
Q 7.71875 47.46875 10.453125 49.421875 
Q 12.5 50.921875 16.03125 51.96875 
Q 19.578125 53.03125 23.640625 53.03125 
Q 29.734375 53.03125 34.34375 51.265625 
Q 38.96875 49.515625 41.15625 46.5 
Q 43.359375 43.5 44.1875 38.484375 
L 35.59375 37.3125 
Q 35.015625 41.3125 32.203125 43.546875 
Q 29.390625 45.796875 24.265625 45.796875 
Q 18.21875 45.796875 15.625 43.796875 
Q 13.03125 41.796875 13.03125 39.109375 
Q 13.03125 37.40625 14.109375 36.03125 
Q 15.1875 34.625 17.484375 33.6875 
Q 18.796875 33.203125 25.25 31.453125 
Q 34.578125 28.953125 38.25 27.359375 
Q 41.9375 25.78125 44.03125 22.75 
Q 46.140625 19.734375 46.140625 15.234375 
Q 46.140625 10.84375 43.578125 6.953125 
Q 41.015625 3.078125 36.171875 0.953125 
Q 31.34375 -1.171875 25.25 -1.171875 
Q 15.140625 -1.171875 9.84375 3.03125 
Q 4.546875 7.234375 3.078125 15.484375 
z
" id="ArialMT-115"/>
       <path d="M 12.359375 -21.046875 
L 6.0625 -21.046875 
Q 20.65625 2.390625 20.65625 25.875 
Q 20.65625 35.0625 18.5625 44.09375 
Q 16.890625 51.421875 13.921875 58.15625 
Q 12.015625 62.546875 6.0625 72.796875 
L 12.359375 72.796875 
Q 21.53125 60.546875 25.921875 48.1875 
Q 29.6875 37.546875 29.6875 25.921875 
Q 29.6875 12.75 24.625 0.4375 
Q 19.578125 -11.859375 12.359375 -21.046875 
z
" id="ArialMT-41"/>
      </defs>
      <use xlink:href="#ArialMT-84"/>
      <use x="57.333984" xlink:href="#ArialMT-105"/>
      <use x="79.550781" xlink:href="#ArialMT-109"/>
      <use x="162.851562" xlink:href="#ArialMT-101"/>
      <use x="218.466797" xlink:href="#ArialMT-32"/>
      <use x="246.25" xlink:href="#ArialMT-40"/>
      <use x="279.550781" xlink:href="#ArialMT-109"/>
      <use x="362.851562" xlink:href="#ArialMT-115"/>
      <use x="412.851562" xlink:href="#ArialMT-41"/>
     </g>
    </g>
   </g>
   <g id="matplotlib.axis_4">
    <g id="ytick_4">
     <g id="line2d_17">
      <g>
       <use style="fill:#ededed;stroke:#ededed;stroke-width:0.8;" x="36.72" xlink:href="#mdf98b3bd55" y="146.032258"/>
      </g>
     </g>
     <g id="text_11">
      <!-- −0.3 -->
      <g style="fill:#ededed;" transform="translate(13.9275 148.895383)scale(0.08 -0.08)">
       <use xlink:href="#ArialMT-8722"/>
       <use x="58.398438" xlink:href="#ArialMT-48"/>
       <use x="114.013672" xlink:href="#ArialMT-46"/>
       <use x="141.796875" xlink:href="#ArialMT-51"/>
      </g>
     </g>
    </g>
    <g id="ytick_5">
     <g id="line2d_18">
      <g>
       <use style="fill:#ededed;stroke:#ededed;stroke-width:0.8;" x="36.72" xlink:href="#mdf98b3bd55" y="122.806452"/>
      </g>
     </g>
     <g id="text_12">
      <!-- 0.0 -->
      <g style="fill:#ededed;" transform="translate(18.6 125.669577)scale(0.08 -0.08)">
       <use xlink:href="#ArialMT-48"/>
       <use x="55.615234" xlink:href="#ArialMT-46"/>
       <use x="83.398438" xlink:href="#ArialMT-48"/>
      </g>
     </g>
    </g>
    <g id="ytick_6">
     <g id="line2d_19">
      <g>
       <use style="fill:#ededed;stroke:#ededed;stroke-width:0.8;" x="36.72" xlink:href="#mdf98b3bd55" y="99.580645"/>
      </g>
     </g>
     <g id="text_13">
      <!-- 0.3 -->
      <g style="fill:#ededed;" transform="translate(18.6 102.44377)scale(0.08 -0.08)">
       <use xlink:href="#ArialMT-48"/>
       <use x="55.615234" xlink:href="#ArialMT-46"/>
       <use x="83.398438" xlink:href="#ArialMT-51"/>
      </g>
     </g>
    </g>
   </g>
   <g id="LineCollection_2">
    <path clip-path="url(#pebc57cc6ea)" d="M 47.646537 93.351699 
L 47.646537 82.10199 
" style="fill:none;stroke:#3b90ff;stroke-width:0.5;"/>
    <path clip-path="url(#pebc57cc6ea)" d="M 50.378171 111.042123 
L 50.378171 90.941229 
" style="fill:none;stroke:#3b90ff;stroke-width:0.5;"/>
    <path clip-path="url(#pebc57cc6ea)" d="M 54.930895 115.881587 
L 54.930895 102.813109 
" style="fill:none;stroke:#3b90ff;stroke-width:0.5;"/>
    <path clip-path="url(#pebc57cc6ea)" d="M 64.036342 128.450138 
L 64.036342 120.208171 
" style="fill:none;stroke:#3b90ff;stroke-width:0.5;"/>
    <path clip-path="url(#pebc57cc6ea)" d="M 68.589065 147.934647 
L 68.589065 119.036284 
" style="fill:none;stroke:#3b90ff;stroke-width:0.5;"/>
    <path clip-path="url(#pebc57cc6ea)" d="M 73.141789 146.914074 
L 73.141789 118.146293 
" style="fill:none;stroke:#3b90ff;stroke-width:0.5;"/>
    <path clip-path="url(#pebc57cc6ea)" d="M 91.352684 130.675566 
L 91.352684 107.47835 
" style="fill:none;stroke:#3b90ff;stroke-width:0.5;"/>
    <path clip-path="url(#pebc57cc6ea)" d="M 109.563578 134.186672 
L 109.563578 114.691587 
" style="fill:none;stroke:#3b90ff;stroke-width:0.5;"/>
    <path clip-path="url(#pebc57cc6ea)" d="M 0 0 
" style="fill:none;stroke:#3b90ff;stroke-width:0.5;"/>
    <path clip-path="url(#pebc57cc6ea)" d="M 182.407156 142.852115 
L 182.407156 108.894377 
" style="fill:none;stroke:#3b90ff;stroke-width:0.5;"/>
    <path clip-path="url(#pebc57cc6ea)" d="M 227.934393 142.063047 
L 227.934393 132.16068 
" style="fill:none;stroke:#3b90ff;stroke-width:0.5;"/>
   </g>
   <g id="line2d_20">
    <path clip-path="url(#pebc57cc6ea)" d="M 45.825447 84.096774 
L 47.624723 84.798266 
L 48.563476 86.029949 
L 49.502229 87.840945 
L 50.362752 88.950872 
L 51.301505 91.547137 
L 52.240257 93.018395 
L 54.039533 99.854334 
L 54.978286 101.752823 
L 56.777562 109.793377 
L 57.716315 111.861646 
L 58.576838 115.993748 
L 59.515591 118.037119 
L 61.393096 125.83683 
L 62.25362 127.650164 
L 64.131125 134.141186 
L 64.991648 135.545578 
L 65.930401 138.063457 
L 66.869154 140.177036 
L 67.729677 141.078818 
L 68.66843 142.571856 
L 69.607182 143.164962 
L 70.467706 144.053768 
L 71.406458 144.565382 
L 73.205734 144.693762 
L 75.08324 144.172347 
L 75.943763 143.537757 
L 76.882516 143.152067 
L 77.821268 142.273825 
L 78.681792 141.292377 
L 79.620544 140.777218 
L 81.41982 138.676375 
L 82.358573 138.164764 
L 84.157849 136.290577 
L 85.096602 135.880302 
L 86.035355 135.145743 
L 86.974107 134.824559 
L 87.834631 134.279426 
L 88.773383 133.86668 
L 91.511412 133.396061 
L 93.310688 133.455324 
L 94.249441 133.522485 
L 96.987469 134.125671 
L 101.524774 135.71346 
L 102.463527 135.886875 
L 103.40228 136.216809 
L 104.262803 136.371661 
L 106.140308 136.910315 
L 107.939584 137.222011 
L 109.73886 137.455068 
L 112.555118 137.690362 
L 116.15367 137.790503 
L 122.568481 137.685272 
L 129.843814 137.284633 
L 139.935405 136.130542 
L 143.612187 135.655106 
L 153.625549 135.003566 
L 159.101606 135.045484 
L 165.516417 135.421754 
L 167.315693 135.564368 
L 184.682618 137.387315 
L 187.420646 137.506928 
L 191.097428 137.471739 
L 194.774209 137.164558 
L 205.726324 135.55104 
L 211.202381 135.278719 
L 213.94041 135.412255 
L 218.477715 136.052115 
L 226.691801 138.118609 
L 227.630554 138.410051 
L 228.569306 138.552476 
L 230.368582 139.088967 
L 231.307335 139.21253 
L 233.106611 139.652324 
L 240.381944 140.29322 
L 243.198203 140.216341 
L 245.8 139.958275 
L 245.8 139.958275 
" style="fill:none;stroke:#3b90ff;stroke-dasharray:5,5;stroke-dashoffset:0;stroke-width:0.5;"/>
   </g>
   <g id="line2d_21">
    <path clip-path="url(#pebc57cc6ea)" d="M 68.589065 153 
L 68.589065 81 
" style="fill:none;stroke:#808080;stroke-dasharray:3.2,0.8,0.5,0.8;stroke-dashoffset:0;stroke-width:0.5;"/>
   </g>
   <g id="line2d_22">
    <defs>
     <path d="M 0 1.5 
C 0.397805 1.5 0.77937 1.341951 1.06066 1.06066 
C 1.341951 0.77937 1.5 0.397805 1.5 0 
C 1.5 -0.397805 1.341951 -0.77937 1.06066 -1.06066 
C 0.77937 -1.341951 0.397805 -1.5 0 -1.5 
C -0.397805 -1.5 -0.77937 -1.341951 -1.06066 -1.06066 
C -1.341951 -0.77937 -1.5 -0.397805 -1.5 0 
C -1.5 0.397805 -1.341951 0.77937 -1.06066 1.06066 
C -0.77937 1.341951 -0.397805 1.5 0 1.5 
z
" id="m90cfddde78" style="stroke:#3b90ff;"/>
    </defs>
    <g clip-path="url(#pebc57cc6ea)">
     <use style="fill:#3b90ff;stroke:#3b90ff;" x="47.646537" xlink:href="#m90cfddde78" y="87.726844"/>
     <use style="fill:#3b90ff;stroke:#3b90ff;" x="50.378171" xlink:href="#m90cfddde78" y="100.991676"/>
     <use style="fill:#3b90ff;stroke:#3b90ff;" x="54.930895" xlink:href="#m90cfddde78" y="109.347348"/>
     <use style="fill:#3b90ff;stroke:#3b90ff;" x="64.036342" xlink:href="#m90cfddde78" y="124.329155"/>
     <use style="fill:#3b90ff;stroke:#3b90ff;" x="68.589065" xlink:href="#m90cfddde78" y="133.485466"/>
     <use style="fill:#3b90ff;stroke:#3b90ff;" x="73.141789" xlink:href="#m90cfddde78" y="132.530183"/>
     <use style="fill:#3b90ff;stroke:#3b90ff;" x="91.352684" xlink:href="#m90cfddde78" y="119.076958"/>
     <use style="fill:#3b90ff;stroke:#3b90ff;" x="109.563578" xlink:href="#m90cfddde78" y="124.439129"/>
     <use style="fill:#3b90ff;stroke:#3b90ff;" x="136.87992" xlink:href="#m90cfddde78" y="106.510035"/>
     <use style="fill:#3b90ff;stroke:#3b90ff;" x="182.407156" xlink:href="#m90cfddde78" y="125.873246"/>
     <use style="fill:#3b90ff;stroke:#3b90ff;" x="227.934393" xlink:href="#m90cfddde78" y="137.111864"/>
    </g>
   </g>
   <g id="patch_8">
    <path d="M 36.72 153 
L 36.72 81 
" style="fill:none;stroke:#ededed;stroke-linecap:square;stroke-linejoin:miter;stroke-width:0.5;"/>
   </g>
   <g id="patch_9">
    <path d="M 237.03984 153 
L 237.03984 81 
" style="fill:none;stroke:#ededed;stroke-linecap:square;stroke-linejoin:miter;stroke-width:0.5;"/>
   </g>
   <g id="patch_10">
    <path d="M 36.72 153 
L 237.03984 153 
" style="fill:none;stroke:#ededed;stroke-linecap:square;stroke-linejoin:miter;stroke-width:0.5;"/>
   </g>
   <g id="patch_11">
    <path d="M 36.72 81 
L 237.03984 81 
" style="fill:none;stroke:#ededed;stroke-linecap:square;stroke-linejoin:miter;stroke-width:0.5;"/>
   </g>
   <g id="text_14">
    <!-- $12 E_r$, $D/J = \mathrm{-}3.4$ -->
    <g style="fill:#ededed;" transform="translate(169.84 90.9)scale(0.08 -0.08)">
     <defs>
      <path d="M 12.40625 8.296875 
L 28.515625 8.296875 
L 28.515625 63.921875 
L 10.984375 60.40625 
L 10.984375 69.390625 
L 28.421875 72.90625 
L 38.28125 72.90625 
L 38.28125 8.296875 
L 54.390625 8.296875 
L 54.390625 0 
L 12.40625 0 
z
" id="DejaVuSans-49"/>
      <path d="M 19.1875 8.296875 
L 53.609375 8.296875 
L 53.609375 0 
L 7.328125 0 
L 7.328125 8.296875 
Q 12.9375 14.109375 22.625 23.890625 
Q 32.328125 33.6875 34.8125 36.53125 
Q 39.546875 41.84375 41.421875 45.53125 
Q 43.3125 49.21875 43.3125 52.78125 
Q 43.3125 58.59375 39.234375 62.25 
Q 35.15625 65.921875 28.609375 65.921875 
Q 23.96875 65.921875 18.8125 64.3125 
Q 13.671875 62.703125 7.8125 59.421875 
L 7.8125 69.390625 
Q 13.765625 71.78125 18.9375 73 
Q 24.125 74.21875 28.421875 74.21875 
Q 39.75 74.21875 46.484375 68.546875 
Q 53.21875 62.890625 53.21875 53.421875 
Q 53.21875 48.921875 51.53125 44.890625 
Q 49.859375 40.875 45.40625 35.40625 
Q 44.1875 33.984375 37.640625 27.21875 
Q 31.109375 20.453125 19.1875 8.296875 
z
" id="DejaVuSans-50"/>
      <path d="M 40.578125 39.3125 
Q 47.65625 37.796875 51.625 33 
Q 55.609375 28.21875 55.609375 21.1875 
Q 55.609375 10.40625 48.1875 4.484375 
Q 40.765625 -1.421875 27.09375 -1.421875 
Q 22.515625 -1.421875 17.65625 -0.515625 
Q 12.796875 0.390625 7.625 2.203125 
L 7.625 11.71875 
Q 11.71875 9.328125 16.59375 8.109375 
Q 21.484375 6.890625 26.8125 6.890625 
Q 36.078125 6.890625 40.9375 10.546875 
Q 45.796875 14.203125 45.796875 21.1875 
Q 45.796875 27.640625 41.28125 31.265625 
Q 36.765625 34.90625 28.71875 34.90625 
L 20.21875 34.90625 
L 20.21875 43.015625 
L 29.109375 43.015625 
Q 36.375 43.015625 40.234375 45.921875 
Q 44.09375 48.828125 44.09375 54.296875 
Q 44.09375 59.90625 40.109375 62.90625 
Q 36.140625 65.921875 28.71875 65.921875 
Q 24.65625 65.921875 20.015625 65.03125 
Q 15.375 64.15625 9.8125 62.3125 
L 9.8125 71.09375 
Q 15.4375 72.65625 20.34375 73.4375 
Q 25.25 74.21875 29.59375 74.21875 
Q 40.828125 74.21875 47.359375 69.109375 
Q 53.90625 64.015625 53.90625 55.328125 
Q 53.90625 49.265625 50.4375 45.09375 
Q 46.96875 40.921875 40.578125 39.3125 
z
" id="DejaVuSans-51"/>
      <path d="M 37.796875 64.3125 
L 12.890625 25.390625 
L 37.796875 25.390625 
z
M 35.203125 72.90625 
L 47.609375 72.90625 
L 47.609375 25.390625 
L 58.015625 25.390625 
L 58.015625 17.1875 
L 47.609375 17.1875 
L 47.609375 0 
L 37.796875 0 
L 37.796875 17.1875 
L 4.890625 17.1875 
L 4.890625 26.703125 
z
" id="DejaVuSans-52"/>
     </defs>
     <use transform="translate(0 0.78125)" xlink:href="#DejaVuSans-49"/>
     <use transform="translate(63.623047 0.78125)" xlink:href="#DejaVuSans-50"/>
     <use transform="translate(127.246094 0.78125)" xlink:href="#DejaVuSans-Oblique-69"/>
     <use transform="translate(190.429688 -15.625)scale(0.7)" xlink:href="#DejaVuSans-Oblique-114"/>
     <use transform="translate(221.943359 0.78125)" xlink:href="#ArialMT-44"/>
     <use transform="translate(249.726562 0.78125)" xlink:href="#ArialMT-32"/>
     <use transform="translate(277.509766 0.78125)" xlink:href="#DejaVuSans-Oblique-68"/>
     <use transform="translate(354.511719 0.78125)" xlink:href="#DejaVuSans-47"/>
     <use transform="translate(388.203125 0.78125)" xlink:href="#DejaVuSans-Oblique-74"/>
     <use transform="translate(437.177734 0.78125)" xlink:href="#DejaVuSans-61"/>
     <use transform="translate(540.449219 0.78125)" xlink:href="#DejaVuSans-8722"/>
     <use transform="translate(624.238281 0.78125)" xlink:href="#DejaVuSans-51"/>
     <use transform="translate(687.861328 0.78125)" xlink:href="#DejaVuSans-46"/>
     <use transform="translate(719.648438 0.78125)" xlink:href="#DejaVuSans-52"/>
    </g>
   </g>
  </g>
  <g id="text_15">
   <!-- Spin alignment $A$ -->
   <g style="fill:#ededed;" transform="translate(7.3 121.272727)rotate(-90)scale(0.1 -0.1)">
    <defs>
     <path d="M 4.5 23 
L 13.421875 23.78125 
Q 14.0625 18.40625 16.375 14.96875 
Q 18.703125 11.53125 23.578125 9.40625 
Q 28.46875 7.28125 34.578125 7.28125 
Q 39.984375 7.28125 44.140625 8.890625 
Q 48.296875 10.5 50.3125 13.296875 
Q 52.34375 16.109375 52.34375 19.4375 
Q 52.34375 22.796875 50.390625 25.3125 
Q 48.4375 27.828125 43.953125 29.546875 
Q 41.0625 30.671875 31.203125 33.03125 
Q 21.34375 35.40625 17.390625 37.5 
Q 12.25 40.1875 9.734375 44.15625 
Q 7.234375 48.140625 7.234375 53.078125 
Q 7.234375 58.5 10.296875 63.203125 
Q 13.375 67.921875 19.28125 70.359375 
Q 25.203125 72.796875 32.421875 72.796875 
Q 40.375 72.796875 46.453125 70.234375 
Q 52.546875 67.671875 55.8125 62.6875 
Q 59.078125 57.71875 59.328125 51.421875 
L 50.25 50.734375 
Q 49.515625 57.515625 45.28125 60.984375 
Q 41.0625 64.453125 32.8125 64.453125 
Q 24.21875 64.453125 20.28125 61.296875 
Q 16.359375 58.15625 16.359375 53.71875 
Q 16.359375 49.859375 19.140625 47.359375 
Q 21.875 44.875 33.421875 42.265625 
Q 44.96875 39.65625 49.265625 37.703125 
Q 55.515625 34.8125 58.484375 30.390625 
Q 61.46875 25.984375 61.46875 20.21875 
Q 61.46875 14.5 58.203125 9.4375 
Q 54.9375 4.390625 48.796875 1.578125 
Q 42.671875 -1.21875 35.015625 -1.21875 
Q 25.296875 -1.21875 18.71875 1.609375 
Q 12.15625 4.4375 8.421875 10.125 
Q 4.6875 15.828125 4.5 23 
z
" id="ArialMT-83"/>
     <path d="M 6.59375 -19.875 
L 6.59375 51.859375 
L 14.59375 51.859375 
L 14.59375 45.125 
Q 17.4375 49.078125 21 51.046875 
Q 24.5625 53.03125 29.640625 53.03125 
Q 36.28125 53.03125 41.359375 49.609375 
Q 46.4375 46.1875 49.015625 39.953125 
Q 51.609375 33.734375 51.609375 26.3125 
Q 51.609375 18.359375 48.75 11.984375 
Q 45.90625 5.609375 40.453125 2.21875 
Q 35.015625 -1.171875 29 -1.171875 
Q 24.609375 -1.171875 21.109375 0.6875 
Q 17.625 2.546875 15.375 5.375 
L 15.375 -19.875 
z
M 14.546875 25.640625 
Q 14.546875 15.625 18.59375 10.84375 
Q 22.65625 6.0625 28.421875 6.0625 
Q 34.28125 6.0625 38.453125 11.015625 
Q 42.625 15.96875 42.625 26.375 
Q 42.625 36.28125 38.546875 41.203125 
Q 34.46875 46.140625 28.8125 46.140625 
Q 23.1875 46.140625 18.859375 40.890625 
Q 14.546875 35.640625 14.546875 25.640625 
z
" id="ArialMT-112"/>
     <path d="M 6.59375 0 
L 6.59375 51.859375 
L 14.5 51.859375 
L 14.5 44.484375 
Q 20.21875 53.03125 31 53.03125 
Q 35.6875 53.03125 39.625 51.34375 
Q 43.5625 49.65625 45.515625 46.921875 
Q 47.46875 44.1875 48.25 40.4375 
Q 48.734375 37.984375 48.734375 31.890625 
L 48.734375 0 
L 39.9375 0 
L 39.9375 31.546875 
Q 39.9375 36.921875 38.90625 39.578125 
Q 37.890625 42.234375 35.28125 43.8125 
Q 32.671875 45.40625 29.15625 45.40625 
Q 23.53125 45.40625 19.453125 41.84375 
Q 15.375 38.28125 15.375 28.328125 
L 15.375 0 
z
" id="ArialMT-110"/>
     <path d="M 40.4375 6.390625 
Q 35.546875 2.25 31.03125 0.53125 
Q 26.515625 -1.171875 21.34375 -1.171875 
Q 12.796875 -1.171875 8.203125 3 
Q 3.609375 7.171875 3.609375 13.671875 
Q 3.609375 17.484375 5.34375 20.625 
Q 7.078125 23.78125 9.890625 25.6875 
Q 12.703125 27.59375 16.21875 28.5625 
Q 18.796875 29.25 24.03125 29.890625 
Q 34.671875 31.15625 39.703125 32.90625 
Q 39.75 34.71875 39.75 35.203125 
Q 39.75 40.578125 37.25 42.78125 
Q 33.890625 45.75 27.25 45.75 
Q 21.046875 45.75 18.09375 43.578125 
Q 15.140625 41.40625 13.71875 35.890625 
L 5.125 37.0625 
Q 6.296875 42.578125 8.984375 45.96875 
Q 11.671875 49.359375 16.75 51.1875 
Q 21.828125 53.03125 28.515625 53.03125 
Q 35.15625 53.03125 39.296875 51.46875 
Q 43.453125 49.90625 45.40625 47.53125 
Q 47.359375 45.171875 48.140625 41.546875 
Q 48.578125 39.3125 48.578125 33.453125 
L 48.578125 21.734375 
Q 48.578125 9.46875 49.140625 6.21875 
Q 49.703125 2.984375 51.375 0 
L 42.1875 0 
Q 40.828125 2.734375 40.4375 6.390625 
z
M 39.703125 26.03125 
Q 34.90625 24.078125 25.34375 22.703125 
Q 19.921875 21.921875 17.671875 20.9375 
Q 15.4375 19.96875 14.203125 18.09375 
Q 12.984375 16.21875 12.984375 13.921875 
Q 12.984375 10.40625 15.640625 8.0625 
Q 18.3125 5.71875 23.4375 5.71875 
Q 28.515625 5.71875 32.46875 7.9375 
Q 36.421875 10.15625 38.28125 14.015625 
Q 39.703125 17 39.703125 22.796875 
z
" id="ArialMT-97"/>
     <path d="M 6.390625 0 
L 6.390625 71.578125 
L 15.1875 71.578125 
L 15.1875 0 
z
" id="ArialMT-108"/>
     <path d="M 4.984375 -4.296875 
L 13.53125 -5.5625 
Q 14.0625 -9.515625 16.5 -11.328125 
Q 19.78125 -13.765625 25.4375 -13.765625 
Q 31.546875 -13.765625 34.859375 -11.328125 
Q 38.1875 -8.890625 39.359375 -4.5 
Q 40.046875 -1.8125 39.984375 6.78125 
Q 34.234375 0 25.640625 0 
Q 14.9375 0 9.078125 7.71875 
Q 3.21875 15.4375 3.21875 26.21875 
Q 3.21875 33.640625 5.90625 39.90625 
Q 8.59375 46.1875 13.6875 49.609375 
Q 18.796875 53.03125 25.6875 53.03125 
Q 34.859375 53.03125 40.828125 45.609375 
L 40.828125 51.859375 
L 48.921875 51.859375 
L 48.921875 7.03125 
Q 48.921875 -5.078125 46.453125 -10.125 
Q 44 -15.1875 38.640625 -18.109375 
Q 33.296875 -21.046875 25.484375 -21.046875 
Q 16.21875 -21.046875 10.5 -16.875 
Q 4.78125 -12.703125 4.984375 -4.296875 
z
M 12.25 26.859375 
Q 12.25 16.65625 16.296875 11.96875 
Q 20.359375 7.28125 26.46875 7.28125 
Q 32.515625 7.28125 36.609375 11.9375 
Q 40.71875 16.609375 40.71875 26.5625 
Q 40.71875 36.078125 36.5 40.90625 
Q 32.28125 45.75 26.3125 45.75 
Q 20.453125 45.75 16.34375 40.984375 
Q 12.25 36.234375 12.25 26.859375 
z
" id="ArialMT-103"/>
     <path d="M 25.78125 7.859375 
L 27.046875 0.09375 
Q 23.34375 -0.6875 20.40625 -0.6875 
Q 15.625 -0.6875 12.984375 0.828125 
Q 10.359375 2.34375 9.28125 4.8125 
Q 8.203125 7.28125 8.203125 15.1875 
L 8.203125 45.015625 
L 1.765625 45.015625 
L 1.765625 51.859375 
L 8.203125 51.859375 
L 8.203125 64.703125 
L 16.9375 69.96875 
L 16.9375 51.859375 
L 25.78125 51.859375 
L 25.78125 45.015625 
L 16.9375 45.015625 
L 16.9375 14.703125 
Q 16.9375 10.9375 17.40625 9.859375 
Q 17.875 8.796875 18.921875 8.15625 
Q 19.96875 7.515625 21.921875 7.515625 
Q 23.390625 7.515625 25.78125 7.859375 
z
" id="ArialMT-116"/>
     <path d="M 36.8125 72.90625 
L 48 72.90625 
L 61.53125 0 
L 51.21875 0 
L 48.1875 18.703125 
L 15.375 18.703125 
L 5.078125 0 
L -5.328125 0 
z
M 40.375 63.1875 
L 19.921875 26.90625 
L 46.6875 26.90625 
z
" id="DejaVuSans-Oblique-65"/>
    </defs>
    <use transform="translate(0 0.09375)" xlink:href="#ArialMT-83"/>
    <use transform="translate(66.699219 0.09375)" xlink:href="#ArialMT-112"/>
    <use transform="translate(122.314453 0.09375)" xlink:href="#ArialMT-105"/>
    <use transform="translate(144.53125 0.09375)" xlink:href="#ArialMT-110"/>
    <use transform="translate(200.146484 0.09375)" xlink:href="#ArialMT-32"/>
    <use transform="translate(227.929688 0.09375)" xlink:href="#ArialMT-97"/>
    <use transform="translate(283.544922 0.09375)" xlink:href="#ArialMT-108"/>
    <use transform="translate(305.761719 0.09375)" xlink:href="#ArialMT-105"/>
    <use transform="translate(327.978516 0.09375)" xlink:href="#ArialMT-103"/>
    <use transform="translate(383.59375 0.09375)" xlink:href="#ArialMT-110"/>
    <use transform="translate(439.208984 0.09375)" xlink:href="#ArialMT-109"/>
    <use transform="translate(522.509766 0.09375)" xlink:href="#ArialMT-101"/>
    <use transform="translate(578.125 0.09375)" xlink:href="#ArialMT-110"/>
    <use transform="translate(633.740234 0.09375)" xlink:href="#ArialMT-116"/>
    <use transform="translate(661.523438 0.09375)" xlink:href="#ArialMT-32"/>
    <use transform="translate(689.306641 0.09375)" xlink:href="#DejaVuSans-Oblique-65"/>
   </g>
  </g>
 </g>
 <defs>
  <clipPath id="pe130c9401c">
   <rect height="72" width="200.31984" x="36.72" y="9"/>
  </clipPath>
  <clipPath id="pebc57cc6ea">
   <rect height="72" width="200.31984" x="36.72" y="81"/>
  </clipPath>
 </defs>
</svg>
