<?xml version="1.0" encoding="utf-8" standalone="no"?>
<!DOCTYPE svg PUBLIC "-//W3C//DTD SVG 1.1//EN"
  "http://www.w3.org/Graphics/SVG/1.1/DTD/svg11.dtd">
<!-- Created with matplotlib (https://matplotlib.org/) -->
<svg height="180pt" version="1.1" viewBox="0 0 244.8 180" width="244.8pt" xmlns="http://www.w3.org/2000/svg" xmlns:xlink="http://www.w3.org/1999/xlink">
 <metadata>
  <rdf:RDF xmlns:cc="http://creativecommons.org/ns#" xmlns:dc="http://purl.org/dc/elements/1.1/" xmlns:rdf="http://www.w3.org/1999/02/22-rdf-syntax-ns#">
   <cc:Work>
    <dc:type rdf:resource="http://purl.org/dc/dcmitype/StillImage"/>
    <dc:date>2021-05-26T11:09:34.034131</dc:date>
    <dc:format>image/svg+xml</dc:format>
    <dc:creator>
     <cc:Agent>
      <dc:title>Matplotlib v3.3.3, https://matplotlib.org/</dc:title>
     </cc:Agent>
    </dc:creator>
   </cc:Work>
  </rdf:RDF>
 </metadata>
 <defs>
  <style type="text/css">*{stroke-linecap:butt;stroke-linejoin:round;}</style>
 </defs>
 <g id="figure_1">
  <g id="patch_1">
   <path d="M 0 180 
L 244.8 180 
L 244.8 0 
L 0 0 
z
" style="fill:none;"/>
  </g>
  <g id="axes_1">
   <g id="patch_2">
    <path d="M 36.72 81 
L 237.03984 81 
L 237.03984 9 
L 36.72 9 
z
" style="fill:none;"/>
   </g>
   <g id="PolyCollection_1">
    <defs>
     <path d="M 45.825447 -128.690722 
L 45.825447 -128.690722 
L 46.44552 -128.584656 
L 47.065593 -128.483066 
L 47.633993 -128.394861 
L 48.254066 -128.302062 
L 48.874139 -128.213595 
L 49.494212 -128.129404 
L 50.114285 -128.049426 
L 50.682685 -127.982453 
L 51.302758 -127.91069 
L 51.922831 -127.84294 
L 52.542904 -127.779125 
L 53.111304 -127.727959 
L 53.731377 -127.671762 
L 54.35145 -127.619257 
L 54.971523 -127.570352 
L 55.591595 -127.524958 
L 56.159996 -127.491712 
L 56.780069 -127.453042 
L 57.400141 -127.417589 
L 58.020214 -127.385253 
L 58.640287 -127.355927 
L 59.208687 -127.3382 
L 59.82876 -127.314564 
L 60.448833 -127.293611 
L 61.068906 -127.275227 
L 61.637306 -127.267975 
L 62.257379 -127.254377 
L 62.877452 -127.242998 
L 63.497525 -127.233716 
L 64.117598 -127.226412 
L 64.685998 -127.229632 
L 65.306071 -127.225913 
L 65.926144 -127.223802 
L 66.546217 -127.223174 
L 67.16629 -127.223905 
L 67.73469 -127.234538 
L 68.354763 -127.237608 
L 68.974836 -127.241658 
L 69.594909 -127.246563 
L 70.163309 -127.260874 
L 70.783382 -127.267112 
L 71.403454 -127.273827 
L 72.023527 -127.280896 
L 72.6436 -127.288195 
L 73.212 -127.304288 
L 73.832073 -127.311678 
L 74.452146 -127.318932 
L 75.072219 -127.325929 
L 75.692292 -127.33255 
L 76.260692 -127.347377 
L 76.880765 -127.352898 
L 77.500838 -127.357697 
L 78.120911 -127.361662 
L 78.689311 -127.373387 
L 79.309384 -127.375355 
L 79.929457 -127.376164 
L 80.54953 -127.375709 
L 81.169603 -127.373891 
L 81.738003 -127.379314 
L 82.358076 -127.374471 
L 82.978149 -127.367972 
L 83.598222 -127.359727 
L 84.218294 -127.349648 
L 84.786695 -127.346347 
L 85.406768 -127.332341 
L 86.02684 -127.316252 
L 86.646913 -127.298002 
L 87.266986 -127.277519 
L 87.835386 -127.26341 
L 88.455459 -127.238246 
L 89.075532 -127.210646 
L 89.695605 -127.180549 
L 90.264005 -127.156552 
L 90.884078 -127.121287 
L 91.504151 -127.083364 
L 92.124224 -127.042737 
L 92.744297 -126.999362 
L 93.312697 -126.961804 
L 93.93277 -126.912807 
L 94.552843 -126.860953 
L 95.172916 -126.806214 
L 95.792989 -126.748565 
L 96.361389 -126.696524 
L 96.981462 -126.632978 
L 97.601535 -126.566466 
L 98.221608 -126.49698 
L 98.790008 -126.432987 
L 99.410081 -126.357513 
L 100.030153 -126.279053 
L 100.650226 -126.197609 
L 101.270299 -126.11319 
L 101.838699 -126.034185 
L 102.458772 -125.943827 
L 103.078845 -125.850535 
L 103.698918 -125.75433 
L 104.318991 -125.655236 
L 104.887391 -125.561544 
L 105.507464 -125.456732 
L 106.127537 -125.349123 
L 106.74761 -125.238753 
L 107.31601 -125.133823 
L 107.936083 -125.018028 
L 108.556156 -124.899601 
L 109.176229 -124.778592 
L 109.796302 -124.655052 
L 110.364702 -124.537051 
L 110.984775 -124.408584 
L 111.604848 -124.277757 
L 112.224921 -124.144633 
L 112.844993 -124.009275 
L 113.413394 -123.879606 
L 114.033467 -123.739951 
L 114.653539 -123.598269 
L 115.273612 -123.454635 
L 115.842012 -123.316841 
L 116.462085 -123.169491 
L 117.082158 -123.02042 
L 117.702231 -122.869706 
L 118.322304 -122.717433 
L 118.890704 -122.571221 
L 119.510777 -122.416043 
L 120.13085 -122.25956 
L 120.750923 -122.101858 
L 121.370996 -121.943026 
L 121.939396 -121.790502 
L 122.559469 -121.62964 
L 123.179542 -121.467919 
L 123.799615 -121.30543 
L 124.419688 -121.142265 
L 124.988088 -120.985668 
L 125.608161 -120.821388 
L 126.228234 -120.656711 
L 126.848307 -120.491728 
L 127.416707 -120.333527 
L 128.03678 -120.168174 
L 128.656852 -120.002795 
L 129.276925 -119.837483 
L 129.896998 -119.67233 
L 130.465398 -119.51422 
L 131.085471 -119.349618 
L 131.705544 -119.185448 
L 132.325617 -119.021799 
L 132.94569 -118.858761 
L 133.51409 -118.703016 
L 134.134163 -118.54142 
L 134.754236 -118.380693 
L 135.374309 -118.220921 
L 135.942709 -118.068628 
L 136.562782 -117.910973 
L 137.182855 -117.675395 
L 137.802928 -117.52112 
L 138.423001 -117.368278 
L 138.991401 -117.22318 
L 139.611474 -117.073386 
L 140.231547 -116.925241 
L 140.85162 -116.778812 
L 141.471692 -116.634164 
L 142.040093 -116.497421 
L 142.660166 -116.356491 
L 143.280238 -116.217525 
L 143.900311 -116.080583 
L 144.468711 -115.951645 
L 145.088784 -115.818876 
L 145.708857 -115.688286 
L 146.32893 -115.559923 
L 146.949003 -115.43383 
L 147.517403 -115.315824 
L 148.137476 -115.194368 
L 148.757549 -115.075303 
L 149.377622 -114.958662 
L 149.997695 -114.844478 
L 150.566095 -114.738412 
L 151.186168 -114.629198 
L 151.806241 -114.522521 
L 152.426314 -114.418402 
L 152.994714 -114.322389 
L 153.614787 -114.223413 
L 154.23486 -114.127041 
L 154.854933 -114.033285 
L 155.475006 -113.942152 
L 156.043406 -113.859064 
L 156.663479 -113.773167 
L 157.283551 -113.6899 
L 157.903624 -113.60926 
L 158.523697 -113.531241 
L 159.092097 -113.461157 
L 159.71217 -113.388335 
L 160.332243 -113.318101 
L 160.952316 -113.250441 
L 161.572389 -113.185336 
L 162.140789 -113.128005 
L 162.760862 -113.067928 
L 163.380935 -113.010337 
L 164.001008 -112.955204 
L 164.569408 -112.907684 
L 165.189481 -112.857359 
L 165.809554 -112.809395 
L 166.429627 -112.763753 
L 167.0497 -112.720396 
L 167.6181 -112.684416 
L 168.238173 -112.645493 
L 168.858246 -112.608727 
L 169.478319 -112.57407 
L 170.098391 -112.541474 
L 170.666792 -112.515981 
L 171.286865 -112.487348 
L 171.906937 -112.460621 
L 172.52701 -112.435745 
L 173.09541 -112.417732 
L 173.715483 -112.396383 
L 174.335556 -112.376711 
L 174.955629 -112.358658 
L 175.575702 -112.342161 
L 176.144102 -112.332205 
L 176.764175 -112.318628 
L 177.384248 -112.306418 
L 178.004321 -112.295509 
L 178.624394 -112.285834 
L 179.192794 -112.282362 
L 179.812867 -112.274953 
L 180.43294 -112.268576 
L 181.053013 -112.263164 
L 181.621413 -112.263676 
L 182.241486 -112.259984 
L 182.861559 -112.257047 
L 183.481632 -112.254798 
L 184.101704 -112.253166 
L 184.670105 -112.25711 
L 185.290178 -112.256502 
L 185.91025 -112.256303 
L 186.530323 -112.256443 
L 187.150396 -112.256853 
L 187.718796 -112.262495 
L 188.338869 -112.263239 
L 188.958942 -112.26405 
L 189.579015 -112.264858 
L 190.147415 -112.27063 
L 190.767488 -112.271237 
L 191.387561 -112.271644 
L 192.007634 -112.271788 
L 192.627707 -112.271606 
L 193.196107 -112.276069 
L 193.81618 -112.275048 
L 194.436253 -112.273517 
L 195.056326 -112.271416 
L 195.676399 -112.268689 
L 196.244799 -112.270311 
L 196.864872 -112.26616 
L 197.484945 -112.261217 
L 198.105018 -112.25543 
L 198.72509 -112.248746 
L 199.293491 -112.246142 
L 199.913564 -112.237518 
L 200.533636 -112.227853 
L 201.153709 -112.217103 
L 201.722109 -112.210244 
L 202.342182 -112.197195 
L 202.962255 -112.182938 
L 203.582328 -112.167434 
L 204.202401 -112.150648 
L 204.770801 -112.137544 
L 205.390874 -112.118088 
L 206.010947 -112.097252 
L 206.63102 -112.075007 
L 207.251093 -112.051328 
L 207.819493 -112.031164 
L 208.439566 -112.004537 
L 209.059639 -111.976406 
L 209.679712 -111.946753 
L 210.248112 -111.920508 
L 210.868185 -111.887754 
L 211.488258 -111.853433 
L 212.108331 -111.817534 
L 212.728403 -111.780047 
L 213.296804 -111.745871 
L 213.916877 -111.705181 
L 214.536949 -111.662888 
L 215.157022 -111.618991 
L 215.777095 -111.573491 
L 216.345495 -111.531244 
L 216.965568 -111.482536 
L 217.585641 -111.432238 
L 218.205714 -111.380359 
L 218.774114 -111.331713 
L 219.394187 -111.27669 
L 220.01426 -111.220121 
L 220.634333 -111.162022 
L 221.254406 -111.102411 
L 221.822806 -111.046039 
L 222.442879 -110.983445 
L 223.062952 -110.919399 
L 223.683025 -110.853926 
L 224.303098 -110.787051 
L 224.871498 -110.723456 
L 225.491571 -110.653842 
L 226.111644 -110.58291 
L 226.731717 -110.510693 
L 227.300117 -110.44181 
L 227.92019 -110.367102 
L 227.92019 -110.298823 
L 227.92019 -110.298823 
L 227.300117 -110.359263 
L 226.731717 -110.414368 
L 226.111644 -110.471912 
L 225.491571 -110.526391 
L 224.871498 -110.577534 
L 224.303098 -110.621191 
L 223.683025 -110.667777 
L 223.062952 -110.714282 
L 222.442879 -110.761741 
L 221.822806 -110.813455 
L 221.254406 -110.864641 
L 220.634333 -110.924796 
L 220.01426 -110.98861 
L 219.394187 -111.054844 
L 218.774114 -111.121918 
L 218.205714 -111.183479 
L 217.585641 -111.247776 
L 216.965568 -111.309326 
L 216.345495 -111.368046 
L 215.777095 -111.419638 
L 215.157022 -111.474721 
L 214.536949 -111.529367 
L 213.916877 -111.585545 
L 213.296804 -111.643775 
L 212.728403 -111.699625 
L 212.108331 -111.762864 
L 211.488258 -111.828163 
L 210.868185 -111.89474 
L 210.248112 -111.961639 
L 209.679712 -112.022938 
L 209.059639 -112.087812 
L 208.439566 -112.150883 
L 207.819493 -112.212142 
L 207.251093 -112.266954 
L 206.63102 -112.325912 
L 206.010947 -112.38523 
L 205.390874 -112.445549 
L 204.770801 -112.507347 
L 204.202401 -112.565569 
L 203.582328 -112.629983 
L 202.962255 -112.694664 
L 202.342182 -112.758522 
L 201.722109 -112.820447 
L 201.153709 -112.87438 
L 200.533636 -112.930243 
L 199.913564 -112.983047 
L 199.293491 -113.03361 
L 198.72509 -113.076642 
L 198.105018 -113.127382 
L 197.484945 -113.180995 
L 196.864872 -113.239014 
L 196.244799 -113.302408 
L 195.676399 -113.366052 
L 195.056326 -113.439816 
L 194.436253 -113.516871 
L 193.81618 -113.595061 
L 193.196107 -113.671974 
L 192.627707 -113.739971 
L 192.007634 -113.808162 
L 191.387561 -113.870438 
L 190.767488 -113.925913 
L 190.147415 -113.978116 
L 189.579015 -114.023219 
L 188.958942 -114.074824 
L 188.338869 -114.130099 
L 187.718796 -114.191115 
L 187.150396 -114.253497 
L 186.530323 -114.328237 
L 185.91025 -114.408636 
L 185.290178 -114.492512 
L 184.670105 -114.577111 
L 184.101704 -114.65402 
L 183.481632 -114.732148 
L 182.861559 -114.804678 
L 182.241486 -114.870521 
L 181.621413 -114.931625 
L 181.053013 -114.984337 
L 180.43294 -115.042605 
L 179.812867 -115.103427 
L 179.192794 -115.169152 
L 178.624394 -115.235663 
L 178.004321 -115.315085 
L 177.384248 -115.401137 
L 176.764175 -115.4921 
L 176.144102 -115.585254 
L 175.575702 -115.671384 
L 174.955629 -115.760125 
L 174.335556 -115.838688 
L 173.715483 -115.90733 
L 173.09541 -115.965623 
L 172.52701 -116.008917 
L 171.906937 -116.052064 
L 171.286865 -116.093455 
L 170.666792 -116.138152 
L 170.098391 -116.185175 
L 169.478319 -116.250563 
L 168.858246 -116.33072 
L 168.238173 -116.425767 
L 167.6181 -116.533375 
L 167.0497 -116.647856 
L 166.429627 -116.765128 
L 165.809554 -116.876916 
L 165.189481 -116.97728 
L 164.569408 -117.062104 
L 164.001008 -117.123702 
L 163.380935 -117.176042 
L 162.760862 -117.217343 
L 162.140789 -117.254207 
L 161.572389 -117.288058 
L 160.952316 -117.338795 
L 160.332243 -117.405918 
L 159.71217 -117.492368 
L 159.092097 -117.601871 
L 158.523697 -117.716675 
L 157.903624 -117.84465 
L 157.283551 -117.970741 
L 156.663479 -118.086302 
L 156.043406 -118.184366 
L 155.475006 -118.254441 
L 154.854933 -118.309181 
L 154.23486 -118.34555 
L 153.614787 -118.370115 
L 152.994714 -118.39145 
L 152.426314 -118.412163 
L 151.806241 -118.450504 
L 151.186168 -118.514185 
L 150.566095 -118.60043 
L 149.997695 -118.701045 
L 149.377622 -118.824099 
L 148.757549 -118.955342 
L 148.137476 -119.085966 
L 147.517403 -119.207767 
L 146.949003 -119.308072 
L 146.32893 -119.397876 
L 145.708857 -119.471811 
L 145.088784 -119.534487 
L 144.468711 -119.592386 
L 143.900311 -119.643098 
L 143.280238 -119.710279 
L 142.660166 -119.786053 
L 142.040093 -119.868636 
L 141.471692 -119.946403 
L 140.85162 -120.026537 
L 140.231547 -120.09521 
L 139.611474 -120.146961 
L 138.991401 -120.179886 
L 138.423001 -120.190766 
L 137.802928 -120.204155 
L 137.182855 -120.22955 
L 136.562782 -120.285036 
L 135.942709 -120.389089 
L 135.374309 -120.534848 
L 134.754236 -120.727647 
L 134.134163 -120.942511 
L 133.51409 -121.155538 
L 132.94569 -121.334994 
L 132.325617 -121.475746 
L 131.705544 -121.560339 
L 131.085471 -121.590137 
L 130.465398 -121.577888 
L 129.896998 -121.5378 
L 129.276925 -121.510327 
L 128.656852 -121.51325 
L 128.03678 -121.565574 
L 127.416707 -121.684049 
L 126.848307 -121.850931 
L 126.228234 -122.065259 
L 125.608161 -122.294936 
L 124.988088 -122.51087 
L 124.419688 -122.67821 
L 123.799615 -122.792614 
L 123.179542 -122.83944 
L 122.559469 -122.825687 
L 121.939396 -122.771185 
L 121.370996 -122.697046 
L 120.750923 -122.650196 
L 120.13085 -122.645523 
L 119.510777 -122.722374 
L 118.890704 -122.871899 
L 118.322304 -123.074635 
L 117.702231 -123.319819 
L 117.082158 -123.564469 
L 116.462085 -123.771532 
L 115.842012 -123.911108 
L 115.273612 -123.960246 
L 114.653539 -123.938688 
L 114.033467 -123.861039 
L 113.413394 -123.763054 
L 112.844993 -123.677656 
L 112.224921 -123.649039 
L 111.604848 -123.719477 
L 110.984775 -123.87752 
L 110.364702 -124.108212 
L 109.796302 -124.371683 
L 109.176229 -124.642168 
L 108.556156 -124.870915 
L 107.936083 -125.029019 
L 107.31601 -125.107498 
L 106.74761 -125.110822 
L 106.127537 -125.083902 
L 105.507464 -125.052064 
L 104.887391 -125.042342 
L 104.318991 -125.057144 
L 103.698918 -125.133949 
L 103.078845 -125.253664 
L 102.458772 -125.410188 
L 101.838699 -125.594059 
L 101.270299 -125.786031 
L 100.650226 -125.992113 
L 100.030153 -126.195011 
L 99.410081 -126.387624 
L 98.790008 -126.564364 
L 98.221608 -126.71179 
L 97.601535 -126.842078 
L 96.981462 -126.941746 
L 96.361389 -126.999856 
L 95.792989 -127.01456 
L 95.172916 -127.002706 
L 94.552843 -126.963092 
L 93.93277 -126.908619 
L 93.312697 -126.856333 
L 92.744297 -126.816073 
L 92.124224 -126.821061 
L 91.504151 -126.87275 
L 90.884078 -126.972406 
L 90.264005 -127.111675 
L 89.695605 -127.26537 
L 89.075532 -127.429816 
L 88.455459 -127.57863 
L 87.835386 -127.687358 
L 87.266986 -127.748757 
L 86.646913 -127.786542 
L 86.02684 -127.806294 
L 85.406768 -127.826068 
L 84.786695 -127.862136 
L 84.218294 -127.915512 
L 83.598222 -128.004998 
L 82.978149 -128.114914 
L 82.358076 -128.233668 
L 81.738003 -128.349432 
L 81.169603 -128.443975 
L 80.54953 -128.533521 
L 79.929457 -128.612102 
L 79.309384 -128.68489 
L 78.689311 -128.757384 
L 78.120911 -128.824509 
L 77.500838 -128.905866 
L 76.880765 -128.99154 
L 76.260692 -129.079284 
L 75.692292 -129.157669 
L 75.072219 -129.24368 
L 74.452146 -129.328267 
L 73.832073 -129.412408 
L 73.212 -129.494298 
L 72.6436 -129.570687 
L 72.023527 -129.656398 
L 71.403454 -129.741069 
L 70.783382 -129.824068 
L 70.163309 -129.905998 
L 69.594909 -129.979397 
L 68.974836 -130.065288 
L 68.354763 -130.155872 
L 67.73469 -130.250605 
L 67.16629 -130.336918 
L 66.546217 -130.428444 
L 65.926144 -130.509997 
L 65.306071 -130.570938 
L 64.685998 -130.620389 
L 64.117598 -130.647049 
L 63.497525 -130.675853 
L 62.877452 -130.705383 
L 62.257379 -130.744364 
L 61.637306 -130.800728 
L 61.068906 -130.870787 
L 60.448833 -130.976168 
L 59.82876 -131.105066 
L 59.208687 -131.248909 
L 58.640287 -131.382298 
L 58.020214 -131.502658 
L 57.400141 -131.567317 
L 56.780069 -131.565433 
L 56.159996 -131.489784 
L 55.591595 -131.346599 
L 54.971523 -131.194622 
L 54.35145 -131.081544 
L 53.731377 -131.06893 
L 53.111304 -131.202666 
L 52.542904 -131.482983 
L 51.922831 -131.889755 
L 51.302758 -132.324398 
L 50.682685 -132.664667 
L 50.114285 -132.775461 
L 49.494212 -132.530937 
L 48.874139 -131.973754 
L 48.254066 -131.157375 
L 47.633993 -130.231072 
L 47.065593 -129.381583 
L 46.44552 -128.822939 
L 45.825447 -128.690722 
z
" id="ma0d1a890ba" style="stroke:#ededed;stroke-opacity:0.3;"/>
    </defs>
    <g clip-path="url(#p953ae67c0c)">
     <use style="fill:#ededed;fill-opacity:0.3;stroke:#ededed;stroke-opacity:0.3;" x="0" xlink:href="#ma0d1a890ba" y="180"/>
    </g>
   </g>
   <g id="matplotlib.axis_1">
    <g id="xtick_1">
     <g id="line2d_1">
      <defs>
       <path d="M 0 0 
L 0 3.5 
" id="m5af70a01fa" style="stroke:#ededed;stroke-width:0.8;"/>
      </defs>
      <g>
       <use style="fill:#ededed;stroke:#ededed;stroke-width:0.8;" x="45.825447" xlink:href="#m5af70a01fa" y="81"/>
      </g>
     </g>
    </g>
    <g id="xtick_2">
     <g id="line2d_2">
      <g>
       <use style="fill:#ededed;stroke:#ededed;stroke-width:0.8;" x="106.528429" xlink:href="#m5af70a01fa" y="81"/>
      </g>
     </g>
    </g>
    <g id="xtick_3">
     <g id="line2d_3">
      <g>
       <use style="fill:#ededed;stroke:#ededed;stroke-width:0.8;" x="167.231411" xlink:href="#m5af70a01fa" y="81"/>
      </g>
     </g>
    </g>
    <g id="xtick_4">
     <g id="line2d_4">
      <g>
       <use style="fill:#ededed;stroke:#ededed;stroke-width:0.8;" x="227.934393" xlink:href="#m5af70a01fa" y="81"/>
      </g>
     </g>
    </g>
   </g>
   <g id="matplotlib.axis_2">
    <g id="ytick_1">
     <g id="line2d_5">
      <defs>
       <path d="M 0 0 
L -3.5 0 
" id="md332b5a6e2" style="stroke:#ededed;stroke-width:0.8;"/>
      </defs>
      <g>
       <use style="fill:#ededed;stroke:#ededed;stroke-width:0.8;" x="36.72" xlink:href="#md332b5a6e2" y="66.154639"/>
      </g>
     </g>
     <g id="text_1">
      <!-- 0.3 -->
      <g style="fill:#ededed;" transform="translate(18.6 69.017764)scale(0.08 -0.08)">
       <defs>
        <path d="M 4.15625 35.296875 
Q 4.15625 48 6.765625 55.734375 
Q 9.375 63.484375 14.515625 67.671875 
Q 19.671875 71.875 27.484375 71.875 
Q 33.25 71.875 37.59375 69.546875 
Q 41.9375 67.234375 44.765625 62.859375 
Q 47.609375 58.5 49.21875 52.21875 
Q 50.828125 45.953125 50.828125 35.296875 
Q 50.828125 22.703125 48.234375 14.96875 
Q 45.65625 7.234375 40.5 3 
Q 35.359375 -1.21875 27.484375 -1.21875 
Q 17.140625 -1.21875 11.234375 6.203125 
Q 4.15625 15.140625 4.15625 35.296875 
z
M 13.1875 35.296875 
Q 13.1875 17.671875 17.3125 11.828125 
Q 21.4375 6 27.484375 6 
Q 33.546875 6 37.671875 11.859375 
Q 41.796875 17.71875 41.796875 35.296875 
Q 41.796875 52.984375 37.671875 58.78125 
Q 33.546875 64.59375 27.390625 64.59375 
Q 21.34375 64.59375 17.71875 59.46875 
Q 13.1875 52.9375 13.1875 35.296875 
z
" id="ArialMT-48"/>
        <path d="M 9.078125 0 
L 9.078125 10.015625 
L 19.09375 10.015625 
L 19.09375 0 
z
" id="ArialMT-46"/>
        <path d="M 4.203125 18.890625 
L 12.984375 20.0625 
Q 14.5 12.59375 18.140625 9.296875 
Q 21.78125 6 27 6 
Q 33.203125 6 37.46875 10.296875 
Q 41.75 14.59375 41.75 20.953125 
Q 41.75 27 37.796875 30.921875 
Q 33.84375 34.859375 27.734375 34.859375 
Q 25.25 34.859375 21.53125 33.890625 
L 22.515625 41.609375 
Q 23.390625 41.5 23.921875 41.5 
Q 29.546875 41.5 34.03125 44.421875 
Q 38.53125 47.359375 38.53125 53.46875 
Q 38.53125 58.296875 35.25 61.46875 
Q 31.984375 64.65625 26.8125 64.65625 
Q 21.6875 64.65625 18.265625 61.421875 
Q 14.84375 58.203125 13.875 51.765625 
L 5.078125 53.328125 
Q 6.6875 62.15625 12.390625 67.015625 
Q 18.109375 71.875 26.609375 71.875 
Q 32.46875 71.875 37.390625 69.359375 
Q 42.328125 66.84375 44.9375 62.5 
Q 47.5625 58.15625 47.5625 53.265625 
Q 47.5625 48.640625 45.0625 44.828125 
Q 42.578125 41.015625 37.703125 38.765625 
Q 44.046875 37.3125 47.5625 32.6875 
Q 51.078125 28.078125 51.078125 21.140625 
Q 51.078125 11.765625 44.234375 5.25 
Q 37.40625 -1.265625 26.953125 -1.265625 
Q 17.53125 -1.265625 11.296875 4.34375 
Q 5.078125 9.96875 4.203125 18.890625 
z
" id="ArialMT-51"/>
       </defs>
       <use xlink:href="#ArialMT-48"/>
       <use x="55.615234" xlink:href="#ArialMT-46"/>
       <use x="83.398438" xlink:href="#ArialMT-51"/>
      </g>
     </g>
    </g>
    <g id="ytick_2">
     <g id="line2d_6">
      <g>
       <use style="fill:#ededed;stroke:#ededed;stroke-width:0.8;" x="36.72" xlink:href="#md332b5a6e2" y="43.886598"/>
      </g>
     </g>
     <g id="text_2">
      <!-- 0.6 -->
      <g style="fill:#ededed;" transform="translate(18.6 46.749723)scale(0.08 -0.08)">
       <defs>
        <path d="M 49.75 54.046875 
L 41.015625 53.375 
Q 39.84375 58.546875 37.703125 60.890625 
Q 34.125 64.65625 28.90625 64.65625 
Q 24.703125 64.65625 21.53125 62.3125 
Q 17.390625 59.28125 14.984375 53.46875 
Q 12.59375 47.65625 12.5 36.921875 
Q 15.671875 41.75 20.265625 44.09375 
Q 24.859375 46.4375 29.890625 46.4375 
Q 38.671875 46.4375 44.84375 39.96875 
Q 51.03125 33.5 51.03125 23.25 
Q 51.03125 16.5 48.125 10.71875 
Q 45.21875 4.9375 40.140625 1.859375 
Q 35.0625 -1.21875 28.609375 -1.21875 
Q 17.625 -1.21875 10.6875 6.859375 
Q 3.765625 14.9375 3.765625 33.5 
Q 3.765625 54.25 11.421875 63.671875 
Q 18.109375 71.875 29.4375 71.875 
Q 37.890625 71.875 43.28125 67.140625 
Q 48.6875 62.40625 49.75 54.046875 
z
M 13.875 23.1875 
Q 13.875 18.65625 15.796875 14.5 
Q 17.71875 10.359375 21.1875 8.171875 
Q 24.65625 6 28.46875 6 
Q 34.03125 6 38.03125 10.484375 
Q 42.046875 14.984375 42.046875 22.703125 
Q 42.046875 30.125 38.078125 34.390625 
Q 34.125 38.671875 28.125 38.671875 
Q 22.171875 38.671875 18.015625 34.390625 
Q 13.875 30.125 13.875 23.1875 
z
" id="ArialMT-54"/>
       </defs>
       <use xlink:href="#ArialMT-48"/>
       <use x="55.615234" xlink:href="#ArialMT-46"/>
       <use x="83.398438" xlink:href="#ArialMT-54"/>
      </g>
     </g>
    </g>
    <g id="ytick_3">
     <g id="line2d_7">
      <g>
       <use style="fill:#ededed;stroke:#ededed;stroke-width:0.8;" x="36.72" xlink:href="#md332b5a6e2" y="21.618557"/>
      </g>
     </g>
     <g id="text_3">
      <!-- 0.9 -->
      <g style="fill:#ededed;" transform="translate(18.6 24.481682)scale(0.08 -0.08)">
       <defs>
        <path d="M 5.46875 16.546875 
L 13.921875 17.328125 
Q 14.984375 11.375 18.015625 8.6875 
Q 21.046875 6 25.78125 6 
Q 29.828125 6 32.875 7.859375 
Q 35.9375 9.71875 37.890625 12.8125 
Q 39.84375 15.921875 41.15625 21.1875 
Q 42.484375 26.46875 42.484375 31.9375 
Q 42.484375 32.515625 42.4375 33.6875 
Q 39.796875 29.5 35.234375 26.875 
Q 30.671875 24.265625 25.34375 24.265625 
Q 16.453125 24.265625 10.296875 30.703125 
Q 4.15625 37.15625 4.15625 47.703125 
Q 4.15625 58.59375 10.578125 65.234375 
Q 17 71.875 26.65625 71.875 
Q 33.640625 71.875 39.421875 68.109375 
Q 45.21875 64.359375 48.21875 57.390625 
Q 51.21875 50.4375 51.21875 37.25 
Q 51.21875 23.53125 48.234375 15.40625 
Q 45.265625 7.28125 39.375 3.03125 
Q 33.5 -1.21875 25.59375 -1.21875 
Q 17.1875 -1.21875 11.859375 3.4375 
Q 6.546875 8.109375 5.46875 16.546875 
z
M 41.453125 48.140625 
Q 41.453125 55.71875 37.421875 60.15625 
Q 33.40625 64.59375 27.734375 64.59375 
Q 21.875 64.59375 17.53125 59.8125 
Q 13.1875 55.03125 13.1875 47.40625 
Q 13.1875 40.578125 17.3125 36.296875 
Q 21.4375 32.03125 27.484375 32.03125 
Q 33.59375 32.03125 37.515625 36.296875 
Q 41.453125 40.578125 41.453125 48.140625 
z
" id="ArialMT-57"/>
       </defs>
       <use xlink:href="#ArialMT-48"/>
       <use x="55.615234" xlink:href="#ArialMT-46"/>
       <use x="83.398438" xlink:href="#ArialMT-57"/>
      </g>
     </g>
    </g>
   </g>
   <g id="LineCollection_1">
    <path clip-path="url(#p953ae67c0c)" d="M 47.039507 62.877871 
L 47.039507 49.772773 
" style="fill:none;stroke:#ededed;stroke-width:0.5;"/>
    <path clip-path="url(#p953ae67c0c)" d="M 48.860596 58.560536 
L 48.860596 45.233936 
" style="fill:none;stroke:#ededed;stroke-width:0.5;"/>
    <path clip-path="url(#p953ae67c0c)" d="M 51.895745 40.624993 
L 51.895745 24.170387 
" style="fill:none;stroke:#ededed;stroke-width:0.5;"/>
    <path clip-path="url(#p953ae67c0c)" d="M 57.966044 45.410356 
L 57.966044 33.400049 
" style="fill:none;stroke:#ededed;stroke-width:0.5;"/>
    <path clip-path="url(#p953ae67c0c)" d="M 64.036342 47.882807 
L 64.036342 38.081502 
" style="fill:none;stroke:#ededed;stroke-width:0.5;"/>
    <path clip-path="url(#p953ae67c0c)" d="M 70.10664 41.3526 
L 70.10664 24.226478 
" style="fill:none;stroke:#ededed;stroke-width:0.5;"/>
    <path clip-path="url(#p953ae67c0c)" d="M 76.176938 45.858642 
L 76.176938 38.703925 
" style="fill:none;stroke:#ededed;stroke-width:0.5;"/>
    <path clip-path="url(#p953ae67c0c)" d="M 82.247236 53.292303 
L 82.247236 39.77777 
" style="fill:none;stroke:#ededed;stroke-width:0.5;"/>
    <path clip-path="url(#p953ae67c0c)" d="M 94.387833 63.597192 
L 94.387833 44.29351 
" style="fill:none;stroke:#ededed;stroke-width:0.5;"/>
    <path clip-path="url(#p953ae67c0c)" d="M 100.458131 54.030613 
L 100.458131 37.553329 
" style="fill:none;stroke:#ededed;stroke-width:0.5;"/>
    <path clip-path="url(#p953ae67c0c)" d="M 106.528429 60.363788 
L 106.528429 39.582635 
" style="fill:none;stroke:#ededed;stroke-width:0.5;"/>
    <path clip-path="url(#p953ae67c0c)" d="M 118.669025 48.940912 
L 118.669025 35.950043 
" style="fill:none;stroke:#ededed;stroke-width:0.5;"/>
    <path clip-path="url(#p953ae67c0c)" d="M 136.87992 59.002242 
L 136.87992 31.410703 
" style="fill:none;stroke:#ededed;stroke-width:0.5;"/>
    <path clip-path="url(#p953ae67c0c)" d="M 167.231411 71.72153 
L 167.231411 52.563417 
" style="fill:none;stroke:#ededed;stroke-width:0.5;"/>
    <path clip-path="url(#p953ae67c0c)" d="M 197.582902 53.51844 
L 197.582902 43.513173 
" style="fill:none;stroke:#ededed;stroke-width:0.5;"/>
    <path clip-path="url(#p953ae67c0c)" d="M 227.934393 83.100121 
L 227.934393 57.626709 
" style="fill:none;stroke:#ededed;stroke-width:0.5;"/>
   </g>
   <g id="line2d_8">
    <path clip-path="url(#p953ae67c0c)" d="M 45.825447 51.309278 
L 46.44552 50.990203 
L 47.065593 50.15239 
L 48.254066 48.24518 
L 48.874139 47.674722 
L 49.494212 47.551156 
L 50.682685 48.066164 
L 51.302758 48.317965 
L 51.922831 48.369176 
L 53.111304 47.970686 
L 54.35145 47.485353 
L 55.591595 47.364226 
L 58.020214 47.375766 
L 63.497525 46.851464 
L 78.120911 46.096384 
L 80.54953 46.152256 
L 81.738003 45.933835 
L 84.218294 45.305892 
L 85.406768 45.388777 
L 87.835386 45.928595 
L 89.075532 45.752323 
L 90.884078 45.113212 
L 91.504151 45.067115 
L 92.124224 45.187446 
L 93.93277 45.878334 
L 94.552843 45.924717 
L 95.172916 45.798839 
L 96.981462 45.085651 
L 97.601535 45.021074 
L 98.790008 45.279637 
L 100.030153 45.608045 
L 100.650226 45.610851 
L 101.838699 45.298154 
L 103.078845 44.926202 
L 104.318991 44.927169 
L 106.74761 45.293057 
L 109.176229 45.202605 
L 111.604848 45.585402 
L 112.844993 45.313632 
L 114.033467 44.991904 
L 115.273612 45.01382 
L 117.082158 45.410756 
L 118.322304 45.371374 
L 120.13085 45.013119 
L 121.370996 45.045157 
L 123.799615 45.386914 
L 124.988088 45.249425 
L 126.848307 44.967753 
L 128.03678 45.015049 
L 131.085471 45.334831 
L 134.134163 45.155948 
L 135.942709 45.135256 
L 138.423001 45.401159 
L 140.231547 45.536619 
L 162.140789 45.302143 
L 166.429627 45.364946 
L 179.812867 45.279927 
L 184.101704 45.247239 
L 200.533636 45.256136 
L 210.248112 45.232424 
L 227.92019 45.276589 
L 227.92019 45.276589 
" style="fill:none;stroke:#ededed;stroke-dasharray:5,5;stroke-dashoffset:0;stroke-width:0.5;"/>
   </g>
   <g id="line2d_9">
    <path clip-path="url(#p953ae67c0c)" d="M 88.317535 81 
L 88.317535 9 
" style="fill:none;stroke:#808080;stroke-dasharray:3.2,0.8,0.5,0.8;stroke-dashoffset:0;stroke-width:0.5;"/>
   </g>
   <g id="line2d_10">
    <defs>
     <path d="M -1.5 1.5 
L 1.5 1.5 
L 1.5 -1.5 
L -1.5 -1.5 
z
" id="m5c5d89f382" style="stroke:#ededed;stroke-linejoin:miter;"/>
    </defs>
    <g clip-path="url(#p953ae67c0c)">
     <use style="fill:#ededed;stroke:#ededed;stroke-linejoin:miter;" x="47.039507" xlink:href="#m5c5d89f382" y="56.325322"/>
     <use style="fill:#ededed;stroke:#ededed;stroke-linejoin:miter;" x="48.860596" xlink:href="#m5c5d89f382" y="51.897236"/>
     <use style="fill:#ededed;stroke:#ededed;stroke-linejoin:miter;" x="51.895745" xlink:href="#m5c5d89f382" y="32.39769"/>
     <use style="fill:#ededed;stroke:#ededed;stroke-linejoin:miter;" x="57.966044" xlink:href="#m5c5d89f382" y="39.405202"/>
     <use style="fill:#ededed;stroke:#ededed;stroke-linejoin:miter;" x="64.036342" xlink:href="#m5c5d89f382" y="42.982155"/>
     <use style="fill:#ededed;stroke:#ededed;stroke-linejoin:miter;" x="70.10664" xlink:href="#m5c5d89f382" y="32.789539"/>
     <use style="fill:#ededed;stroke:#ededed;stroke-linejoin:miter;" x="76.176938" xlink:href="#m5c5d89f382" y="42.281283"/>
     <use style="fill:#ededed;stroke:#ededed;stroke-linejoin:miter;" x="82.247236" xlink:href="#m5c5d89f382" y="46.535036"/>
     <use style="fill:#ededed;stroke:#ededed;stroke-linejoin:miter;" x="94.387833" xlink:href="#m5c5d89f382" y="53.945351"/>
     <use style="fill:#ededed;stroke:#ededed;stroke-linejoin:miter;" x="100.458131" xlink:href="#m5c5d89f382" y="45.791971"/>
     <use style="fill:#ededed;stroke:#ededed;stroke-linejoin:miter;" x="106.528429" xlink:href="#m5c5d89f382" y="49.973212"/>
     <use style="fill:#ededed;stroke:#ededed;stroke-linejoin:miter;" x="118.669025" xlink:href="#m5c5d89f382" y="42.445477"/>
     <use style="fill:#ededed;stroke:#ededed;stroke-linejoin:miter;" x="136.87992" xlink:href="#m5c5d89f382" y="45.206472"/>
     <use style="fill:#ededed;stroke:#ededed;stroke-linejoin:miter;" x="167.231411" xlink:href="#m5c5d89f382" y="62.142473"/>
     <use style="fill:#ededed;stroke:#ededed;stroke-linejoin:miter;" x="197.582902" xlink:href="#m5c5d89f382" y="48.515806"/>
     <use style="fill:#ededed;stroke:#ededed;stroke-linejoin:miter;" x="227.934393" xlink:href="#m5c5d89f382" y="70.363415"/>
    </g>
   </g>
   <g id="patch_3">
    <path d="M 36.72 81 
L 36.72 9 
" style="fill:none;stroke:#ededed;stroke-linecap:square;stroke-linejoin:miter;stroke-width:0.5;"/>
   </g>
   <g id="patch_4">
    <path d="M 237.03984 81 
L 237.03984 9 
" style="fill:none;stroke:#ededed;stroke-linecap:square;stroke-linejoin:miter;stroke-width:0.5;"/>
   </g>
   <g id="patch_5">
    <path d="M 36.72 81 
L 237.03984 81 
" style="fill:none;stroke:#ededed;stroke-linecap:square;stroke-linejoin:miter;stroke-width:0.5;"/>
   </g>
   <g id="patch_6">
    <path d="M 36.72 9 
L 237.03984 9 
" style="fill:none;stroke:#ededed;stroke-linecap:square;stroke-linejoin:miter;stroke-width:0.5;"/>
   </g>
   <g id="text_4">
    <!-- $8E_r$, $D/J = 0.1$ -->
    <g style="fill:#ededed;" transform="translate(181.68 19.8)scale(0.08 -0.08)">
     <defs>
      <path d="M 31.78125 34.625 
Q 24.75 34.625 20.71875 30.859375 
Q 16.703125 27.09375 16.703125 20.515625 
Q 16.703125 13.921875 20.71875 10.15625 
Q 24.75 6.390625 31.78125 6.390625 
Q 38.8125 6.390625 42.859375 10.171875 
Q 46.921875 13.96875 46.921875 20.515625 
Q 46.921875 27.09375 42.890625 30.859375 
Q 38.875 34.625 31.78125 34.625 
z
M 21.921875 38.8125 
Q 15.578125 40.375 12.03125 44.71875 
Q 8.5 49.078125 8.5 55.328125 
Q 8.5 64.0625 14.71875 69.140625 
Q 20.953125 74.21875 31.78125 74.21875 
Q 42.671875 74.21875 48.875 69.140625 
Q 55.078125 64.0625 55.078125 55.328125 
Q 55.078125 49.078125 51.53125 44.71875 
Q 48 40.375 41.703125 38.8125 
Q 48.828125 37.15625 52.796875 32.3125 
Q 56.78125 27.484375 56.78125 20.515625 
Q 56.78125 9.90625 50.3125 4.234375 
Q 43.84375 -1.421875 31.78125 -1.421875 
Q 19.734375 -1.421875 13.25 4.234375 
Q 6.78125 9.90625 6.78125 20.515625 
Q 6.78125 27.484375 10.78125 32.3125 
Q 14.796875 37.15625 21.921875 38.8125 
z
M 18.3125 54.390625 
Q 18.3125 48.734375 21.84375 45.5625 
Q 25.390625 42.390625 31.78125 42.390625 
Q 38.140625 42.390625 41.71875 45.5625 
Q 45.3125 48.734375 45.3125 54.390625 
Q 45.3125 60.0625 41.71875 63.234375 
Q 38.140625 66.40625 31.78125 66.40625 
Q 25.390625 66.40625 21.84375 63.234375 
Q 18.3125 60.0625 18.3125 54.390625 
z
" id="DejaVuSans-56"/>
      <path d="M 16.890625 72.90625 
L 62.984375 72.90625 
L 61.375 64.59375 
L 25.09375 64.59375 
L 20.90625 43.015625 
L 55.71875 43.015625 
L 54.109375 34.71875 
L 19.28125 34.71875 
L 14.203125 8.296875 
L 51.3125 8.296875 
L 49.703125 0 
L 2.6875 0 
z
" id="DejaVuSans-Oblique-69"/>
      <path d="M 44.578125 46.390625 
Q 43.21875 47.125 41.453125 47.515625 
Q 39.703125 47.90625 37.703125 47.90625 
Q 30.515625 47.90625 25.140625 42.453125 
Q 19.78125 37.015625 18.015625 27.875 
L 12.5 0 
L 3.515625 0 
L 14.203125 54.6875 
L 23.1875 54.6875 
L 21.484375 46.1875 
Q 25.046875 50.921875 30 53.453125 
Q 34.96875 56 40.578125 56 
Q 42.046875 56 43.453125 55.828125 
Q 44.875 55.671875 46.296875 55.28125 
z
" id="DejaVuSans-Oblique-114"/>
      <path d="M 8.890625 0 
L 8.890625 10.015625 
L 18.890625 10.015625 
L 18.890625 0 
Q 18.890625 -5.515625 16.9375 -8.90625 
Q 14.984375 -12.3125 10.75 -14.15625 
L 8.296875 -10.40625 
Q 11.078125 -9.1875 12.390625 -6.8125 
Q 13.71875 -4.4375 13.875 0 
z
" id="ArialMT-44"/>
      <path id="ArialMT-32"/>
      <path d="M 16.890625 72.90625 
L 38.09375 72.90625 
Q 54.984375 72.90625 63.59375 65.75 
Q 72.21875 58.59375 72.21875 44.484375 
Q 72.21875 35.15625 68.9375 26.53125 
Q 65.671875 17.921875 59.90625 12.015625 
Q 54.109375 5.953125 45.171875 2.96875 
Q 36.234375 0 24.03125 0 
L 2.6875 0 
z
M 25.203125 64.796875 
L 14.203125 8.109375 
L 27.09375 8.109375 
Q 43.65625 8.109375 52.734375 17.625 
Q 61.8125 27.15625 61.8125 44.484375 
Q 61.8125 54.984375 55.953125 59.890625 
Q 50.09375 64.796875 37.59375 64.796875 
z
" id="DejaVuSans-Oblique-68"/>
      <path d="M 25.390625 72.90625 
L 33.6875 72.90625 
L 8.296875 -9.28125 
L 0 -9.28125 
z
" id="DejaVuSans-47"/>
      <path d="M 16.703125 72.90625 
L 26.609375 72.90625 
L 13.375 5.078125 
Q 10.796875 -8.15625 4.65625 -14.078125 
Q -1.46875 -20.015625 -12.5 -20.015625 
L -16.40625 -20.015625 
L -14.796875 -11.71875 
L -11.71875 -11.71875 
Q -5.125 -11.71875 -1.703125 -7.953125 
Q 1.703125 -4.203125 3.515625 5.078125 
z
" id="DejaVuSans-Oblique-74"/>
      <path d="M 10.59375 45.40625 
L 73.1875 45.40625 
L 73.1875 37.203125 
L 10.59375 37.203125 
z
M 10.59375 25.484375 
L 73.1875 25.484375 
L 73.1875 17.1875 
L 10.59375 17.1875 
z
" id="DejaVuSans-61"/>
      <path d="M 31.78125 66.40625 
Q 24.171875 66.40625 20.328125 58.90625 
Q 16.5 51.421875 16.5 36.375 
Q 16.5 21.390625 20.328125 13.890625 
Q 24.171875 6.390625 31.78125 6.390625 
Q 39.453125 6.390625 43.28125 13.890625 
Q 47.125 21.390625 47.125 36.375 
Q 47.125 51.421875 43.28125 58.90625 
Q 39.453125 66.40625 31.78125 66.40625 
z
M 31.78125 74.21875 
Q 44.046875 74.21875 50.515625 64.515625 
Q 56.984375 54.828125 56.984375 36.375 
Q 56.984375 17.96875 50.515625 8.265625 
Q 44.046875 -1.421875 31.78125 -1.421875 
Q 19.53125 -1.421875 13.0625 8.265625 
Q 6.59375 17.96875 6.59375 36.375 
Q 6.59375 54.828125 13.0625 64.515625 
Q 19.53125 74.21875 31.78125 74.21875 
z
" id="DejaVuSans-48"/>
      <path d="M 10.6875 12.40625 
L 21 12.40625 
L 21 0 
L 10.6875 0 
z
" id="DejaVuSans-46"/>
      <path d="M 12.40625 8.296875 
L 28.515625 8.296875 
L 28.515625 63.921875 
L 10.984375 60.40625 
L 10.984375 69.390625 
L 28.421875 72.90625 
L 38.28125 72.90625 
L 38.28125 8.296875 
L 54.390625 8.296875 
L 54.390625 0 
L 12.40625 0 
z
" id="DejaVuSans-49"/>
     </defs>
     <use transform="translate(0 0.78125)" xlink:href="#DejaVuSans-56"/>
     <use transform="translate(63.623047 0.78125)" xlink:href="#DejaVuSans-Oblique-69"/>
     <use transform="translate(126.806641 -15.625)scale(0.7)" xlink:href="#DejaVuSans-Oblique-114"/>
     <use transform="translate(158.320312 0.78125)" xlink:href="#ArialMT-44"/>
     <use transform="translate(186.103516 0.78125)" xlink:href="#ArialMT-32"/>
     <use transform="translate(213.886719 0.78125)" xlink:href="#DejaVuSans-Oblique-68"/>
     <use transform="translate(290.888672 0.78125)" xlink:href="#DejaVuSans-47"/>
     <use transform="translate(324.580078 0.78125)" xlink:href="#DejaVuSans-Oblique-74"/>
     <use transform="translate(373.554688 0.78125)" xlink:href="#DejaVuSans-61"/>
     <use transform="translate(476.826172 0.78125)" xlink:href="#DejaVuSans-48"/>
     <use transform="translate(540.449219 0.78125)" xlink:href="#DejaVuSans-46"/>
     <use transform="translate(572.236328 0.78125)" xlink:href="#DejaVuSans-49"/>
    </g>
   </g>
  </g>
  <g id="axes_2">
   <g id="patch_7">
    <path d="M 36.72 153 
L 237.03984 153 
L 237.03984 81 
L 36.72 81 
z
" style="fill:none;"/>
   </g>
   <g id="PolyCollection_2">
    <defs>
     <path d="M 45.825447 -56.690722 
L 45.825447 -56.690722 
L 46.44552 -56.608909 
L 47.065593 -56.579712 
L 47.633993 -56.611431 
L 48.254066 -56.685203 
L 48.874139 -56.809009 
L 49.494212 -56.981676 
L 50.114285 -57.201887 
L 50.682685 -57.477403 
L 51.302758 -57.788278 
L 51.922831 -58.141948 
L 52.542904 -58.536579 
L 53.111304 -58.979807 
L 53.731377 -59.450535 
L 54.35145 -59.956093 
L 54.971523 -60.494253 
L 55.591595 -61.062707 
L 56.159996 -61.669315 
L 56.780069 -62.291324 
L 57.400141 -62.93634 
L 58.020214 -63.601841 
L 58.640287 -64.285275 
L 59.208687 -64.995113 
L 59.82876 -65.706857 
L 60.448833 -66.428796 
L 61.068906 -67.158357 
L 61.637306 -67.904733 
L 62.257379 -68.64207 
L 62.877452 -69.379445 
L 63.497525 -70.114411 
L 64.117598 -70.84457 
L 64.685998 -71.580233 
L 65.306071 -72.294015 
L 65.926144 -72.996195 
L 66.546217 -73.684667 
L 67.16629 -74.357411 
L 67.73469 -75.025989 
L 68.354763 -75.661765 
L 68.974836 -76.276349 
L 69.594909 -76.868135 
L 70.163309 -77.449704 
L 70.783382 -77.99167 
L 71.403454 -78.506714 
L 72.023527 -78.993707 
L 72.6436 -79.451646 
L 73.212 -79.89432 
L 73.832073 -80.291741 
L 74.452146 -80.657849 
L 75.072219 -80.992149 
L 75.692292 -81.294272 
L 76.260692 -81.579052 
L 76.880765 -81.81627 
L 77.500838 -82.020941 
L 78.120911 -82.193183 
L 78.689311 -82.348497 
L 79.309384 -82.456727 
L 79.929457 -82.533558 
L 80.54953 -82.579551 
L 81.169603 -82.595363 
L 81.738003 -82.597073 
L 82.358076 -82.554862 
L 82.978149 -82.484984 
L 83.598222 -82.388443 
L 84.218294 -82.266314 
L 84.786695 -82.134953 
L 85.406768 -81.965093 
L 86.02684 -81.773238 
L 86.646913 -81.56069 
L 87.266986 -81.32879 
L 87.835386 -81.093876 
L 88.455459 -80.827366 
L 89.075532 -80.545705 
L 89.695605 -80.250333 
L 90.264005 -79.957379 
L 90.884078 -79.63885 
L 91.504151 -79.310948 
L 92.124224 -78.975109 
L 92.744297 -78.632749 
L 93.312697 -78.299547 
L 93.93277 -77.948228 
L 94.552843 -77.594492 
L 95.172916 -77.239642 
L 95.792989 -76.884938 
L 96.361389 -76.545445 
L 96.981462 -76.194535 
L 97.601535 -75.847257 
L 98.221608 -75.504665 
L 98.790008 -75.181272 
L 99.410081 -74.850887 
L 100.030153 -74.527976 
L 100.650226 -74.213339 
L 101.270299 -73.907704 
L 101.838699 -73.624874 
L 102.458772 -73.339081 
L 103.078845 -73.064057 
L 103.698918 -72.800246 
L 104.318991 -72.54802 
L 104.887391 -72.320506 
L 105.507464 -72.092227 
L 106.127537 -71.876226 
L 106.74761 -71.672597 
L 107.31601 -71.493987 
L 107.936083 -71.315063 
L 108.556156 -71.148391 
L 109.176229 -70.993808 
L 109.796302 -70.85109 
L 110.364702 -70.7324 
L 110.984775 -70.612496 
L 111.604848 -70.50347 
L 112.224921 -70.404896 
L 112.844993 -70.316305 
L 113.413394 -70.249511 
L 114.033467 -70.179308 
L 114.653539 -70.117461 
L 115.273612 -70.063367 
L 115.842012 -70.028665 
L 116.462085 -69.98816 
L 117.082158 -69.953465 
L 117.702231 -69.923901 
L 118.322304 -69.89878 
L 118.890704 -69.889642 
L 119.510777 -69.871319 
L 120.13085 -69.855354 
L 120.750923 -69.841058 
L 121.370996 -69.82775 
L 121.939396 -69.826979 
L 122.559469 -69.813647 
L 123.179542 -69.799339 
L 123.799615 -69.783435 
L 124.419688 -69.765341 
L 124.988088 -69.756688 
L 125.608161 -69.732522 
L 126.228234 -69.704534 
L 126.848307 -69.672243 
L 127.416707 -69.647373 
L 128.03678 -69.605145 
L 128.656852 -69.557362 
L 129.276925 -69.503678 
L 129.896998 -69.443785 
L 130.465398 -69.389525 
L 131.085471 -69.31642 
L 131.705544 -69.236406 
L 132.325617 -69.149324 
L 132.94569 -69.055057 
L 133.51409 -68.965534 
L 134.134163 -68.856662 
L 134.754236 -68.740471 
L 135.374309 -68.616987 
L 135.942709 -68.498169 
L 136.562782 -68.360287 
L 137.182855 -68.205372 
L 137.802928 -68.046507 
L 138.423001 -67.881176 
L 138.991401 -67.721328 
L 139.611474 -67.543772 
L 140.231547 -67.360545 
L 140.85162 -67.171955 
L 141.471692 -66.97833 
L 142.040093 -66.791494 
L 142.660166 -66.588793 
L 143.280238 -66.382127 
L 143.900311 -66.171876 
L 144.468711 -65.969711 
L 145.088784 -65.753412 
L 145.708857 -65.53471 
L 146.32893 -65.314009 
L 146.949003 -65.091709 
L 147.517403 -64.879229 
L 148.137476 -64.654877 
L 148.757549 -64.430119 
L 149.377622 -64.205338 
L 149.997695 -63.980914 
L 150.566095 -63.76796 
L 151.186168 -63.545286 
L 151.806241 -63.324037 
L 152.426314 -63.104544 
L 152.994714 -62.897657 
L 153.614787 -62.682555 
L 154.23486 -62.470109 
L 154.854933 -62.260584 
L 155.475006 -62.054228 
L 156.043406 -61.861552 
L 156.663479 -61.662152 
L 157.283551 -61.466549 
L 157.903624 -61.274913 
L 158.523697 -61.087394 
L 159.092097 -60.914173 
L 159.71217 -60.735211 
L 160.332243 -60.560693 
L 160.952316 -60.390689 
L 161.572389 -60.225249 
L 162.140789 -60.074249 
L 162.760862 -59.917968 
L 163.380935 -59.766285 
L 164.001008 -59.619177 
L 164.569408 -59.486306 
L 165.189481 -59.348171 
L 165.809554 -59.214437 
L 166.429627 -59.085018 
L 167.0497 -58.95981 
L 167.6181 -58.848249 
L 168.238173 -58.731079 
L 168.858246 -58.617742 
L 169.478319 -58.508088 
L 170.098391 -58.401961 
L 170.666792 -58.308614 
L 171.286865 -58.209012 
L 171.906937 -58.112419 
L 172.52701 -58.018653 
L 173.09541 -57.936852 
L 173.715483 -57.848147 
L 174.335556 -57.761695 
L 174.955629 -57.677301 
L 175.575702 -57.594768 
L 176.144102 -57.52313 
L 176.764175 -57.443718 
L 177.384248 -57.365588 
L 178.004321 -57.28855 
L 178.624394 -57.21242 
L 179.192794 -57.146152 
L 179.812867 -57.07128 
L 180.43294 -56.996788 
L 181.053013 -56.922511 
L 181.621413 -56.857358 
L 182.241486 -56.783028 
L 182.861559 -56.708461 
L 183.481632 -56.633523 
L 184.101704 -56.558086 
L 184.670105 -56.491009 
L 185.290178 -56.414209 
L 185.91025 -56.33658 
L 186.530323 -56.258032 
L 187.150396 -56.17848 
L 187.718796 -56.106736 
L 188.338869 -56.024948 
L 188.958942 -55.941964 
L 189.579015 -55.857739 
L 190.147415 -55.78104 
L 190.767488 -55.69421 
L 191.387561 -55.606055 
L 192.007634 -55.516566 
L 192.627707 -55.42574 
L 193.196107 -55.34228 
L 193.81618 -55.248785 
L 194.436253 -55.153996 
L 195.056326 -55.057941 
L 195.676399 -54.960657 
L 196.244799 -54.87077 
L 196.864872 -54.771139 
L 197.484945 -54.670426 
L 198.105018 -54.56869 
L 198.72509 -54.465997 
L 199.293491 -54.370879 
L 199.913564 -54.266462 
L 200.533636 -54.161311 
L 201.153709 -54.055507 
L 201.722109 -53.957496 
L 202.342182 -53.850616 
L 202.962255 -53.743345 
L 203.582328 -53.635771 
L 204.202401 -53.527989 
L 204.770801 -53.428322 
L 205.390874 -53.320374 
L 206.010947 -53.212496 
L 206.63102 -53.104781 
L 207.251093 -52.997322 
L 207.819493 -52.898313 
L 208.439566 -52.791611 
L 209.059639 -52.685433 
L 209.679712 -52.579866 
L 210.248112 -52.482994 
L 210.868185 -52.378868 
L 211.488258 -52.275594 
L 212.108331 -52.173246 
L 212.728403 -52.071894 
L 213.296804 -51.979484 
L 213.916877 -51.880297 
L 214.536949 -51.782294 
L 215.157022 -51.68553 
L 215.777095 -51.590054 
L 216.345495 -51.503675 
L 216.965568 -51.410884 
L 217.585641 -51.319501 
L 218.205714 -51.229559 
L 218.774114 -51.148759 
L 219.394187 -51.061745 
L 220.01426 -50.976233 
L 220.634333 -50.892232 
L 221.254406 -50.809748 
L 221.822806 -50.736358 
L 222.442879 -50.656884 
L 223.062952 -50.578914 
L 223.683025 -50.502432 
L 224.303098 -50.427422 
L 224.871498 -50.361345 
L 225.491571 -50.289185 
L 226.111644 -50.218413 
L 226.731717 -50.148995 
L 227.300117 -50.08831 
L 227.92019 -50.021459 
L 227.92019 -46.055283 
L 227.92019 -46.055283 
L 227.300117 -46.122482 
L 226.731717 -46.182746 
L 226.111644 -46.248993 
L 225.491571 -46.314762 
L 224.871498 -46.38005 
L 224.303098 -46.438323 
L 223.683025 -46.502636 
L 223.062952 -46.566479 
L 222.442879 -46.629862 
L 221.822806 -46.6928 
L 221.254406 -46.7487 
L 220.634333 -46.810789 
L 220.01426 -46.872497 
L 219.394187 -46.933855 
L 218.774114 -46.994894 
L 218.205714 -47.04897 
L 217.585641 -47.109473 
L 216.965568 -47.16978 
L 216.345495 -47.22994 
L 215.777095 -47.283266 
L 215.157022 -47.343276 
L 214.536949 -47.403306 
L 213.916877 -47.463418 
L 213.296804 -47.523677 
L 212.728403 -47.577343 
L 212.108331 -47.638094 
L 211.488258 -47.69921 
L 210.868185 -47.760767 
L 210.248112 -47.822847 
L 209.679712 -47.878647 
L 209.059639 -47.942007 
L 208.439566 -48.006142 
L 207.819493 -48.071142 
L 207.251093 -48.130151 
L 206.63102 -48.197135 
L 206.010947 -48.265255 
L 205.390874 -48.334604 
L 204.770801 -48.405275 
L 204.202401 -48.470333 
L 203.582328 -48.543907 
L 202.962255 -48.61908 
L 202.342182 -48.695941 
L 201.722109 -48.77458 
L 201.153709 -48.847966 
L 200.533636 -48.930405 
L 199.913564 -49.014878 
L 199.293491 -49.101469 
L 198.72509 -49.183053 
L 198.105018 -49.274086 
L 197.484945 -49.36746 
L 196.864872 -49.463243 
L 196.244799 -49.561497 
L 195.676399 -49.654966 
L 195.056326 -49.758311 
L 194.436253 -49.864288 
L 193.81618 -49.972942 
L 193.196107 -50.08431 
L 192.627707 -50.190978 
L 192.007634 -50.307836 
L 191.387561 -50.427484 
L 190.767488 -50.549936 
L 190.147415 -50.675198 
L 189.579015 -50.795675 
L 188.958942 -50.926515 
L 188.338869 -51.060139 
L 187.718796 -51.196525 
L 187.150396 -51.32792 
L 186.530323 -51.469698 
L 185.91025 -51.614124 
L 185.290178 -51.761146 
L 184.670105 -51.910704 
L 184.101704 -52.054829 
L 183.481632 -52.209208 
L 182.861559 -52.365896 
L 182.241486 -52.524803 
L 181.621413 -52.685831 
L 181.053013 -52.840785 
L 180.43294 -53.005696 
L 179.812867 -53.172396 
L 179.192794 -53.34076 
L 178.624394 -53.502406 
L 178.004321 -53.673662 
L 177.384248 -53.846175 
L 176.764175 -54.0198 
L 176.144102 -54.194385 
L 175.575702 -54.361315 
L 174.955629 -54.53731 
L 174.335556 -54.71379 
L 173.715483 -54.890589 
L 173.09541 -55.067539 
L 172.52701 -55.235798 
L 171.906937 -55.4125 
L 171.286865 -55.588841 
L 170.666792 -55.76465 
L 170.098391 -55.930913 
L 169.478319 -56.105101 
L 168.858246 -56.278246 
L 168.238173 -56.450181 
L 167.6181 -56.620741 
L 167.0497 -56.780716 
L 166.429627 -56.948006 
L 165.809554 -57.113452 
L 165.189481 -57.276905 
L 164.569408 -57.438225 
L 164.001008 -57.58803 
L 163.380935 -57.744646 
L 162.760862 -57.898745 
L 162.140789 -58.050216 
L 161.572389 -58.189563 
L 160.952316 -58.335441 
L 160.332243 -58.478409 
L 159.71217 -58.618394 
L 159.092097 -58.755334 
L 158.523697 -58.879615 
L 157.903624 -59.010288 
L 157.283551 -59.137797 
L 156.663479 -59.262126 
L 156.043406 -59.383274 
L 155.475006 -59.491543 
L 154.854933 -59.606347 
L 154.23486 -59.718044 
L 153.614787 -59.826686 
L 152.994714 -59.93234 
L 152.426314 -60.025246 
L 151.806241 -60.125151 
L 151.186168 -60.222352 
L 150.566095 -60.31697 
L 149.997695 -60.399213 
L 149.377622 -60.489069 
L 148.757549 -60.576795 
L 148.137476 -60.662568 
L 147.517403 -60.746581 
L 146.949003 -60.819005 
L 146.32893 -60.900101 
L 145.708857 -60.980085 
L 145.088784 -61.059198 
L 144.468711 -61.137691 
L 143.900311 -61.2057 
L 143.280238 -61.283729 
L 142.660166 -61.361952 
L 142.040093 -61.440658 
L 141.471692 -61.509944 
L 140.85162 -61.590494 
L 140.231547 -61.672436 
L 139.611474 -61.756085 
L 138.991401 -61.841759 
L 138.423001 -61.919481 
L 137.802928 -62.010151 
L 137.182855 -62.103817 
L 136.562782 -62.176925 
L 135.942709 -62.281217 
L 135.374309 -62.37937 
L 134.754236 -62.492492 
L 134.134163 -62.610506 
L 133.51409 -62.733713 
L 132.94569 -62.851878 
L 132.325617 -62.986306 
L 131.705544 -63.126774 
L 131.085471 -63.273545 
L 130.465398 -63.426868 
L 129.896998 -63.576275 
L 129.276925 -63.743352 
L 128.656852 -63.91764 
L 128.03678 -64.099325 
L 127.416707 -64.288576 
L 126.848307 -64.474624 
L 126.228234 -64.67939 
L 125.608161 -64.892108 
L 124.988088 -65.112866 
L 124.419688 -65.330598 
L 123.799615 -65.567544 
L 123.179542 -65.812646 
L 122.559469 -66.065893 
L 121.939396 -66.327251 
L 121.370996 -66.585221 
L 120.750923 -66.862517 
L 120.13085 -67.147652 
L 119.510777 -67.440481 
L 118.890704 -67.740832 
L 118.322304 -68.036717 
L 117.702231 -68.351403 
L 117.082158 -68.672921 
L 116.462085 -69.000983 
L 115.842012 -69.335274 
L 115.273612 -69.663268 
L 114.653539 -70.008875 
L 114.033467 -70.359596 
L 113.413394 -70.715005 
L 112.844993 -71.062124 
L 112.224921 -71.425434 
L 111.604848 -71.791993 
L 110.984775 -72.161272 
L 110.364702 -72.532719 
L 109.796302 -72.892789 
L 109.176229 -73.26673 
L 108.556156 -73.641047 
L 107.936083 -74.015102 
L 107.31601 -74.388238 
L 106.74761 -74.746365 
L 106.127537 -75.115542 
L 105.507464 -75.481738 
L 104.887391 -75.844238 
L 104.318991 -76.188548 
L 103.698918 -76.541386 
L 103.078845 -76.888329 
L 102.458772 -77.228627 
L 101.838699 -77.561531 
L 101.270299 -77.872108 
L 100.650226 -78.187885 
L 100.030153 -78.494013 
L 99.410081 -78.789742 
L 98.790008 -79.074333 
L 98.221608 -79.332516 
L 97.601535 -79.592574 
L 96.981462 -79.839328 
L 96.361389 -80.07208 
L 95.792989 -80.275385 
L 95.172916 -80.478059 
L 94.552843 -80.664749 
L 93.93277 -80.834833 
L 93.312697 -80.987715 
L 92.744297 -81.10786 
L 92.124224 -81.224629 
L 91.504151 -81.322577 
L 90.884078 -81.401224 
L 90.264005 -81.460124 
L 89.695605 -81.483808 
L 89.075532 -81.502013 
L 88.455459 -81.499356 
L 87.835386 -81.475541 
L 87.266986 -81.415273 
L 86.646913 -81.348442 
L 86.02684 -81.259829 
L 85.406768 -81.149314 
L 84.786695 -81.016822 
L 84.218294 -80.847424 
L 83.598222 -80.670993 
L 82.978149 -80.472657 
L 82.358076 -80.25254 
L 81.738003 -80.010813 
L 81.169603 -79.733068 
L 80.54953 -79.448911 
L 79.929457 -79.143974 
L 79.309384 -78.818633 
L 78.689311 -78.473319 
L 78.120911 -78.094277 
L 77.500838 -77.7106 
L 76.880765 -77.308548 
L 76.260692 -76.888754 
L 75.692292 -76.438067 
L 75.072219 -75.984992 
L 74.452146 -75.516367 
L 73.832073 -75.033018 
L 73.212 -74.535815 
L 72.6436 -74.012429 
L 72.023527 -73.490426 
L 71.403454 -72.957438 
L 70.783382 -72.414501 
L 70.163309 -71.862689 
L 69.594909 -71.290531 
L 68.974836 -70.724465 
L 68.354763 -70.15295 
L 67.73469 -69.577187 
L 67.16629 -68.986388 
L 66.546217 -68.405984 
L 65.926144 -67.825089 
L 65.306071 -67.244997 
L 64.685998 -66.667018 
L 64.117598 -66.081164 
L 63.497525 -65.511531 
L 62.877452 -64.948009 
L 62.257379 -64.391945 
L 61.637306 -63.844687 
L 61.068906 -63.296948 
L 60.448833 -62.77147 
L 59.82876 -62.258823 
L 59.208687 -61.760333 
L 58.640287 -61.267172 
L 58.020214 -60.801032 
L 57.400141 -60.352932 
L 56.780069 -59.924126 
L 56.159996 -59.515844 
L 55.591595 -59.119668 
L 54.971523 -58.756094 
L 54.35145 -58.416544 
L 53.731377 -58.102118 
L 53.111304 -57.813873 
L 52.542904 -57.543594 
L 51.922831 -57.310777 
L 51.302758 -57.107049 
L 50.682685 -56.933285 
L 50.114285 -56.781259 
L 49.494212 -56.669865 
L 48.874139 -56.590731 
L 48.254066 -56.544513 
L 47.633993 -56.531804 
L 47.065593 -56.544146 
L 46.44552 -56.599979 
L 45.825447 -56.690722 
z
" id="m146f9154e1" style="stroke:#3b90ff;stroke-opacity:0.3;"/>
    </defs>
    <g clip-path="url(#pe35e295742)">
     <use style="fill:#3b90ff;fill-opacity:0.3;stroke:#3b90ff;stroke-opacity:0.3;" x="0" xlink:href="#m146f9154e1" y="180"/>
    </g>
   </g>
   <g id="matplotlib.axis_3">
    <g id="xtick_5">
     <g id="line2d_11">
      <g>
       <use style="fill:#ededed;stroke:#ededed;stroke-width:0.8;" x="45.825447" xlink:href="#m5af70a01fa" y="153"/>
      </g>
     </g>
     <g id="text_5">
      <!-- 0 -->
      <g style="fill:#ededed;" transform="translate(43.601072 165.72625)scale(0.08 -0.08)">
       <use xlink:href="#ArialMT-48"/>
      </g>
     </g>
    </g>
    <g id="xtick_6">
     <g id="line2d_12">
      <g>
       <use style="fill:#ededed;stroke:#ededed;stroke-width:0.8;" x="106.528429" xlink:href="#m5af70a01fa" y="153"/>
      </g>
     </g>
     <g id="text_6">
      <!-- 100 -->
      <g style="fill:#ededed;" transform="translate(99.855304 165.72625)scale(0.08 -0.08)">
       <defs>
        <path d="M 37.25 0 
L 28.46875 0 
L 28.46875 56 
Q 25.296875 52.984375 20.140625 49.953125 
Q 14.984375 46.921875 10.890625 45.40625 
L 10.890625 53.90625 
Q 18.265625 57.375 23.78125 62.296875 
Q 29.296875 67.234375 31.59375 71.875 
L 37.25 71.875 
z
" id="ArialMT-49"/>
       </defs>
       <use xlink:href="#ArialMT-49"/>
       <use x="55.615234" xlink:href="#ArialMT-48"/>
       <use x="111.230469" xlink:href="#ArialMT-48"/>
      </g>
     </g>
    </g>
    <g id="xtick_7">
     <g id="line2d_13">
      <g>
       <use style="fill:#ededed;stroke:#ededed;stroke-width:0.8;" x="167.231411" xlink:href="#m5af70a01fa" y="153"/>
      </g>
     </g>
     <g id="text_7">
      <!-- 200 -->
      <g style="fill:#ededed;" transform="translate(160.558286 165.72625)scale(0.08 -0.08)">
       <defs>
        <path d="M 50.34375 8.453125 
L 50.34375 0 
L 3.03125 0 
Q 2.9375 3.171875 4.046875 6.109375 
Q 5.859375 10.9375 9.828125 15.625 
Q 13.8125 20.3125 21.34375 26.46875 
Q 33.015625 36.03125 37.109375 41.625 
Q 41.21875 47.21875 41.21875 52.203125 
Q 41.21875 57.421875 37.46875 61 
Q 33.734375 64.59375 27.734375 64.59375 
Q 21.390625 64.59375 17.578125 60.78125 
Q 13.765625 56.984375 13.71875 50.25 
L 4.6875 51.171875 
Q 5.609375 61.28125 11.65625 66.578125 
Q 17.71875 71.875 27.9375 71.875 
Q 38.234375 71.875 44.234375 66.15625 
Q 50.25 60.453125 50.25 52 
Q 50.25 47.703125 48.484375 43.546875 
Q 46.734375 39.40625 42.65625 34.8125 
Q 38.578125 30.21875 29.109375 22.21875 
Q 21.1875 15.578125 18.9375 13.203125 
Q 16.703125 10.84375 15.234375 8.453125 
z
" id="ArialMT-50"/>
       </defs>
       <use xlink:href="#ArialMT-50"/>
       <use x="55.615234" xlink:href="#ArialMT-48"/>
       <use x="111.230469" xlink:href="#ArialMT-48"/>
      </g>
     </g>
    </g>
    <g id="xtick_8">
     <g id="line2d_14">
      <g>
       <use style="fill:#ededed;stroke:#ededed;stroke-width:0.8;" x="227.934393" xlink:href="#m5af70a01fa" y="153"/>
      </g>
     </g>
     <g id="text_8">
      <!-- 300 -->
      <g style="fill:#ededed;" transform="translate(221.261268 165.72625)scale(0.08 -0.08)">
       <use xlink:href="#ArialMT-51"/>
       <use x="55.615234" xlink:href="#ArialMT-48"/>
       <use x="111.230469" xlink:href="#ArialMT-48"/>
      </g>
     </g>
    </g>
    <g id="text_9">
     <!-- Time (ms) -->
     <g style="fill:#ededed;" transform="translate(114.57367 178.595937)scale(0.1 -0.1)">
      <defs>
       <path d="M 25.921875 0 
L 25.921875 63.140625 
L 2.34375 63.140625 
L 2.34375 71.578125 
L 59.078125 71.578125 
L 59.078125 63.140625 
L 35.40625 63.140625 
L 35.40625 0 
z
" id="ArialMT-84"/>
       <path d="M 6.640625 61.46875 
L 6.640625 71.578125 
L 15.4375 71.578125 
L 15.4375 61.46875 
z
M 6.640625 0 
L 6.640625 51.859375 
L 15.4375 51.859375 
L 15.4375 0 
z
" id="ArialMT-105"/>
       <path d="M 6.59375 0 
L 6.59375 51.859375 
L 14.453125 51.859375 
L 14.453125 44.578125 
Q 16.890625 48.390625 20.9375 50.703125 
Q 25 53.03125 30.171875 53.03125 
Q 35.9375 53.03125 39.625 50.640625 
Q 43.3125 48.25 44.828125 43.953125 
Q 50.984375 53.03125 60.84375 53.03125 
Q 68.5625 53.03125 72.703125 48.75 
Q 76.859375 44.484375 76.859375 35.59375 
L 76.859375 0 
L 68.109375 0 
L 68.109375 32.671875 
Q 68.109375 37.9375 67.25 40.25 
Q 66.40625 42.578125 64.15625 43.984375 
Q 61.921875 45.40625 58.890625 45.40625 
Q 53.421875 45.40625 49.796875 41.765625 
Q 46.1875 38.140625 46.1875 30.125 
L 46.1875 0 
L 37.40625 0 
L 37.40625 33.6875 
Q 37.40625 39.546875 35.25 42.46875 
Q 33.109375 45.40625 28.21875 45.40625 
Q 24.515625 45.40625 21.359375 43.453125 
Q 18.21875 41.5 16.796875 37.734375 
Q 15.375 33.984375 15.375 26.90625 
L 15.375 0 
z
" id="ArialMT-109"/>
       <path d="M 42.09375 16.703125 
L 51.171875 15.578125 
Q 49.03125 7.625 43.21875 3.21875 
Q 37.40625 -1.171875 28.375 -1.171875 
Q 17 -1.171875 10.328125 5.828125 
Q 3.65625 12.84375 3.65625 25.484375 
Q 3.65625 38.578125 10.390625 45.796875 
Q 17.140625 53.03125 27.875 53.03125 
Q 38.28125 53.03125 44.875 45.953125 
Q 51.46875 38.875 51.46875 26.03125 
Q 51.46875 25.25 51.421875 23.6875 
L 12.75 23.6875 
Q 13.234375 15.140625 17.578125 10.59375 
Q 21.921875 6.0625 28.421875 6.0625 
Q 33.25 6.0625 36.671875 8.59375 
Q 40.09375 11.140625 42.09375 16.703125 
z
M 13.234375 30.90625 
L 42.1875 30.90625 
Q 41.609375 37.453125 38.875 40.71875 
Q 34.671875 45.796875 27.984375 45.796875 
Q 21.921875 45.796875 17.796875 41.75 
Q 13.671875 37.703125 13.234375 30.90625 
z
" id="ArialMT-101"/>
       <path d="M 23.390625 -21.046875 
Q 16.109375 -11.859375 11.078125 0.4375 
Q 6.0625 12.75 6.0625 25.921875 
Q 6.0625 37.546875 9.8125 48.1875 
Q 14.203125 60.546875 23.390625 72.796875 
L 29.6875 72.796875 
Q 23.78125 62.640625 21.875 58.296875 
Q 18.890625 51.5625 17.1875 44.234375 
Q 15.09375 35.109375 15.09375 25.875 
Q 15.09375 2.390625 29.6875 -21.046875 
z
" id="ArialMT-40"/>
       <path d="M 3.078125 15.484375 
L 11.765625 16.84375 
Q 12.5 11.625 15.84375 8.84375 
Q 19.1875 6.0625 25.203125 6.0625 
Q 31.25 6.0625 34.171875 8.515625 
Q 37.109375 10.984375 37.109375 14.3125 
Q 37.109375 17.28125 34.515625 19 
Q 32.71875 20.171875 25.53125 21.96875 
Q 15.875 24.421875 12.140625 26.203125 
Q 8.40625 27.984375 6.46875 31.125 
Q 4.546875 34.28125 4.546875 38.09375 
Q 4.546875 41.546875 6.125 44.5 
Q 7.71875 47.46875 10.453125 49.421875 
Q 12.5 50.921875 16.03125 51.96875 
Q 19.578125 53.03125 23.640625 53.03125 
Q 29.734375 53.03125 34.34375 51.265625 
Q 38.96875 49.515625 41.15625 46.5 
Q 43.359375 43.5 44.1875 38.484375 
L 35.59375 37.3125 
Q 35.015625 41.3125 32.203125 43.546875 
Q 29.390625 45.796875 24.265625 45.796875 
Q 18.21875 45.796875 15.625 43.796875 
Q 13.03125 41.796875 13.03125 39.109375 
Q 13.03125 37.40625 14.109375 36.03125 
Q 15.1875 34.625 17.484375 33.6875 
Q 18.796875 33.203125 25.25 31.453125 
Q 34.578125 28.953125 38.25 27.359375 
Q 41.9375 25.78125 44.03125 22.75 
Q 46.140625 19.734375 46.140625 15.234375 
Q 46.140625 10.84375 43.578125 6.953125 
Q 41.015625 3.078125 36.171875 0.953125 
Q 31.34375 -1.171875 25.25 -1.171875 
Q 15.140625 -1.171875 9.84375 3.03125 
Q 4.546875 7.234375 3.078125 15.484375 
z
" id="ArialMT-115"/>
       <path d="M 12.359375 -21.046875 
L 6.0625 -21.046875 
Q 20.65625 2.390625 20.65625 25.875 
Q 20.65625 35.0625 18.5625 44.09375 
Q 16.890625 51.421875 13.921875 58.15625 
Q 12.015625 62.546875 6.0625 72.796875 
L 12.359375 72.796875 
Q 21.53125 60.546875 25.921875 48.1875 
Q 29.6875 37.546875 29.6875 25.921875 
Q 29.6875 12.75 24.625 0.4375 
Q 19.578125 -11.859375 12.359375 -21.046875 
z
" id="ArialMT-41"/>
      </defs>
      <use xlink:href="#ArialMT-84"/>
      <use x="57.333984" xlink:href="#ArialMT-105"/>
      <use x="79.550781" xlink:href="#ArialMT-109"/>
      <use x="162.851562" xlink:href="#ArialMT-101"/>
      <use x="218.466797" xlink:href="#ArialMT-32"/>
      <use x="246.25" xlink:href="#ArialMT-40"/>
      <use x="279.550781" xlink:href="#ArialMT-109"/>
      <use x="362.851562" xlink:href="#ArialMT-115"/>
      <use x="412.851562" xlink:href="#ArialMT-41"/>
     </g>
    </g>
   </g>
   <g id="matplotlib.axis_4">
    <g id="ytick_4">
     <g id="line2d_15">
      <g>
       <use style="fill:#ededed;stroke:#ededed;stroke-width:0.8;" x="36.72" xlink:href="#md332b5a6e2" y="138.154639"/>
      </g>
     </g>
     <g id="text_10">
      <!-- 0.3 -->
      <g style="fill:#ededed;" transform="translate(18.6 141.017764)scale(0.08 -0.08)">
       <use xlink:href="#ArialMT-48"/>
       <use x="55.615234" xlink:href="#ArialMT-46"/>
       <use x="83.398438" xlink:href="#ArialMT-51"/>
      </g>
     </g>
    </g>
    <g id="ytick_5">
     <g id="line2d_16">
      <g>
       <use style="fill:#ededed;stroke:#ededed;stroke-width:0.8;" x="36.72" xlink:href="#md332b5a6e2" y="115.886598"/>
      </g>
     </g>
     <g id="text_11">
      <!-- 0.6 -->
      <g style="fill:#ededed;" transform="translate(18.6 118.749723)scale(0.08 -0.08)">
       <use xlink:href="#ArialMT-48"/>
       <use x="55.615234" xlink:href="#ArialMT-46"/>
       <use x="83.398438" xlink:href="#ArialMT-54"/>
      </g>
     </g>
    </g>
    <g id="ytick_6">
     <g id="line2d_17">
      <g>
       <use style="fill:#ededed;stroke:#ededed;stroke-width:0.8;" x="36.72" xlink:href="#md332b5a6e2" y="93.618557"/>
      </g>
     </g>
     <g id="text_12">
      <!-- 0.9 -->
      <g style="fill:#ededed;" transform="translate(18.6 96.481682)scale(0.08 -0.08)">
       <use xlink:href="#ArialMT-48"/>
       <use x="55.615234" xlink:href="#ArialMT-46"/>
       <use x="83.398438" xlink:href="#ArialMT-57"/>
      </g>
     </g>
    </g>
   </g>
   <g id="LineCollection_2">
    <path clip-path="url(#pe35e295742)" d="M 47.039507 112.384142 
L 47.039507 102.893978 
" style="fill:none;stroke:#3b90ff;stroke-width:0.5;"/>
    <path clip-path="url(#pe35e295742)" d="M 48.860596 125.41233 
L 48.860596 111.261998 
" style="fill:none;stroke:#3b90ff;stroke-width:0.5;"/>
    <path clip-path="url(#pe35e295742)" d="M 51.895745 127.829325 
L 51.895745 112.428217 
" style="fill:none;stroke:#3b90ff;stroke-width:0.5;"/>
    <path clip-path="url(#pe35e295742)" d="M 57.966044 117.303595 
L 57.966044 103.997677 
" style="fill:none;stroke:#3b90ff;stroke-width:0.5;"/>
    <path clip-path="url(#pe35e295742)" d="M 64.036342 122.070375 
L 64.036342 105.512739 
" style="fill:none;stroke:#3b90ff;stroke-width:0.5;"/>
    <path clip-path="url(#pe35e295742)" d="M 70.10664 101.464367 
L 70.10664 92.477808 
" style="fill:none;stroke:#3b90ff;stroke-width:0.5;"/>
    <path clip-path="url(#pe35e295742)" d="M 76.176938 100.377571 
L 76.176938 87.862033 
" style="fill:none;stroke:#3b90ff;stroke-width:0.5;"/>
    <path clip-path="url(#pe35e295742)" d="M 82.247236 108.774979 
L 82.247236 94.948046 
" style="fill:none;stroke:#3b90ff;stroke-width:0.5;"/>
    <path clip-path="url(#pe35e295742)" d="M 94.387833 92.976072 
L 94.387833 82.829759 
" style="fill:none;stroke:#3b90ff;stroke-width:0.5;"/>
    <path clip-path="url(#pe35e295742)" d="M 97.422982 99.046903 
L 97.422982 91.284998 
" style="fill:none;stroke:#3b90ff;stroke-width:0.5;"/>
    <path clip-path="url(#pe35e295742)" d="M 100.458131 98.097116 
L 100.458131 86.517351 
" style="fill:none;stroke:#3b90ff;stroke-width:0.5;"/>
    <path clip-path="url(#pe35e295742)" d="M 103.49328 110.078824 
L 103.49328 101.105169 
" style="fill:none;stroke:#3b90ff;stroke-width:0.5;"/>
    <path clip-path="url(#pe35e295742)" d="M 106.528429 123.848627 
L 106.528429 102.945979 
" style="fill:none;stroke:#3b90ff;stroke-width:0.5;"/>
    <path clip-path="url(#pe35e295742)" d="M 109.563578 123.524624 
L 109.563578 116.685313 
" style="fill:none;stroke:#3b90ff;stroke-width:0.5;"/>
    <path clip-path="url(#pe35e295742)" d="M 118.669025 120.335233 
L 118.669025 103.004608 
" style="fill:none;stroke:#3b90ff;stroke-width:0.5;"/>
    <path clip-path="url(#pe35e295742)" d="M 136.87992 123.128114 
L 136.87992 115.597228 
" style="fill:none;stroke:#3b90ff;stroke-width:0.5;"/>
    <path clip-path="url(#pe35e295742)" d="M 167.231411 136.53038 
L 167.231411 102.74352 
" style="fill:none;stroke:#3b90ff;stroke-width:0.5;"/>
    <path clip-path="url(#pe35e295742)" d="M 197.582902 141.79974 
L 197.582902 121.147048 
" style="fill:none;stroke:#3b90ff;stroke-width:0.5;"/>
    <path clip-path="url(#pe35e295742)" d="M 227.934393 121.017724 
L 227.934393 108.432724 
" style="fill:none;stroke:#3b90ff;stroke-width:0.5;"/>
   </g>
   <g id="line2d_18">
    <path clip-path="url(#pe35e295742)" d="M 45.825447 123.309278 
L 47.065593 123.223505 
L 48.874139 122.775477 
L 50.114285 122.268118 
L 51.922831 121.206364 
L 53.111304 120.308029 
L 54.971523 118.696348 
L 56.780069 116.798868 
L 58.640287 114.655878 
L 64.117598 107.218888 
L 65.926144 104.570916 
L 72.023527 96.018565 
L 75.072219 92.271944 
L 77.500838 89.681212 
L 79.929457 87.515293 
L 82.358076 85.809987 
L 84.218294 84.842423 
L 85.406768 84.345121 
L 87.266986 83.815219 
L 89.075532 83.533006 
L 90.884078 83.4805 
L 92.744297 83.635009 
L 95.172916 84.116736 
L 97.601535 84.848457 
L 100.650226 85.999364 
L 110.984775 90.050927 
L 114.033467 90.842764 
L 117.082158 91.336698 
L 119.510777 91.509048 
L 121.939396 91.492615 
L 124.988088 91.239249 
L 128.656852 90.676035 
L 134.754236 89.456893 
L 140.85162 88.361311 
L 144.468711 88.095835 
L 147.517403 88.105813 
L 150.566095 88.330415 
L 153.614787 88.753081 
L 157.283551 89.474192 
L 162.140789 90.66491 
L 171.286865 92.904374 
L 175.575702 93.681169 
L 178.624394 94.074972 
L 182.241486 94.362062 
L 186.530323 94.462088 
L 191.387561 94.33779 
L 200.533636 93.811892 
L 208.439566 93.483565 
L 215.157022 93.454251 
L 226.731717 93.706785 
L 227.92019 93.72811 
L 227.92019 93.72811 
" style="fill:none;stroke:#3b90ff;stroke-dasharray:5,5;stroke-dashoffset:0;stroke-width:0.5;"/>
   </g>
   <g id="line2d_19">
    <path clip-path="url(#pe35e295742)" d="M 88.317535 153 
L 88.317535 81 
" style="fill:none;stroke:#808080;stroke-dasharray:3.2,0.8,0.5,0.8;stroke-dashoffset:0;stroke-width:0.5;"/>
   </g>
   <g id="line2d_20">
    <defs>
     <path d="M 0 1.5 
C 0.397805 1.5 0.77937 1.341951 1.06066 1.06066 
C 1.341951 0.77937 1.5 0.397805 1.5 0 
C 1.5 -0.397805 1.341951 -0.77937 1.06066 -1.06066 
C 0.77937 -1.341951 0.397805 -1.5 0 -1.5 
C -0.397805 -1.5 -0.77937 -1.341951 -1.06066 -1.06066 
C -1.341951 -0.77937 -1.5 -0.397805 -1.5 0 
C -1.5 0.397805 -1.341951 0.77937 -1.06066 1.06066 
C -0.77937 1.341951 -0.397805 1.5 0 1.5 
z
" id="m592d9c262f" style="stroke:#3b90ff;"/>
    </defs>
    <g clip-path="url(#pe35e295742)">
     <use style="fill:#3b90ff;stroke:#3b90ff;" x="47.039507" xlink:href="#m592d9c262f" y="107.63906"/>
     <use style="fill:#3b90ff;stroke:#3b90ff;" x="48.860596" xlink:href="#m592d9c262f" y="118.337164"/>
     <use style="fill:#3b90ff;stroke:#3b90ff;" x="51.895745" xlink:href="#m592d9c262f" y="120.128771"/>
     <use style="fill:#3b90ff;stroke:#3b90ff;" x="57.966044" xlink:href="#m592d9c262f" y="110.650636"/>
     <use style="fill:#3b90ff;stroke:#3b90ff;" x="64.036342" xlink:href="#m592d9c262f" y="113.791557"/>
     <use style="fill:#3b90ff;stroke:#3b90ff;" x="70.10664" xlink:href="#m592d9c262f" y="96.971088"/>
     <use style="fill:#3b90ff;stroke:#3b90ff;" x="76.176938" xlink:href="#m592d9c262f" y="94.119802"/>
     <use style="fill:#3b90ff;stroke:#3b90ff;" x="82.247236" xlink:href="#m592d9c262f" y="101.861512"/>
     <use style="fill:#3b90ff;stroke:#3b90ff;" x="94.387833" xlink:href="#m592d9c262f" y="87.902916"/>
     <use style="fill:#3b90ff;stroke:#3b90ff;" x="97.422982" xlink:href="#m592d9c262f" y="95.16595"/>
     <use style="fill:#3b90ff;stroke:#3b90ff;" x="100.458131" xlink:href="#m592d9c262f" y="92.307233"/>
     <use style="fill:#3b90ff;stroke:#3b90ff;" x="103.49328" xlink:href="#m592d9c262f" y="105.591996"/>
     <use style="fill:#3b90ff;stroke:#3b90ff;" x="106.528429" xlink:href="#m592d9c262f" y="113.397303"/>
     <use style="fill:#3b90ff;stroke:#3b90ff;" x="109.563578" xlink:href="#m592d9c262f" y="120.104969"/>
     <use style="fill:#3b90ff;stroke:#3b90ff;" x="118.669025" xlink:href="#m592d9c262f" y="111.66992"/>
     <use style="fill:#3b90ff;stroke:#3b90ff;" x="136.87992" xlink:href="#m592d9c262f" y="119.362671"/>
     <use style="fill:#3b90ff;stroke:#3b90ff;" x="167.231411" xlink:href="#m592d9c262f" y="119.63695"/>
     <use style="fill:#3b90ff;stroke:#3b90ff;" x="197.582902" xlink:href="#m592d9c262f" y="131.473394"/>
     <use style="fill:#3b90ff;stroke:#3b90ff;" x="227.934393" xlink:href="#m592d9c262f" y="114.725224"/>
    </g>
   </g>
   <g id="patch_8">
    <path d="M 36.72 153 
L 36.72 81 
" style="fill:none;stroke:#ededed;stroke-linecap:square;stroke-linejoin:miter;stroke-width:0.5;"/>
   </g>
   <g id="patch_9">
    <path d="M 237.03984 153 
L 237.03984 81 
" style="fill:none;stroke:#ededed;stroke-linecap:square;stroke-linejoin:miter;stroke-width:0.5;"/>
   </g>
   <g id="patch_10">
    <path d="M 36.72 153 
L 237.03984 153 
" style="fill:none;stroke:#ededed;stroke-linecap:square;stroke-linejoin:miter;stroke-width:0.5;"/>
   </g>
   <g id="patch_11">
    <path d="M 36.72 81 
L 237.03984 81 
" style="fill:none;stroke:#ededed;stroke-linecap:square;stroke-linejoin:miter;stroke-width:0.5;"/>
   </g>
   <g id="text_13">
    <!-- $14E_r$, $D/J = 2.2$ -->
    <g style="fill:#ededed;" transform="translate(177.04 90.9)scale(0.08 -0.08)">
     <defs>
      <path d="M 37.796875 64.3125 
L 12.890625 25.390625 
L 37.796875 25.390625 
z
M 35.203125 72.90625 
L 47.609375 72.90625 
L 47.609375 25.390625 
L 58.015625 25.390625 
L 58.015625 17.1875 
L 47.609375 17.1875 
L 47.609375 0 
L 37.796875 0 
L 37.796875 17.1875 
L 4.890625 17.1875 
L 4.890625 26.703125 
z
" id="DejaVuSans-52"/>
      <path d="M 19.1875 8.296875 
L 53.609375 8.296875 
L 53.609375 0 
L 7.328125 0 
L 7.328125 8.296875 
Q 12.9375 14.109375 22.625 23.890625 
Q 32.328125 33.6875 34.8125 36.53125 
Q 39.546875 41.84375 41.421875 45.53125 
Q 43.3125 49.21875 43.3125 52.78125 
Q 43.3125 58.59375 39.234375 62.25 
Q 35.15625 65.921875 28.609375 65.921875 
Q 23.96875 65.921875 18.8125 64.3125 
Q 13.671875 62.703125 7.8125 59.421875 
L 7.8125 69.390625 
Q 13.765625 71.78125 18.9375 73 
Q 24.125 74.21875 28.421875 74.21875 
Q 39.75 74.21875 46.484375 68.546875 
Q 53.21875 62.890625 53.21875 53.421875 
Q 53.21875 48.921875 51.53125 44.890625 
Q 49.859375 40.875 45.40625 35.40625 
Q 44.1875 33.984375 37.640625 27.21875 
Q 31.109375 20.453125 19.1875 8.296875 
z
" id="DejaVuSans-50"/>
     </defs>
     <use transform="translate(0 0.78125)" xlink:href="#DejaVuSans-49"/>
     <use transform="translate(63.623047 0.78125)" xlink:href="#DejaVuSans-52"/>
     <use transform="translate(127.246094 0.78125)" xlink:href="#DejaVuSans-Oblique-69"/>
     <use transform="translate(190.429688 -15.625)scale(0.7)" xlink:href="#DejaVuSans-Oblique-114"/>
     <use transform="translate(221.943359 0.78125)" xlink:href="#ArialMT-44"/>
     <use transform="translate(249.726562 0.78125)" xlink:href="#ArialMT-32"/>
     <use transform="translate(277.509766 0.78125)" xlink:href="#DejaVuSans-Oblique-68"/>
     <use transform="translate(354.511719 0.78125)" xlink:href="#DejaVuSans-47"/>
     <use transform="translate(388.203125 0.78125)" xlink:href="#DejaVuSans-Oblique-74"/>
     <use transform="translate(437.177734 0.78125)" xlink:href="#DejaVuSans-61"/>
     <use transform="translate(540.449219 0.78125)" xlink:href="#DejaVuSans-50"/>
     <use transform="translate(604.072266 0.78125)" xlink:href="#DejaVuSans-46"/>
     <use transform="translate(630.359375 0.78125)" xlink:href="#DejaVuSans-50"/>
    </g>
   </g>
  </g>
  <g id="text_14">
   <!-- Spin alignment $A$ -->
   <g style="fill:#ededed;" transform="translate(7.3 121.272727)rotate(-90)scale(0.1 -0.1)">
    <defs>
     <path d="M 4.5 23 
L 13.421875 23.78125 
Q 14.0625 18.40625 16.375 14.96875 
Q 18.703125 11.53125 23.578125 9.40625 
Q 28.46875 7.28125 34.578125 7.28125 
Q 39.984375 7.28125 44.140625 8.890625 
Q 48.296875 10.5 50.3125 13.296875 
Q 52.34375 16.109375 52.34375 19.4375 
Q 52.34375 22.796875 50.390625 25.3125 
Q 48.4375 27.828125 43.953125 29.546875 
Q 41.0625 30.671875 31.203125 33.03125 
Q 21.34375 35.40625 17.390625 37.5 
Q 12.25 40.1875 9.734375 44.15625 
Q 7.234375 48.140625 7.234375 53.078125 
Q 7.234375 58.5 10.296875 63.203125 
Q 13.375 67.921875 19.28125 70.359375 
Q 25.203125 72.796875 32.421875 72.796875 
Q 40.375 72.796875 46.453125 70.234375 
Q 52.546875 67.671875 55.8125 62.6875 
Q 59.078125 57.71875 59.328125 51.421875 
L 50.25 50.734375 
Q 49.515625 57.515625 45.28125 60.984375 
Q 41.0625 64.453125 32.8125 64.453125 
Q 24.21875 64.453125 20.28125 61.296875 
Q 16.359375 58.15625 16.359375 53.71875 
Q 16.359375 49.859375 19.140625 47.359375 
Q 21.875 44.875 33.421875 42.265625 
Q 44.96875 39.65625 49.265625 37.703125 
Q 55.515625 34.8125 58.484375 30.390625 
Q 61.46875 25.984375 61.46875 20.21875 
Q 61.46875 14.5 58.203125 9.4375 
Q 54.9375 4.390625 48.796875 1.578125 
Q 42.671875 -1.21875 35.015625 -1.21875 
Q 25.296875 -1.21875 18.71875 1.609375 
Q 12.15625 4.4375 8.421875 10.125 
Q 4.6875 15.828125 4.5 23 
z
" id="ArialMT-83"/>
     <path d="M 6.59375 -19.875 
L 6.59375 51.859375 
L 14.59375 51.859375 
L 14.59375 45.125 
Q 17.4375 49.078125 21 51.046875 
Q 24.5625 53.03125 29.640625 53.03125 
Q 36.28125 53.03125 41.359375 49.609375 
Q 46.4375 46.1875 49.015625 39.953125 
Q 51.609375 33.734375 51.609375 26.3125 
Q 51.609375 18.359375 48.75 11.984375 
Q 45.90625 5.609375 40.453125 2.21875 
Q 35.015625 -1.171875 29 -1.171875 
Q 24.609375 -1.171875 21.109375 0.6875 
Q 17.625 2.546875 15.375 5.375 
L 15.375 -19.875 
z
M 14.546875 25.640625 
Q 14.546875 15.625 18.59375 10.84375 
Q 22.65625 6.0625 28.421875 6.0625 
Q 34.28125 6.0625 38.453125 11.015625 
Q 42.625 15.96875 42.625 26.375 
Q 42.625 36.28125 38.546875 41.203125 
Q 34.46875 46.140625 28.8125 46.140625 
Q 23.1875 46.140625 18.859375 40.890625 
Q 14.546875 35.640625 14.546875 25.640625 
z
" id="ArialMT-112"/>
     <path d="M 6.59375 0 
L 6.59375 51.859375 
L 14.5 51.859375 
L 14.5 44.484375 
Q 20.21875 53.03125 31 53.03125 
Q 35.6875 53.03125 39.625 51.34375 
Q 43.5625 49.65625 45.515625 46.921875 
Q 47.46875 44.1875 48.25 40.4375 
Q 48.734375 37.984375 48.734375 31.890625 
L 48.734375 0 
L 39.9375 0 
L 39.9375 31.546875 
Q 39.9375 36.921875 38.90625 39.578125 
Q 37.890625 42.234375 35.28125 43.8125 
Q 32.671875 45.40625 29.15625 45.40625 
Q 23.53125 45.40625 19.453125 41.84375 
Q 15.375 38.28125 15.375 28.328125 
L 15.375 0 
z
" id="ArialMT-110"/>
     <path d="M 40.4375 6.390625 
Q 35.546875 2.25 31.03125 0.53125 
Q 26.515625 -1.171875 21.34375 -1.171875 
Q 12.796875 -1.171875 8.203125 3 
Q 3.609375 7.171875 3.609375 13.671875 
Q 3.609375 17.484375 5.34375 20.625 
Q 7.078125 23.78125 9.890625 25.6875 
Q 12.703125 27.59375 16.21875 28.5625 
Q 18.796875 29.25 24.03125 29.890625 
Q 34.671875 31.15625 39.703125 32.90625 
Q 39.75 34.71875 39.75 35.203125 
Q 39.75 40.578125 37.25 42.78125 
Q 33.890625 45.75 27.25 45.75 
Q 21.046875 45.75 18.09375 43.578125 
Q 15.140625 41.40625 13.71875 35.890625 
L 5.125 37.0625 
Q 6.296875 42.578125 8.984375 45.96875 
Q 11.671875 49.359375 16.75 51.1875 
Q 21.828125 53.03125 28.515625 53.03125 
Q 35.15625 53.03125 39.296875 51.46875 
Q 43.453125 49.90625 45.40625 47.53125 
Q 47.359375 45.171875 48.140625 41.546875 
Q 48.578125 39.3125 48.578125 33.453125 
L 48.578125 21.734375 
Q 48.578125 9.46875 49.140625 6.21875 
Q 49.703125 2.984375 51.375 0 
L 42.1875 0 
Q 40.828125 2.734375 40.4375 6.390625 
z
M 39.703125 26.03125 
Q 34.90625 24.078125 25.34375 22.703125 
Q 19.921875 21.921875 17.671875 20.9375 
Q 15.4375 19.96875 14.203125 18.09375 
Q 12.984375 16.21875 12.984375 13.921875 
Q 12.984375 10.40625 15.640625 8.0625 
Q 18.3125 5.71875 23.4375 5.71875 
Q 28.515625 5.71875 32.46875 7.9375 
Q 36.421875 10.15625 38.28125 14.015625 
Q 39.703125 17 39.703125 22.796875 
z
" id="ArialMT-97"/>
     <path d="M 6.390625 0 
L 6.390625 71.578125 
L 15.1875 71.578125 
L 15.1875 0 
z
" id="ArialMT-108"/>
     <path d="M 4.984375 -4.296875 
L 13.53125 -5.5625 
Q 14.0625 -9.515625 16.5 -11.328125 
Q 19.78125 -13.765625 25.4375 -13.765625 
Q 31.546875 -13.765625 34.859375 -11.328125 
Q 38.1875 -8.890625 39.359375 -4.5 
Q 40.046875 -1.8125 39.984375 6.78125 
Q 34.234375 0 25.640625 0 
Q 14.9375 0 9.078125 7.71875 
Q 3.21875 15.4375 3.21875 26.21875 
Q 3.21875 33.640625 5.90625 39.90625 
Q 8.59375 46.1875 13.6875 49.609375 
Q 18.796875 53.03125 25.6875 53.03125 
Q 34.859375 53.03125 40.828125 45.609375 
L 40.828125 51.859375 
L 48.921875 51.859375 
L 48.921875 7.03125 
Q 48.921875 -5.078125 46.453125 -10.125 
Q 44 -15.1875 38.640625 -18.109375 
Q 33.296875 -21.046875 25.484375 -21.046875 
Q 16.21875 -21.046875 10.5 -16.875 
Q 4.78125 -12.703125 4.984375 -4.296875 
z
M 12.25 26.859375 
Q 12.25 16.65625 16.296875 11.96875 
Q 20.359375 7.28125 26.46875 7.28125 
Q 32.515625 7.28125 36.609375 11.9375 
Q 40.71875 16.609375 40.71875 26.5625 
Q 40.71875 36.078125 36.5 40.90625 
Q 32.28125 45.75 26.3125 45.75 
Q 20.453125 45.75 16.34375 40.984375 
Q 12.25 36.234375 12.25 26.859375 
z
" id="ArialMT-103"/>
     <path d="M 25.78125 7.859375 
L 27.046875 0.09375 
Q 23.34375 -0.6875 20.40625 -0.6875 
Q 15.625 -0.6875 12.984375 0.828125 
Q 10.359375 2.34375 9.28125 4.8125 
Q 8.203125 7.28125 8.203125 15.1875 
L 8.203125 45.015625 
L 1.765625 45.015625 
L 1.765625 51.859375 
L 8.203125 51.859375 
L 8.203125 64.703125 
L 16.9375 69.96875 
L 16.9375 51.859375 
L 25.78125 51.859375 
L 25.78125 45.015625 
L 16.9375 45.015625 
L 16.9375 14.703125 
Q 16.9375 10.9375 17.40625 9.859375 
Q 17.875 8.796875 18.921875 8.15625 
Q 19.96875 7.515625 21.921875 7.515625 
Q 23.390625 7.515625 25.78125 7.859375 
z
" id="ArialMT-116"/>
     <path d="M 36.8125 72.90625 
L 48 72.90625 
L 61.53125 0 
L 51.21875 0 
L 48.1875 18.703125 
L 15.375 18.703125 
L 5.078125 0 
L -5.328125 0 
z
M 40.375 63.1875 
L 19.921875 26.90625 
L 46.6875 26.90625 
z
" id="DejaVuSans-Oblique-65"/>
    </defs>
    <use transform="translate(0 0.09375)" xlink:href="#ArialMT-83"/>
    <use transform="translate(66.699219 0.09375)" xlink:href="#ArialMT-112"/>
    <use transform="translate(122.314453 0.09375)" xlink:href="#ArialMT-105"/>
    <use transform="translate(144.53125 0.09375)" xlink:href="#ArialMT-110"/>
    <use transform="translate(200.146484 0.09375)" xlink:href="#ArialMT-32"/>
    <use transform="translate(227.929688 0.09375)" xlink:href="#ArialMT-97"/>
    <use transform="translate(283.544922 0.09375)" xlink:href="#ArialMT-108"/>
    <use transform="translate(305.761719 0.09375)" xlink:href="#ArialMT-105"/>
    <use transform="translate(327.978516 0.09375)" xlink:href="#ArialMT-103"/>
    <use transform="translate(383.59375 0.09375)" xlink:href="#ArialMT-110"/>
    <use transform="translate(439.208984 0.09375)" xlink:href="#ArialMT-109"/>
    <use transform="translate(522.509766 0.09375)" xlink:href="#ArialMT-101"/>
    <use transform="translate(578.125 0.09375)" xlink:href="#ArialMT-110"/>
    <use transform="translate(633.740234 0.09375)" xlink:href="#ArialMT-116"/>
    <use transform="translate(661.523438 0.09375)" xlink:href="#ArialMT-32"/>
    <use transform="translate(689.306641 0.09375)" xlink:href="#DejaVuSans-Oblique-65"/>
   </g>
  </g>
 </g>
 <defs>
  <clipPath id="p953ae67c0c">
   <rect height="72" width="200.31984" x="36.72" y="9"/>
  </clipPath>
  <clipPath id="pe35e295742">
   <rect height="72" width="200.31984" x="36.72" y="81"/>
  </clipPath>
 </defs>
</svg>
